<?xml version="1.0" encoding="utf-8"?>
<!-- Generator: Adobe Illustrator 22.1.0, SVG Export Plug-In . SVG Version: 6.00 Build 0)  -->
<svg version="1.1" id="Layer_1" xmlns="http://www.w3.org/2000/svg" xmlns:xlink="http://www.w3.org/1999/xlink" x="0px" y="0px"
	 viewBox="0 0 294.1 124.3" style="enable-background:new 0 0 294.1 124.3;" xml:space="preserve">
<style type="text/css">
	.st0{fill:#FFFFFF;}
	.st1{fill:none;stroke:#231F20;stroke-width:2.125;stroke-miterlimit:10;}
	.st2{fill:#F9AD2D;}
	.st3{fill:#221F1F;}
	.st4{fill:#ED3F34;}
</style>
<path class="st0" d="M293.1,67.4c0-2.6-0.5-5.1-1.3-7.4c-0.4-1.2-1-2.4-1.7-3.6c-0.4-0.6-0.8-1.2-1.2-1.8c-0.7-0.9-1.4-1.8-2.2-2.5
	c-0.9-0.9-2-1.8-3.1-2.5c-1.9-1.3-4.1-2.3-6.4-3c-1.7-0.5-3.5-0.9-5.3-1.1l0.2-2.3l-3.7-0.2c-8.5-0.4-11-0.8-13.9-1.3
	c-0.3,0-0.5-0.1-0.8-0.1c-1.1-0.2-2.3-0.4-3.8-0.6c-1.2-0.2-2.5-0.3-4.2-0.5v-0.1l-2.8-1l-2.8-1c0.1-0.5,0.3-1,0.6-1.8l2.3-5.7
	l1.6-4l-2.5,1.5l-6.5,3.9c-0.4,0.2-0.6,0.3-1.2,0.3c-0.2,0-0.4,0-0.7,0c0-0.1-0.1-0.2-0.1-0.3c0,0,0-0.1,0-0.1
	c-0.2-0.7-0.5-1.4-0.6-2c-0.1-0.3-0.1-0.6-0.2-0.8c0-0.3,0-0.5,0-0.7l0.5-3.9v0h-7.3l-0.5,2l-0.2,0.6c-0.1,0.6-0.4,1.1-0.7,1.6
	c-0.5-0.5-1.1-1-1.7-1.4c-0.7-0.5-1.3-0.9-2.1-1.3c-1.3-0.6-2.6-1.1-4-1.4c-1-0.2-2-0.3-3-0.3c-1.5,0-2.9,0.2-4.2,0.7l-0.2,0.1
	l-0.1,0c-0.2,0.1-0.3,0.1-0.5,0.2c-1.7,0.7-3.4,1.7-4.7,3.2c-0.1,0.1-0.1,0.2-0.2,0.3c-0.4,0.5-0.7,1-1.1,1.6
	c-0.4,0.6-0.7,1.3-0.9,2.1l0,0.2l-0.1,0.3c-0.6,3.3,0,6.5,1.5,8.8c0.1,0.2,0.2,0.4,0.3,0.5c-1,0.1-2.1,0.2-3.3,0.2l-6.5,0
	c0.3-0.2,0.6-0.4,0.9-0.5c1.1-0.6,2.2-1.5,3-2.5c0.4-0.5,0.8-1,1.1-1.5c0.7-1.1,1.2-2.3,1.5-3.6c0.1-0.5,0.1-1.1,0.1-1.6
	c0-0.5-0.1-1.1-0.2-1.6l-0.1-0.2l-0.1-0.2c-0.2-0.6-0.6-1.1-0.9-1.6c-0.1-0.2-0.2-0.3-0.4-0.5c-0.2-0.3-0.5-0.6-0.7-0.9
	c-0.2-0.2-0.4-0.4-0.6-0.6c-0.2-0.2-0.4-0.3-0.6-0.5c-1.8-1.5-3.9-2.4-5.9-2.7c0.1-1.2-0.1-2.4-0.5-3.5l-0.1-0.2
	c-1.7-3.2-4.3-5.3-7.7-6l-0.4-0.1l-1.3,0c0,0,0,0,0,0c-0.8,0-1.7,0.1-2.5,0.3c0,0,0-0.1,0-0.1v0l-0.1-0.7l-0.3-0.6
	c-0.7-1.2-1.7-3.1-4.3-4.1l-0.3-0.1l-0.3,0C173,9,172.4,9,171.8,9c-0.6,0-1.1,0.2-1.7,0.3c-0.3-1-0.8-2.1-1.6-3
	c-0.3-0.3-0.6-0.7-1-1L167.2,5l-0.6-0.3c-1-0.4-2-0.8-3.1-0.8L163,4c0,0,0,0,0,0c-1.1,0.1-2.2,0.4-3.3,0.9c-0.4-0.6-0.8-1.2-1.4-1.7
	c-0.2-0.2-0.4-0.4-0.6-0.5c-0.2-0.1-0.4-0.3-0.6-0.4c-0.5-0.3-1-0.5-1.6-0.7c-0.3-0.1-0.6-0.1-0.9-0.1c-0.3,0-0.5-0.1-0.8-0.1h0
	c-0.6,0-1.1,0.1-1.6,0.2c-0.2,0-0.3,0.1-0.5,0.1c-0.4,0.1-0.8,0.3-1.1,0.5c-0.3,0.1-0.5,0.3-0.8,0.4l0,0l-0.2-0.4h-5h0l-0.3,0.7
	c-1.2-0.9-2.7-1.4-4.3-1.5c-0.1,0-0.2,0-0.2,0c-0.5,0-1.1,0.1-1.6,0.2h0c-0.6,0.2-1.2,0.4-1.6,0.7c-0.2,0.1-0.3,0.2-0.4,0.3
	c-0.3,0.2-0.6,0.4-0.8,0.6c-0.2,0.2-0.3,0.4-0.5,0.6c-0.1,0.2-0.3,0.4-0.4,0.5c-0.2,0.3-0.4,0.6-0.6,0.9c-0.5-0.4-1.1-0.7-1.9-0.9
	c0,0,0,0-0.1,0c-0.3-0.1-0.6-0.2-1-0.2c-0.1,0-0.2,0-0.3,0c-0.4,0-0.8-0.1-1.3,0c0,0,0,0,0,0l-0.3,0c-0.4,0.1-0.8,0.2-1.2,0.3
	c-1.2,0.4-2.3,1-3.2,1.9c-0.4,0.4-0.8,0.8-1.1,1.3l-0.4,0.6L123.2,9v0c0,0.1,0,0.3,0,0.4c-0.5-0.1-0.9-0.2-1.4-0.2
	c-0.1,0-0.3,0-0.4,0c-0.4,0-0.8,0-1.1,0.1c-0.3,0-0.5,0.1-0.8,0.2c-0.3,0.1-0.5,0.1-0.8,0.2c-0.5,0.2-1,0.5-1.5,0.8l0,0
	c-0.5,0.3-0.8,0.6-1.2,0.9c-0.1,0.1-0.2,0.2-0.2,0.3c-0.3,0.3-0.5,0.6-0.7,1c0,0-0.1,0.1-0.1,0.1c-0.4,0.9-0.7,1.8-0.8,2.7
	c-0.5-0.2-0.9-0.3-1.4-0.4c0,0,0,0,0,0c-0.5-0.1-1.1-0.2-1.6-0.2l0,0c-1.2,0-2.3,0.2-3.5,0.7l-0.4,0.2c-1,0.6-3,1.7-4.2,3.9
	c-0.4,0.7-0.7,1.6-0.8,2.5c-0.1,0.6-0.1,1.2-0.1,1.8c0,0.2,0,0.4,0,0.6c-4.1,0.5-6.9,2-8.2,4.2c0,0.1-0.1,0.2-0.1,0.2
	c-0.2,0.3-0.3,0.6-0.4,0.9c-0.1,0.4-0.2,0.8-0.3,1.3l0,0.3c0,1.2,0.1,3.4,0.8,5.5c0.2,0.5,0.4,1.1,0.7,1.5c0.2,0.4,0.5,0.8,0.7,1.1
	c0.3,0.3,0.6,0.6,1,0.9c1.3,0.9,2.5,1.6,3.8,2.3l-9.7,0h0c0.9-1.3,1.7-2.9,2.1-4.7l0.1-0.3l0-0.2c0.1-0.6,0-1.3,0-2.1
	c0-0.6-0.1-1.2-0.3-1.8c-0.2-0.8-0.4-1.5-0.7-2.2c-0.5-1.2-1.1-2.2-2-3.1c-0.1-0.1-0.1-0.1-0.2-0.2c-0.3-0.3-0.6-0.5-0.9-0.8
	c-0.6-0.5-1.2-0.9-1.9-1.2c-0.7-0.4-1.4-0.6-2.1-0.9c-1.4-0.5-3-0.7-4.6-0.7c-1.1,0-2.1,0.1-3.1,0.3c-0.1,0-0.2,0-0.2,0l0,0l-0.1,0
	c-2.8,0.8-5.1,2.1-6.9,3.9l-3-5.3l-5.5,2.7l0.3,2.5c0,0.2,0,0.5-0.1,0.9c-0.1,0.5-0.3,1.1-0.4,1.7c0,0.1-0.1,0.3-0.1,0.4
	c0,0.1-0.1,0.2-0.1,0.3c-1.3-0.3-2.4-0.7-3.4-1.3l-0.1,0.1l-8.1-3.9v0l3.6,8.7l0,0c0,0,0,0.1,0.1,0.1l0,0l0,0
	c0.2,0.3,0.3,0.5,0.5,0.8c0.2,0.4,0.5,0.8,0.7,1.3c0.1,0.3,0.3,0.5,0.4,0.8L47.5,41l-22.2,2.6L24.5,45c-0.1,0.2-0.2,0.3-0.2,0.5
	c-2.5,0.2-4.8,0.7-7,1.4c-1.5,0.5-2.8,1-4.1,1.7c-0.7,0.3-1.3,0.7-1.9,1.1c-1.2,0.8-2.3,1.7-3.4,2.6c-2.2,2.1-3.9,4.5-5,7.1
	c-0.3,0.7-0.5,1.3-0.8,2c-0.6,2.1-1,4.2-1,6.5c0,5.2,2,10.5,5.8,14.6c2.4,2.6,5.5,4.7,9.4,6.1c2.3,0.8,4.9,1.4,7.7,1.7v1.3v0
	l3.3,0.2c1.9,0.1,3.7,0.2,5.5,0.2c1.8,0.1,3.5,0.1,5.2,0.1c3.3,0.1,6.3,0.1,9.2,0.1c12.1,0,21.8,0.1,35.3,3.3L82.2,96l0.8,4.2h2.1
	v4.2l4.1-0.8c0.3-0.1,0.6-0.2,0.9-0.2c0.2,0.4,0.4,0.7,0.7,1.1l2,2.3l0.2,0.3v0l1.1-0.9c1.5,2.5,4.1,4.1,7,4.5c0.3,0,0.6,0,0.9,0.1
	c0.3,0,0.5,0.1,0.8,0.1c1.4,0,2.7-0.3,3.8-0.8c0.6-0.3,1.1-0.6,1.6-1c0.5-0.4,0.9-0.8,1.3-1.3c0.8-1.1,1.3-2.4,1.4-3.7v0.1
	c0,3.4,1.5,5.8,3.4,7.8c0,0,0,0,0,0c1.1,1.1,2.3,2.1,3.4,2.9c0.4,0.3,0.8,0.6,1.1,0.9l0.1,0.1c8.1,6,18.2,7.5,25.2,7.7l0.5,0
	l0.3-0.1c2.9,0,5.8,0,8.7-0.2c0.1,0,0.3,0,0.4,0c4.9-0.3,10-1.2,15.1-3.4l0.2-0.1c1.5-0.7,2.7-1.4,3.9-2.1c0.5-0.3,1.1-0.7,1.6-1
	c1-0.7,2-1.4,2.9-2.2l0.5-0.4c0.6-0.6,1.4-1.2,2-1.9c0.6-0.6,1.2-1.3,1.8-2c0.2-0.2,0.3-0.5,0.5-0.8c1-1.6,1.7-3.4,1.5-5.6l0.2-0.2
	c0,0.5,0.1,1.1,0.3,1.6c0.5,1.5,1.4,2.9,2.7,3.8c2.1,1.5,4.9,2,8.1,1.4c2.7-0.6,4.9-2.3,6.3-4.8l0.9,0.5l0.9,0.5l0.8-1.3l0.8-1.3
	c0.1-0.2,0.2-0.3,0.3-0.5l6.2,1.3l-1-4.1l3.2-3.2l-0.6-1.6c12.6-2.3,20.8-3,30-3.1c1.3,0,2.7,0,4.1,0c2.1,0,4.2,0,6.5,0
	c4.3,0,9,0.1,14.6,0l4.6-0.1l-0.5-1.7l-0.2-0.5C286,88.3,293.1,77.8,293.1,67.4z M212.9,37.9c-0.1,0.2-0.2,0.3-0.3,0.5
	c-0.1,0-0.1-0.1-0.2-0.1c-0.3-0.6-0.4-1.1-0.5-1.6c0-0.2-0.1-0.3-0.1-0.5c0.4-0.4,0.7-0.6,0.8-0.7c0.1,0,0.2-0.1,0.2-0.1h0.4l0,0
	l0,0c0,0.1,0.1,0.2,0.1,0.4c0,0.2,0,0.3,0,0.6C213.4,36.7,213.3,37.2,212.9,37.9 M192.9,102.8c-0.4,0-0.8,0-0.9-0.1c0,0,0,0,0-0.1
	c0,0,0,0,0,0l1-1.4v0l-1.3-1.9c0,0,0,0,0,0c0,0,0,0,0.1,0c0.4,0,1.1,0.1,1.6,0.3c0.1,0,0.1,0,0.2,0.1l0.3,0.8l0.4,1.1
	c0,0.1-0.1,0.2-0.2,0.3C193.8,102.1,193.4,102.5,192.9,102.8 M82.1,38.5c-0.3-0.3-0.6-0.7-0.9-1.1c-0.2-0.5-0.3-0.9-0.3-1.2
	c0-0.3,0.1-0.6,0.2-0.8c0,0,0,0,0,0c0,0,0,0,0,0l0.3-0.1c0.3-0.1,0.9,0.2,1.2,0.6l0.1,0.1c0.1,0.1,0.2,0.3,0.2,0.5
	c0,0.2,0,0.4-0.1,0.6l-0.1,0.3c-0.1,0.2-0.2,0.4-0.3,0.6C82.3,38.3,82.2,38.4,82.1,38.5 M101.9,100c0.1-0.2,0.2-0.3,0.3-0.3
	c0.5-0.2,1-0.3,1.5-0.4l-0.2,1c0,0.2,0,0.4,0,0.6c0,0.2-0.1,0.5,0,0.6c0,0,0,0.1,0,0.1c0,0.3,0.1,0.6,0.1,0.9l0,0.3l0,0
	c-0.2,0-0.4,0-0.5,0c0,0,0,0,0,0c-0.1,0-0.2,0-0.3,0l-0.9-1.1l-0.2-1.1C101.7,100.4,101.8,100.2,101.9,100"/>
<path class="st0" d="M293.1,67.4c0-5.9-2.2-11.3-6.3-15.4c-3.8-3.7-8.8-6-14.8-6.6l0.2-2.3l-3.7-0.2c-8.5-0.4-11-0.8-13.9-1.3
	c-2.1-0.4-4.3-0.8-8.8-1.2v-0.1l-5.6-1.9c0.1-0.5,0.3-1,0.6-1.8l3.9-9.7l-9,5.4c-0.4,0.2-0.6,0.3-1.2,0.3c-0.2,0-0.4,0-0.6,0
	c0-0.1-0.1-0.3-0.1-0.4c-0.5-1.4-0.9-2.6-0.8-3.5l0.5-3.9h-7.3l-0.7,2.6c-0.1,0.6-0.4,1.1-0.7,1.6c-0.5-0.5-1.1-1-1.7-1.4
	c-2.6-1.9-5.8-3-9-3c-1.5,0-2.9,0.2-4.2,0.7l-0.2,0.1c-2.9,1.2-6,3-7.4,7.5l-0.1,0.4c-0.6,3.6,0.1,7,1.8,9.3c-1,0.1-2.1,0.2-3.3,0.2
	l-6.5,0c0.3-0.2,0.7-0.4,0.9-0.5c3.6-2,6.7-6.6,5.5-10.8l-0.2-0.5c-1.7-3.9-5.6-6.1-9.1-6.6c0.1-1.2,0-2.4-0.5-3.5l-0.1-0.2
	c-1.7-3.2-4.3-5.3-7.7-6l-0.4-0.1l-1.3,0c-0.8,0-1.7,0.1-2.6,0.3c0,0,0-0.1,0-0.1l-0.1-0.7l-0.3-0.6c-0.7-1.2-1.7-3.1-4.3-4.1
	l-0.3-0.1l-0.3,0c-1.1-0.2-2.3,0-3.4,0.3c-0.4-1.4-1.1-2.8-2.5-4L167.2,5l-0.6-0.3c-1-0.4-2-0.8-3.1-0.8L163,4
	c-1.1,0.1-2.2,0.4-3.3,0.9c-0.9-1.6-2.4-2.8-4.2-3.2c-0.6-0.1-1.1-0.2-1.7-0.2c-1.5,0-2.8,0.5-4,1.2l-0.2-0.4h-5l-0.3,0.7
	c-1.6-1.3-3.8-1.9-6.1-1.3c-2.4,0.6-3.6,2.4-4.3,3.7c-1.1-0.7-2.5-1.4-4.5-1.2l-0.3,0c-2.2,0.3-4.1,1.6-5.4,3.5l-0.4,0.6L123.2,9
	c0,0.1,0,0.3,0,0.4c-2.3-0.5-4.3-0.2-6,1c-2,1.2-2.7,3.2-2.9,5c-1-0.3-2-0.6-3.2-0.6c-1.2,0-2.3,0.2-3.5,0.7l-0.4,0.2
	c-1.4,0.8-4.5,2.5-5,6.5c-0.2,0.8-0.2,1.7-0.1,2.5c-5.4,0.7-8.7,3-9,6.5l0,0.3c0,2,0.3,7,3.2,9.1c1.3,0.9,2.7,1.6,4,2.3l-9.9,0
	c0.9-1.3,1.7-2.9,2.1-4.7l0.1-0.6c0.3-3.4-0.9-7.9-4.1-10.1c-2.3-1.8-5.3-2.8-8.5-2.8c-1.1,0-2.3,0.1-3.4,0.4l-0.2,0
	c-2.8,0.8-5.1,2.1-6.9,3.9l-3-5.3l-5.5,2.7l0.3,2.5c0.1,0.6-0.2,1.6-0.5,2.5c-0.1,0.2-0.1,0.5-0.2,0.7c-1.3-0.3-2.4-0.7-3.4-1.3
	l-0.1,0.1l-8.1-3.9l3.6,8.7l0,0c0.7,1,1.2,2,1.6,3L47.5,41l-22.2,2.6L24.5,45c-0.1,0.2-0.2,0.3-0.2,0.5c-6.6,0.6-12.3,2.9-16.4,6.8
	C3.4,56.4,1,62,1.1,67.9c0,10.4,7.9,21,22.8,22.4v1.3l3.3,0.2c7.6,0.4,14.1,0.4,19.8,0.4c12.1,0,21.8,0.1,35.3,3.3L82.2,96l0.8,4.2
	h2.1v4.2l4.1-0.8c0.3-0.1,0.7-0.2,0.9-0.2c0.2,0.4,0.4,0.7,0.7,1.1l2.2,2.5l1.1-0.9c1.5,2.5,4.1,4.1,7,4.5c0.5,0.1,1.1,0.1,1.7,0.1
	c2.7,0,5.2-1.1,6.7-3.1c0.8-1.1,1.3-2.4,1.4-3.7v0.1c0,5.4,3.9,8.5,6.8,10.7c0.4,0.3,0.8,0.6,1.1,0.9l0.1,0.1
	c8.1,6,18.2,7.5,25.2,7.7l0.5,0l0.3-0.1c7.8,0,15.8-0.1,24.2-3.7l0.2-0.1c3.7-1.8,6.1-3.4,8.4-5.3l0.5-0.4c2.6-2.3,6.1-5.4,5.8-10.2
	l0.2-0.2c0.2,2.2,1.3,4.2,3,5.4c2.1,1.5,4.9,2,8.1,1.4c2.7-0.6,4.9-2.3,6.3-4.8l1.9,0.9l1.7-2.6c0.1-0.2,0.2-0.3,0.3-0.5l6.2,1.3
	l-1-4.1l3.2-3.2l-0.6-1.6c14.3-2.6,23-3.2,34.1-3.2c2.1,0,4.2,0,6.5,0c4.3,0,9,0.1,14.6,0l4.6-0.1l-0.7-2.2
	C286,88.3,293.1,77.8,293.1,67.4 M192,102.6l1-1.4l-1.3-1.9c0,0,0,0,0,0c0.5,0,1.3,0,1.9,0.3l0.7,1.8c-0.2,0.6-0.7,1.1-1.3,1.5
	c-0.4,0-0.8,0-0.9-0.1C192,102.7,192,102.6,192,102.6 M103.5,102.6l0,0.3l0,0c-0.4,0.1-0.7,0-0.8,0l-0.9-1.1l-0.2-1.1
	c0.2-0.5,0.5-0.9,0.6-1c0.5-0.2,1-0.3,1.5-0.4l-0.2,1C103.3,101.3,103.5,102.1,103.5,102.6 M82.1,38.5c-0.3-0.3-0.6-0.7-0.9-1.1
	c-0.4-1-0.3-1.6-0.1-2c0,0,0,0,0,0l0.3-0.1c0.3-0.1,0.9,0.2,1.2,0.6l0.1,0.1c0.2,0.3,0.3,0.8,0.1,1.1l-0.1,0.3
	C82.5,37.9,82.3,38.3,82.1,38.5 M211.8,36.1c0.5-0.6,0.9-0.8,1-0.8h0.4l0,0l0,0c0.2,0.4,0.3,1.2-0.4,2.6c-0.1,0.2-0.2,0.3-0.3,0.5
	c-0.1,0-0.1-0.1-0.2-0.1C212,37.4,211.8,36.7,211.8,36.1"/>
<path class="st0" d="M146,118.9c-8.2,0-17.5-1.5-24.8-7c17.3,7.9,35.1,7.9,52.2-0.3c-4.9,4.1-12.6,6.6-18.8,6.9L146,118.9z"/>
<path d="M144.8,123.3l-0.5,0c-7.1-0.2-17.1-1.7-25.2-7.7l-0.1-0.1c-0.4-0.3-0.7-0.6-1.1-0.9c-2.9-2.2-6.8-5.3-6.8-10.7v-0.1
	c-0.1,1.3-0.6,2.6-1.4,3.7c-1.5,1.9-3.9,3.1-6.7,3.1c-0.6,0-1.1,0-1.7-0.1c-3-0.3-5.5-1.9-7-4.5l-1.1,0.9l-2.2-2.5
	c-0.3-0.3-0.5-0.7-0.7-1.1c-0.3,0.1-0.6,0.2-0.9,0.2l-4.1,0.8v-4.2H83L82.2,96l0.2-0.5c-13.5-3.2-23.3-3.2-35.3-3.3
	c-5.7,0-12.3,0-19.8-0.4l-3.3-0.2v-1.3c-15-1.4-22.8-12-22.8-22.4C1,62,3.4,56.4,7.8,52.3c4.2-3.9,9.8-6.2,16.4-6.8
	c0.1-0.2,0.1-0.3,0.2-0.5l0.9-1.5L47.5,41l6.8-2.2c-0.4-1-0.9-2-1.6-3l4.6-5c1,0.6,2.2,1,3.4,1.3c0.1-0.2,0.1-0.5,0.2-0.7
	c0.3-1,0.6-2,0.5-2.5l-0.3-2.5l5.5-2.7l3,5.3c1.9-1.8,4.2-3.1,6.9-3.9l0.2,0c1.1-0.3,2.2-0.4,3.4-0.4c3.2,0,6.2,1,8.5,2.8
	c3.3,2.2,4.4,6.8,4.1,10.1l-0.1,0.6c-0.5,1.8-1.2,3.4-2.1,4.7l110.5-0.1c1.2,0,2.3-0.1,3.3-0.2c-1.8-2.3-2.4-5.7-1.8-9.3l0.1-0.4
	c1.4-4.4,4.5-6.3,7.4-7.5l0.2-0.1c1.3-0.4,2.7-0.7,4.2-0.7c3.2,0,6.4,1,9,3c0.6,0.4,1.2,0.9,1.7,1.4c0.3-0.5,0.5-1.1,0.7-1.6
	l0.7-2.6h7.3l-0.5,3.9c-0.1,0.9,0.3,2.1,0.8,3.5c0,0.1,0.1,0.3,0.1,0.4c0.2,0,0.4,0,0.7,0c0.6,0,0.9-0.1,1.2-0.3l9-5.4l-3.9,9.7
	c-0.3,0.8-0.5,1.3-0.6,1.8l5.6,1.9v0.1c4.5,0.4,6.7,0.8,8.8,1.2c2.9,0.5,5.4,1,13.9,1.3l3.7,0.2l-0.2,2.3c6,0.7,11.1,2.9,14.8,6.6
	c4.1,4,6.3,9.5,6.3,15.4c0,10.4-7,20.9-20.6,22.7l0.7,2.2l-4.6,0.1c-5.6,0.1-10.3,0-14.6,0c-2.3,0-4.4,0-6.5,0
	c-11.1,0-19.7,0.5-34.1,3.2l0.6,1.6l-3.2,3.2l1,4.1l-6.2-1.3c-0.1,0.2-0.2,0.3-0.3,0.5l-1.7,2.6l-1.9-0.9c-1.4,2.5-3.6,4.1-6.3,4.8
	c-3.2,0.7-5.9,0.2-8.1-1.4c-1.7-1.1-2.9-3.2-3-5.4l-0.2,0.2c0.3,4.9-3.3,8-5.8,10.2l-0.5,0.4c-2.3,1.9-4.7,3.5-8.4,5.3l-0.2,0.1
	c-8.4,3.6-16.5,3.7-24.2,3.7L144.8,123.3z M123.3,110.1c6.4,4.8,14.7,6,20.7,6.3l0.2-0.1h0.4c7.5,0,14.6,0,21.8-3.1
	c3.1-1.6,5.1-2.8,6.9-4.3l0.4-0.4c1.9-1.6,3.2-2.9,3.5-4.1c-2.9-6-11.9-8.1-18.5-9.6l-0.9-0.2l0.7-6.8l0.5,0c7.9,0,16.9,3.1,23.3,8
	c2.1-1.6,4.3-2.7,6.6-3.2l0.3-0.1c0.8-0.1,1.6-0.2,2.4-0.2c3,0,5.5,0.9,7.2,2.7l0.5,0.5l0.5,1.3c0.3,0,0.5,0,0.8,0.1
	c0.2-0.2,0.3-0.3,0.5-0.5l1.3-1.1l0,0l-0.4-1.8l2.9-0.5l-1.1-2.9l4.1-0.8c1.7-0.3,3.3-0.6,4.8-0.9l0.2-1.1c0.1-2.6,1.6-3.4,2.5-3.7
	l0.5-0.2h52.3c12.2,0,17.8-8.3,17.8-16c0-4-1.5-7.7-4.2-10.4c-3.2-3.2-7.9-4.8-13.7-4.8L240,52.3l-1.8-5.5l-6.2-0.5l2.9-2.4l-2.9-1
	l0.8-3.1c0-0.1,0.1-0.2,0.1-0.3c-0.5,0-0.9,0-1.2,0.1l-2.1,0.4l-1.3-1.7c-0.1-0.1-0.2-0.2-0.3-0.4l-0.2,0.5h-4.4l-1.5-2.3
	c-0.6-0.8-1.1-1.6-1.6-2.2c0.5,2.4,0.1,4.9-1.2,7.3l-0.2,0.2c-1,1.4-2.1,2.6-3.4,3.7V46h-0.9c-3.5,2.4-8.1,3.7-13.7,3.7L88,49.8
	l-0.5-0.2c-3-0.9-5.7-2.3-8-4.1l-0.4-0.1v-0.2c-1.5-1.2-2.7-2.6-3.8-4.1L75.2,41L75,40.7c-1.1-2.3-1.4-4.5-0.8-6.6
	c-0.7,0.7-1.3,1.5-1.9,2.6l-0.8,1.5l-4.2,0.7l0.2,1.6l-4.8-0.9c-0.3-0.1-0.7-0.1-1-0.2c0.1,0.4,0.2,0.9,0.2,1.3l0.3,2.8l-3.5,1.2
	L57.9,46l0.2,0.8l-0.7,0.1l-3.2,5.3l-26.9,0.2C13.9,52.4,8,60.2,8,67.9c0,7.5,6.1,15.7,19.4,15.7l53.3-0.1l2.8,5.1
	c1.5,0.3,3,0.7,4.6,1.2l3.9,1l-1.2,2.7c0,0,0.1,0,0.1,0l0.6,0.3l2,2l-0.1,0.2c0.2,0.1,0.5,0.2,0.7,0.3l0.8,0.4l0.4,0.5
	c0.1,0,0.2,0,0.3,0c0.8-1.6,2.1-2.9,3.6-3.7l0.1,0c1.5-0.7,3-1,4.7-1c3.5,0,6.6,1.6,9.2,3.5l0.9-0.9c4.8-4,12.7-6.8,19.3-6.8l1,6.8
	l-6.8,2.1c-5.1,2.1-8,4.3-9.4,7.2c0.3,1.6,1.8,2.9,4.1,4.7C122.5,109.4,122.9,109.7,123.3,110.1 M102.7,102.9c0.1,0,0.4,0.1,0.8,0
	l0,0l0-0.3c-0.1-0.5-0.2-1.3,0-2.2l0.2-1c-0.5,0-1,0.1-1.5,0.4c-0.2,0.1-0.4,0.4-0.6,1l0.2,1.1L102.7,102.9z M192,102.7
	c0.2,0.1,0.5,0.2,0.9,0.1c0.5-0.4,1-0.9,1.3-1.5l-0.7-1.8c-0.6-0.3-1.4-0.3-1.9-0.3c0,0,0,0,0,0l1.3,1.9l-1,1.4
	C192,102.6,192,102.7,192,102.7 M81.2,37.4c0.3,0.4,0.6,0.7,0.9,1.1c0.3-0.3,0.5-0.6,0.6-1l0.1-0.3c0.1-0.3,0.1-0.9-0.1-1.1
	l-0.1-0.1c-0.3-0.4-0.9-0.6-1.2-0.6L81,35.4c0,0,0,0,0,0C80.8,35.9,80.7,36.4,81.2,37.4 M212.4,38.2c0.1,0,0.1,0.1,0.2,0.1
	c0.1-0.2,0.2-0.3,0.3-0.5c0.7-1.3,0.5-2.2,0.4-2.6l0,0l0,0h-0.4c-0.1,0-0.5,0.2-1,0.8C211.8,36.7,212,37.4,212.4,38.2"/>
<path class="st1" d="M144.8,123.3l-0.5,0c-7.1-0.2-17.1-1.7-25.2-7.7l-0.1-0.1c-0.4-0.3-0.7-0.6-1.1-0.9c-2.9-2.2-6.8-5.3-6.8-10.7
	v-0.1c-0.1,1.3-0.6,2.6-1.4,3.7c-1.5,1.9-3.9,3.1-6.7,3.1c-0.6,0-1.1,0-1.7-0.1c-3-0.3-5.5-1.9-7-4.5l-1.1,0.9l-2.2-2.5
	c-0.3-0.3-0.5-0.7-0.7-1.1c-0.3,0.1-0.6,0.2-0.9,0.2l-4.1,0.8v-4.2H83L82.2,96l0.2-0.5c-13.5-3.2-23.3-3.2-35.3-3.3
	c-5.7,0-12.3,0-19.8-0.4l-3.3-0.2v-1.3c-15-1.4-22.8-12-22.8-22.4C1,62,3.4,56.4,7.8,52.3c4.2-3.9,9.8-6.2,16.4-6.8
	c0.1-0.2,0.1-0.3,0.2-0.5l0.9-1.5L47.5,41l6.8-2.2c-0.4-1-0.9-2-1.6-3l4.6-5c1,0.6,2.2,1,3.4,1.3c0.1-0.2,0.1-0.5,0.2-0.7
	c0.3-1,0.6-2,0.5-2.5l-0.3-2.5l5.5-2.7l3,5.3c1.9-1.8,4.2-3.1,6.9-3.9l0.2,0c1.1-0.3,2.2-0.4,3.4-0.4c3.2,0,6.2,1,8.5,2.8
	c3.3,2.2,4.4,6.8,4.1,10.1l-0.1,0.6c-0.5,1.8-1.2,3.4-2.1,4.7l110.5-0.1c1.2,0,2.3-0.1,3.3-0.2c-1.8-2.3-2.4-5.7-1.8-9.3l0.1-0.4
	c1.4-4.4,4.5-6.3,7.4-7.5l0.2-0.1c1.3-0.4,2.7-0.7,4.2-0.7c3.2,0,6.4,1,9,3c0.6,0.4,1.2,0.9,1.7,1.4c0.3-0.5,0.5-1.1,0.7-1.6
	l0.7-2.6h7.3l-0.5,3.9c-0.1,0.9,0.3,2.1,0.8,3.5c0,0.1,0.1,0.3,0.1,0.4c0.2,0,0.4,0,0.7,0c0.6,0,0.9-0.1,1.2-0.3l9-5.4l-3.9,9.7
	c-0.3,0.8-0.5,1.3-0.6,1.8l5.6,1.9v0.1c4.5,0.4,6.7,0.8,8.8,1.2c2.9,0.5,5.4,1,13.9,1.3l3.7,0.2l-0.2,2.3c6,0.7,11.1,2.9,14.8,6.6
	c4.1,4,6.3,9.5,6.3,15.4c0,10.4-7,20.9-20.6,22.7l0.7,2.2l-4.6,0.1c-5.6,0.1-10.3,0-14.6,0c-2.3,0-4.4,0-6.5,0
	c-11.1,0-19.7,0.5-34.1,3.2l0.6,1.6l-3.2,3.2l1,4.1l-6.2-1.3c-0.1,0.2-0.2,0.3-0.3,0.5l-1.7,2.6l-1.9-0.9c-1.4,2.5-3.6,4.1-6.3,4.8
	c-3.2,0.7-5.9,0.2-8.1-1.4c-1.7-1.1-2.9-3.2-3-5.4l-0.2,0.2c0.3,4.9-3.3,8-5.8,10.2l-0.5,0.4c-2.3,1.9-4.7,3.5-8.4,5.3l-0.2,0.1
	c-8.4,3.6-16.5,3.7-24.2,3.7L144.8,123.3z M123.3,110.1c6.4,4.8,14.7,6,20.7,6.3l0.2-0.1h0.4c7.5,0,14.6,0,21.8-3.1
	c3.1-1.6,5.1-2.8,6.9-4.3l0.4-0.4c1.9-1.6,3.2-2.9,3.5-4.1c-2.9-6-11.9-8.1-18.5-9.6l-0.9-0.2l0.7-6.8l0.5,0c7.9,0,16.9,3.1,23.3,8
	c2.1-1.6,4.3-2.7,6.6-3.2l0.3-0.1c0.8-0.1,1.6-0.2,2.4-0.2c3,0,5.5,0.9,7.2,2.7l0.5,0.5l0.5,1.3c0.3,0,0.5,0,0.8,0.1
	c0.2-0.2,0.3-0.3,0.5-0.5l1.3-1.1l0,0l-0.4-1.8l2.9-0.5l-1.1-2.9l4.1-0.8c1.7-0.3,3.3-0.6,4.8-0.9l0.2-1.1c0.1-2.6,1.6-3.4,2.5-3.7
	l0.5-0.2h52.3c12.2,0,17.8-8.3,17.8-16c0-4-1.5-7.7-4.2-10.4c-3.2-3.2-7.9-4.8-13.7-4.8L240,52.3l-1.8-5.5l-6.2-0.5l2.9-2.4l-2.9-1
	l0.8-3.1c0-0.1,0.1-0.2,0.1-0.3c-0.5,0-0.9,0-1.2,0.1l-2.1,0.4l-1.3-1.7c-0.1-0.1-0.2-0.2-0.3-0.4l-0.2,0.5h-4.4l-1.5-2.3
	c-0.6-0.8-1.1-1.6-1.6-2.2c0.5,2.4,0.1,4.9-1.2,7.3l-0.2,0.2c-1,1.4-2.1,2.6-3.4,3.7V46h-0.9c-3.5,2.4-8.1,3.7-13.7,3.7L88,49.8
	l-0.5-0.2c-3-0.9-5.7-2.3-8-4.1l-0.4-0.1v-0.2c-1.5-1.2-2.7-2.6-3.8-4.1L75.2,41L75,40.7c-1.1-2.3-1.4-4.5-0.8-6.6
	c-0.7,0.7-1.3,1.5-1.9,2.6l-0.8,1.5l-4.2,0.7l0.2,1.6l-4.8-0.9c-0.3-0.1-0.7-0.1-1-0.2c0.1,0.4,0.2,0.9,0.2,1.3l0.3,2.8l-3.5,1.2
	L57.9,46l0.2,0.8l-0.7,0.1l-3.2,5.3l-26.9,0.2C13.9,52.4,8,60.2,8,67.9c0,7.5,6.1,15.7,19.4,15.7l53.3-0.1l2.8,5.1
	c1.5,0.3,3,0.7,4.6,1.2l3.9,1l-1.2,2.7c0,0,0.1,0,0.1,0l0.6,0.3l2,2l-0.1,0.2c0.2,0.1,0.5,0.2,0.7,0.3l0.8,0.4l0.4,0.5
	c0.1,0,0.2,0,0.3,0c0.8-1.6,2.1-2.9,3.6-3.7l0.1,0c1.5-0.7,3-1,4.7-1c3.5,0,6.6,1.6,9.2,3.5l0.9-0.9c4.8-4,12.7-6.8,19.3-6.8l1,6.8
	l-6.8,2.1c-5.1,2.1-8,4.3-9.4,7.2c0.3,1.6,1.8,2.9,4.1,4.7C122.5,109.4,122.9,109.7,123.3,110.1z M102.7,102.9c0.1,0,0.4,0.1,0.8,0
	l0,0l0-0.3c-0.1-0.5-0.2-1.3,0-2.2l0.2-1c-0.5,0-1,0.1-1.5,0.4c-0.2,0.1-0.4,0.4-0.6,1l0.2,1.1L102.7,102.9z M192,102.7
	c0.2,0.1,0.5,0.2,0.9,0.1c0.5-0.4,1-0.9,1.3-1.5l-0.7-1.8c-0.6-0.3-1.4-0.3-1.9-0.3c0,0,0,0,0,0l1.3,1.9l-1,1.4
	C192,102.6,192,102.7,192,102.7z M81.2,37.4c0.3,0.4,0.6,0.7,0.9,1.1c0.3-0.3,0.5-0.6,0.6-1l0.1-0.3c0.1-0.3,0.1-0.9-0.1-1.1
	l-0.1-0.1c-0.3-0.4-0.9-0.6-1.2-0.6L81,35.4c0,0,0,0,0,0C80.8,35.9,80.7,36.4,81.2,37.4z M212.4,38.2c0.1,0,0.1,0.1,0.2,0.1
	c0.1-0.2,0.2-0.3,0.3-0.5c0.7-1.3,0.5-2.2,0.4-2.6l0,0l0,0h-0.4c-0.1,0-0.5,0.2-1,0.8C211.8,36.7,212,37.4,212.4,38.2z"/>
<path d="M183.2,46.8h-63c-9.3-0.1-16.9-1.2-23.9-6.2c-2.9-2.1-3.2-7-3.2-9.1l0-0.3c0.4-3.9,4.4-6.4,11.1-6.8l1.7-0.1l1.1,1.2
	c7.6,8.5,22.3,13.6,39.2,13.6c17.5,0,33.8-5.5,40.6-13.7l0.8-1l1.3-0.2c3.9-0.6,9.6,1.7,11.7,6.7l0.2,0.5c1.1,4.2-1.9,8.8-5.5,10.8
	C193,43.5,187.3,46.8,183.2,46.8 M190.9,31.2c-3.2,3.4-7.6,6.3-12.8,8.6h5.1c1.5,0,5.1-1.5,8.6-3.6c1.3-0.7,2.2-2.2,2.3-2.8
	C193.4,32.2,192,31.5,190.9,31.2 M100.6,35.1c4.2,2.9,8.7,4.1,14.1,4.5c-4.5-2.2-8.5-4.9-11.6-8.1c-1.5,0.2-2.5,0.6-3,0.8
	C100.1,33.4,100.3,34.6,100.6,35.1"/>
<path class="st1" d="M183.2,46.8h-63c-9.3-0.1-16.9-1.2-23.9-6.2c-2.9-2.1-3.2-7-3.2-9.1l0-0.3c0.4-3.9,4.4-6.4,11.1-6.8l1.7-0.1
	l1.1,1.2c7.6,8.5,22.3,13.6,39.2,13.6c17.5,0,33.8-5.5,40.6-13.7l0.8-1l1.3-0.2c3.9-0.6,9.6,1.7,11.7,6.7l0.2,0.5
	c1.1,4.2-1.9,8.8-5.5,10.8C193,43.5,187.3,46.8,183.2,46.8z M190.9,31.2c-3.2,3.4-7.6,6.3-12.8,8.6h5.1c1.5,0,5.1-1.5,8.6-3.6
	c1.3-0.7,2.2-2.2,2.3-2.8C193.4,32.2,192,31.5,190.9,31.2z M100.6,35.1c4.2,2.9,8.7,4.1,14.1,4.5c-4.5-2.2-8.5-4.9-11.6-8.1
	c-1.5,0.2-2.5,0.6-3,0.8C100.1,33.4,100.3,34.6,100.6,35.1z"/>
<path d="M141.3,44.4L141.3,44.4l-2,0l-0.1-0.1c-11.1-0.3-26.1-4.8-34.4-14.1c-2.2-1.9-3.2-4.9-2.7-7.9c0.5-3.9,3.6-5.7,5-6.4
	l0.4-0.2c1.2-0.5,2.3-0.7,3.5-0.7c2,0,3.5,0.7,5.1,1.3l2,0.8l0.5,1.4c3.6,9.1,10.5,14.7,24,19.2l10.8,3.6l-11.2,3
	C142.2,44.3,141.8,44.4,141.3,44.4 M110.4,21.9c-1.3,0.7-1.3,1-1.3,1.2l0,0.3c-0.1,0.5,0,1.2,0.4,1.5l0.3,0.2l0.2,0.3
	c2.2,2.5,5.7,5.1,10.1,7.2c-2.8-2.8-5.2-6.2-7.1-10.3c-0.7-0.3-1.3-0.5-1.8-0.5C110.9,21.8,110.7,21.8,110.4,21.9"/>
<path class="st1" d="M141.3,44.4L141.3,44.4l-2,0l-0.1-0.1c-11.1-0.3-26.1-4.8-34.4-14.1c-2.2-1.9-3.2-4.9-2.7-7.9
	c0.5-3.9,3.6-5.7,5-6.4l0.4-0.2c1.2-0.5,2.3-0.7,3.5-0.7c2,0,3.5,0.7,5.1,1.3l2,0.8l0.5,1.4c3.6,9.1,10.5,14.7,24,19.2l10.8,3.6
	l-11.2,3C142.2,44.3,141.8,44.4,141.3,44.4z M110.4,21.9c-1.3,0.7-1.3,1-1.3,1.2l0,0.3c-0.1,0.5,0,1.2,0.4,1.5l0.3,0.2l0.2,0.3
	c2.2,2.5,5.7,5.1,10.1,7.2c-2.8-2.8-5.2-6.2-7.1-10.3c-0.7-0.3-1.3-0.5-1.8-0.5C110.9,21.8,110.7,21.8,110.4,21.9z"/>
<path d="M143.5,43.1l-0.7-0.2c-6.7-1.5-12.9-5.2-16.1-7.2l-0.1-0.1c-6.1-4.4-10.3-10-12.4-16.6l-0.2-0.5V18c0-1.7,0-5.7,3.1-7.6
	c2.1-1.5,4.8-1.7,7.6-0.6l0.6,0.2l2.6,2.5l0.2,1.2c1,7.3,6.3,14.4,11.1,18.7l13.8,8.7L143.5,43.1z M121,17.4
	c0.7,1.9,1.6,3.7,2.7,5.4c-1-2.3-1.7-4.6-2.1-6.8c-0.1,0-0.2,0-0.2,0l-0.2,0.1C121.1,16.5,121,17,121,17.4"/>
<path class="st1" d="M143.5,43.1l-0.7-0.2c-6.7-1.5-12.9-5.2-16.1-7.2l-0.1-0.1c-6.1-4.4-10.3-10-12.4-16.6l-0.2-0.5V18
	c0-1.7,0-5.7,3.1-7.6c2.1-1.5,4.8-1.7,7.6-0.6l0.6,0.2l2.6,2.5l0.2,1.2c1,7.3,6.3,14.4,11.1,18.7l13.8,8.7L143.5,43.1z M121,17.4
	c0.7,1.9,1.6,3.7,2.7,5.4c-1-2.3-1.7-4.6-2.1-6.8c-0.1,0-0.2,0-0.2,0l-0.2,0.1C121.1,16.5,121,17,121,17.4z"/>
<path d="M141.7,41.1l-6.4-5.3C131,31.5,121.2,20.3,123.2,9l0.1-0.7l0.4-0.6c1.3-1.9,3.2-3.2,5.4-3.5l0.3,0c3.2-0.2,4.9,1.4,6,2.4
	c0.2,0.2,0.4,0.3,0.6,0.5l1.2,1v1.6c0,8.3,1.6,19.7,9,26.2L141.7,41.1z M129.9,11.1c-0.2,1.9,0.1,3.8,0.7,5.6
	c-0.2-1.9-0.3-3.8-0.3-5.5c-0.1-0.1-0.2-0.2-0.3-0.2C130,11,130,11.1,129.9,11.1"/>
<path class="st1" d="M141.7,41.1l-6.4-5.3C131,31.5,121.2,20.3,123.2,9l0.1-0.7l0.4-0.6c1.3-1.9,3.2-3.2,5.4-3.5l0.3,0
	c3.2-0.2,4.9,1.4,6,2.4c0.2,0.2,0.4,0.3,0.6,0.5l1.2,1v1.6c0,8.3,1.6,19.7,9,26.2L141.7,41.1z M129.9,11.1c-0.2,1.9,0.1,3.8,0.7,5.6
	c-0.2-1.9-0.3-3.8-0.3-5.5c-0.1-0.1-0.2-0.2-0.3-0.2C130,11,130,11.1,129.9,11.1z"/>
<path d="M142.3,40.3c-7.4-10.3-10.9-22.6-9.4-32.8l0.1-0.7l0.4-0.6c0.1-0.2,0.3-0.4,0.4-0.6c0.8-1.3,1.9-3.3,4.5-3.9
	c3.4-0.8,6.7,0.7,8,3.5l1.3,2.8l-0.5,1.3c-3.3,9.7-2.9,19.9,1,27.5L142.3,40.3z M139.7,9.2c-0.1,0.5-0.1,0.9-0.1,1.4
	c0.2-0.7,0.4-1.5,0.6-2.2c-0.1,0.2-0.3,0.4-0.4,0.7C139.7,9.1,139.7,9.2,139.7,9.2"/>
<path class="st1" d="M142.3,40.3c-7.4-10.3-10.9-22.6-9.4-32.8l0.1-0.7l0.4-0.6c0.1-0.2,0.3-0.4,0.4-0.6c0.8-1.3,1.9-3.3,4.5-3.9
	c3.4-0.8,6.7,0.7,8,3.5l1.3,2.8l-0.5,1.3c-3.3,9.7-2.9,19.9,1,27.5L142.3,40.3z M139.7,9.2c-0.1,0.5-0.1,0.9-0.1,1.4
	c0.2-0.7,0.4-1.5,0.6-2.2c-0.1,0.2-0.3,0.4-0.4,0.7C139.7,9.1,139.7,9.2,139.7,9.2z"/>
<path d="M149.9,2.7l0.7,1.6c4.8,10.7,4.8,23.2-0.1,37.2l-3,8.6l-3.5-8.4c-4.3-10.3-5.3-20.3-3-29.7l0.1-0.4l3.3-8.7
	c0,0,0.8-1.9,2.7-1.8C149.1,1.1,149.9,2.7,149.9,2.7 M147,17.6c-0.3,2.7-0.3,5.5,0,8.3C147.3,23.1,147.3,20.3,147,17.6"/>
<path class="st1" d="M149.9,2.7l0.7,1.6c4.8,10.7,4.8,23.2-0.1,37.2l-3,8.6l-3.5-8.4c-4.3-10.3-5.3-20.3-3-29.7l0.1-0.4l3.3-8.7
	c0,0,0.8-1.9,2.7-1.8C149.1,1.1,149.9,2.7,149.9,2.7z M147,17.6c-0.3,2.7-0.3,5.5,0,8.3C147.3,23.1,147.3,20.3,147,17.6z"/>
<path d="M151.6,40.3l-6-3.4c3.9-9,4.4-19.5,1.3-27.9l-0.6-1.5l1.4-2.4c1.1-2.3,3.4-3.6,6.1-3.6c0.6,0,1.2,0.1,1.7,0.2
	c2.7,0.7,4.8,3,5.2,5.9C162.5,17.7,159.1,30,151.6,40.3"/>
<path class="st1" d="M151.6,40.3l-6-3.4c3.9-9,4.4-19.5,1.3-27.9l-0.6-1.5l1.4-2.4c1.1-2.3,3.4-3.6,6.1-3.6c0.6,0,1.2,0.1,1.7,0.2
	c2.7,0.7,4.8,3,5.2,5.9C162.5,17.7,159.1,30,151.6,40.3z"/>
<path d="M151.3,41.9h-8.7l5-5.7c5.9-6.8,9.3-17.3,8.5-26.3l-0.1-1.2l0.6-1c1.8-2.8,4.3-3.4,6.5-3.7l0.4,0c1.1,0,2.1,0.4,3.1,0.8
	l0.6,0.3l0.4,0.3c3.3,2.7,3.1,6.6,2.9,8.9l-0.1,0.4c-2,10.4-8.5,19.8-18.3,26.5L151.3,41.9z M163,11c0.1,1.9,0,3.8-0.2,5.7
	c0.3-1,0.6-2.1,0.8-3.1c0.1-1.5,0-2.2-0.2-2.6c0,0-0.1,0-0.1,0C163.2,11,163.1,11,163,11"/>
<path class="st1" d="M151.3,41.9h-8.7l5-5.7c5.9-6.8,9.3-17.3,8.5-26.3l-0.1-1.2l0.6-1c1.8-2.8,4.3-3.4,6.5-3.7l0.4,0
	c1.1,0,2.1,0.4,3.1,0.8l0.6,0.3l0.4,0.3c3.3,2.7,3.1,6.6,2.9,8.9l-0.1,0.4c-2,10.4-8.5,19.8-18.3,26.5L151.3,41.9z M163,11
	c0.1,1.9,0,3.8-0.2,5.7c0.3-1,0.6-2.1,0.8-3.1c0.1-1.5,0-2.2-0.2-2.6c0,0-0.1,0-0.1,0C163.2,11,163.1,11,163,11z"/>
<path d="M150.8,43l-2.2-6.5c8.6-4.1,14.4-12.3,16.6-22.9l0.2-1l0.7-0.7c2.1-2.1,4.9-3.1,7.4-2.7l0.3,0l0.3,0.1
	c2.7,0.9,3.7,2.8,4.3,4.1l0.3,0.6l0.1,0.7c0.7,9.3-6.9,16.6-10.2,19.4C164,38.3,156.9,41.8,150.8,43 M171.7,16.2
	c-0.5,2.2-1.2,4.4-2,6.4c1.3-2.1,2.2-4.4,2.3-6.6C171.9,16.1,171.8,16.1,171.7,16.2"/>
<path class="st1" d="M150.8,43l-2.2-6.5c8.6-4.1,14.4-12.3,16.6-22.9l0.2-1l0.7-0.7c2.1-2.1,4.9-3.1,7.4-2.7l0.3,0l0.3,0.1
	c2.7,0.9,3.7,2.8,4.3,4.1l0.3,0.6l0.1,0.7c0.7,9.3-6.9,16.6-10.2,19.4C164,38.3,156.9,41.8,150.8,43z M171.7,16.2
	c-0.5,2.2-1.2,4.4-2,6.4c1.3-2.1,2.2-4.4,2.3-6.6C171.9,16.1,171.8,16.1,171.7,16.2z"/>
<path d="M152.3,44.3L152.3,44.3c-0.3,0-0.6,0-0.8,0l-0.7,0l-13.6-4.5l12.8-2.5c11.8-2.3,20.8-9.5,24.2-19.2l0.3-1l0.8-0.6
	c2.4-1.8,4.2-2,6.1-2l1.3,0l0.4,0.1c3.4,0.7,6,2.8,7.7,6l0.1,0.2c1.2,2.8,0.4,6.8-1.9,8.9C181,38.6,166.6,44.3,152.3,44.3
	 M180.4,21.5c-1.7,4.2-4.2,8-7.4,11.3c4.2-2,8.1-4.6,11.1-7.9l0.4-0.3c0.1-0.1,0.2-0.7,0.2-0.9c-0.7-1.2-1.5-1.9-2.6-2.2l-0.5,0
	C180.9,21.4,180.6,21.4,180.4,21.5"/>
<path class="st1" d="M152.3,44.3L152.3,44.3c-0.3,0-0.6,0-0.8,0l-0.7,0l-13.6-4.5l12.8-2.5c11.8-2.3,20.8-9.5,24.2-19.2l0.3-1
	l0.8-0.6c2.4-1.8,4.2-2,6.1-2l1.3,0l0.4,0.1c3.4,0.7,6,2.8,7.7,6l0.1,0.2c1.2,2.8,0.4,6.8-1.9,8.9C181,38.6,166.6,44.3,152.3,44.3z
	 M180.4,21.5c-1.7,4.2-4.2,8-7.4,11.3c4.2-2,8.1-4.6,11.1-7.9l0.4-0.3c0.1-0.1,0.2-0.7,0.2-0.9c-0.7-1.2-1.5-1.9-2.6-2.2l-0.5,0
	C180.9,21.4,180.6,21.4,180.4,21.5z"/>
<path class="st2" d="M187.9,22.2c-1.2-2.2-2.8-3.7-5.4-4.2c-2.1,0-3.1-0.1-4.9,1.2C173.9,29.6,164.8,37,153.4,40
	c-0.9,0.3-1.8,0.5-2.7,0.6l0.6,0.2h0.2c0.6,0.1,1.2,0.1,1.9,0c11.8-0.3,25.4-4.9,33.3-13.7C187.9,26.2,188.6,23.8,187.9,22.2"/>
<path class="st2" d="M165.4,8.1c-0.7-0.3-1.5-0.6-1.9-0.6c-2.2,0.3-3.2,0.8-4,2.2c0.6,7.8-1.5,17-6,24.3c-0.8,1.5-1.8,2.8-2.9,4.1
	c-0.1,0.2-0.2,0.3-0.3,0.5h0.1c0.1-0.1,0.2-0.1,0.3-0.2c1-0.7,2-1.5,2.9-2.2c6.7-5.5,11.9-13,13.7-21.9
	C167.2,11.9,167.3,9.6,165.4,8.1"/>
<path class="st2" d="M175.5,14.9c-0.6-1-1-1.9-2.4-2.4c-1.7-0.3-3.4,0.7-4.4,1.7c-2,9.8-7.1,18.3-15.2,23.5
	c-0.9,0.6-1.9,1.1-2.9,1.7c-0.1,0.1-0.2,0.1-0.3,0.1c0.1,0,0.3,0,0.3-0.1c1-0.2,1.9-0.4,2.9-0.8c4.9-1.5,9.7-4.3,13-7.3
	C171.2,27.5,175.9,21.4,175.5,14.9"/>
<path class="st2" d="M157.4,8.1c-0.2-1.3-1.2-2.7-2.6-3.1c-0.5-0.1-0.9-0.1-1.4-0.1c-1,0.1-2.1,0.7-2.6,1.7l-0.3,0.6l-0.3,0.6
	c0.1,0.3,0.2,0.7,0.3,1c2.6,7.8,2.4,16.7,0,24.8c-0.2,0.7-0.4,1.4-0.7,2.1c-0.3,0.9-0.6,1.8-1,2.6c0.3-0.5,0.7-1,1-1.5
	c0.3-0.3,0.5-0.7,0.7-1c1.1-1.7,2.1-3.5,2.9-5.2C156.9,23.4,158.6,15.4,157.4,8.1"/>
<path class="st2" d="M150.5,18.3c-0.1-1.7-0.3-3.3-0.7-5c-0.5-2.6-1.3-5.1-2.4-7.6h-0.3v0.1l-2.7,7.1c-0.3,1.1-0.5,2.2-0.7,3.2
	c-0.6,4-0.6,8,0,12c0.6,4.2,1.8,8.2,3.5,12.2v0.1c1.1-3.3,2-6.6,2.6-10v0.1c0.3-1.9,0.6-3.7,0.7-5.5
	C150.7,22.7,150.7,20.5,150.5,18.3"/>
<path class="st2" d="M143.7,35.4c-3.2-8.3-2.8-18.3,0-26.8c0.1-0.1,0.1-0.3,0.2-0.5l-0.2-0.3l-0.5-1.2c-0.6-1-1.5-1.5-2.6-1.7
	c-0.5-0.1-1-0.1-1.5,0c-1.4,0.3-1.9,1.7-2.8,3.1c-1.2,7.5,0.7,15.7,4.3,23c1,1.8,1.9,3.6,3.1,5.3c0.5,0.6,0.9,1.2,1.4,1.9
	C144.5,37.4,144.1,36.4,143.7,35.4"/>
<path class="st2" d="M140.6,35c-2.6-3.5-4.3-7.6-5.4-11.8c-1.1-4.6-1.5-9.4-1.5-13.6c-1.3-1.1-2.1-2.2-4.1-2.1c-1.3,0.2-2.4,1-3.1,2
	c-1.3,7.4,3.6,15.5,8.6,21.2c0.8,1,1.7,1.8,2.5,2.6l2.9,2.5l3.1,2.5C142.6,37.3,141.6,36.2,140.6,35"/>
<path class="st2" d="M140.6,37.5l-3.5-2.3c-0.7-0.5-1.3-1.1-1.9-1.7c-5.1-5.1-9.6-12.1-10.5-19.3l-1-0.9l-0.2-0.3
	c-1.4-0.6-3.1-0.8-4.4,0.3c-1.5,0.8-1.5,3.3-1.5,4.6c1.3,4.2,3.5,7.8,6.2,10.6c1.5,1.6,3.1,3,4.9,4.2c2,1.4,4.3,2.7,6.6,3.8
	c1.8,0.8,3.7,1.6,5.4,2.2c1,0.3,1.9,0.6,2.9,0.8h0.1v-0.1L140.6,37.5z"/>
<path class="st2" d="M140.6,40.6c-1.9-0.7-3.7-1.4-5.4-2.1c-4.3-1.9-8.2-4.1-11.5-7c-3.5-3.1-6.3-6.9-8.2-11.9
	c-2.4-1-4.1-1.9-6.7-0.8c-1.6,0.9-3.1,1.9-3.3,4c-0.3,1.7,0.1,3.7,1.7,4.9c4,4.6,10,8,16.4,10.3c3.8,1.3,7.8,2.2,11.5,2.6
	c1.9,0.2,3.7,0.3,5.4,0.3v0.1c1.1,0,0.3,0.1,1-0.1C141.3,40.8,141,40.7,140.6,40.6"/>
<path class="st2" d="M197.4,32.3c-1.5-3.5-5.8-5-8-4.6c-6.9,8.2-20.9,13.4-36,14.6c-0.9,0.1-1.9,0.1-2.9,0.2c-0.2,0-0.4,0-0.7,0.1
	c-0.8,0-1.7,0.1-2.6,0.1c-1.1,0-2.3,0-3.5-0.1c-1,0-2-0.1-3.1-0.1c-1.8-0.1-3.6-0.3-5.4-0.5c-4-0.6-7.8-1.3-11.5-2.5
	c-7.7-2.4-14.6-6.2-19.4-11.6c-3.7,0.2-7.6,1.3-7.8,3.6c0,1,0.2,5.1,1.7,6.2c6.2,4.4,13,5.5,21.8,5.5h3.6h59.4
	c2.8,0,7.6-2.4,10.4-4.1C195.8,37.9,198.1,34.9,197.4,32.3"/>
<path class="st2" d="M268.3,86.9c27.5,0,29.2-38.2-0.1-38.2l-25.7,0.1l-0.3-0.8l25.9-0.1l0.1-1.4c-16.4-0.7-11.3-1.7-27.5-2.9
	c0.4-0.3,1.1-0.1,1.5-0.5v-0.2l-6.2-2.2c0.7-2.8,2-4.9,2.9-7.1c-2.3,1.4-5.5,2.1-8,2.6c-0.5-0.6-0.1-1.2-0.1-1.9
	c-0.7-2.2-1.5-4.1-1.2-6.1h-0.6c-0.7,2.7-2.4,4.4-3.5,6.8h-0.3c-1.2-1.7-2.2-3.5-3.9-4.6c-3-2.2-7-2.9-10.1-1.9
	c-2.8,1.2-4.6,2.6-5.4,5.3c-0.4,2.4-0.1,5.3,1.5,7c1,1.7,3.2,1.7,4.7,1.7V42c-0.8-0.5-1.5-1-2.1-1.4c-1.2-1.8-1.9-4.1-1.2-6.1
	c1-1.4,2.5-2.7,4.2-2.7c1.4-0.3,2.9,0.7,3.5,1.9c0.9,2,0.6,4.1-0.5,6c-3.4,5.1-9.2,6.5-15.1,6.5L88.5,46.3c-4.4-1.4-8-3.8-10.3-7.1
	c-0.9-1.9-1-3.6-0.2-5.3c0.6-1,1.4-1.9,2.7-1.9c1.7-0.3,3.6,0.5,4.6,1.9c1,1.2,1.3,3.1,0.7,4.6c-0.6,1.8-1.7,3.1-3.4,3.7v0.3
	c1.3,0.2,2.4,0,3.5-0.3c1.6-1,2.6-3.1,3.1-4.9c0.2-2.3-0.6-5.7-2.7-7c-2.6-2.1-6.1-2.6-9.1-1.9c-3.9,1.1-6.3,3.2-8.1,6.6l-0.4,0.1
	c-0.1-0.6-0.5-0.8-0.6-1.2l-3.1-5.6l-0.3,0.1c0.3,2.6-1.5,5.3-1.2,7.8c-2.7-0.5-5.6-1-8-2.4c1.5,2.2,2.6,4.8,2.9,7.2l-6.1,2
	c0.3,0.5,1.4,0,1.5,0.7l-26.4,3.1c-0.2,0.3-0.2,0.8-0.2,1.2h25.4l-0.4,0.7l-25,0.1C-3.4,49-2.8,87,27.4,87l51.2-0.1l0.5,0.9H27.4
	v0.5c24.6,1.2,36.7-1.4,59.8,4.8l-1.4,3.3l0.1,0.3c1.3,0,2.5-0.5,3.5,0l0.1,0.1c-0.3,0.9-0.1,2.2-1,2.9v0.3c1.4-0.3,2.9-1.2,4.1-0.6
	c0.6,0.8,0.3,2,0.8,2.6c0.8-0.7,1.5-1.6,2.6-1.4l0.9,3.1c1,1.9,2.7,3,4.8,3.3c1.9,0.3,4-0.1,5.1-1.5c0.9-1.2,1-2.9,0.5-4.3l-0.3-0.1
	c-0.1,0.7,0.2,1.5,0.1,2c0,1.2-0.9,2.4-1.9,3.1c-1.5,0.4-3.3,0.6-4.7-0.6l-1.9-2.2l-0.4-2.8c0.3-1.7,1.2-3.2,2.6-3.9
	c4.8-2.2,9.4,1.2,12.6,4l2.8-2.8c2.1-1.7,4.8-3.1,7.6-4.2c3.3-1.1,6.7-1.8,9.5-1.8l-6.9,2.1c-0.9,0.3-1.7,0.8-2.6,1.1
	c-4.1,2-7.6,4.6-9.2,8.8c0,4.3,3.9,6.7,6.7,8.9c0.8,0.7,1.7,1.2,2.6,1.8c3.6,2.1,7.6,3.4,11.5,4.2c1.9,0.3,3.7,0.6,5.4,0.8
	c1,0.1,2.1,0.2,3.1,0.2h0.7l0.3-0.1h2.5h2.6h0.7c1-0.1,1.9-0.1,2.9-0.1c4.8-0.3,9.6-1.1,14.6-3.3c3.1-1.5,5.4-2.9,7.6-4.8
	c2.4-2.1,5.3-4.4,5.1-7.8c-3.4-8.5-14.5-10.8-22.1-12.5c8.2-0.1,18,3.6,23.8,9.1c1.9-1.9,4.4-3.7,7.4-4.4c2.2-0.3,4.9-0.2,6.6,1.5
	l1.4,3.6c-0.1,2.2-1.7,4-3.5,5.1c-1.4,0.4-3.1,0.2-4.2-0.5c-1.3-0.8-1.9-2.7-1.5-4.2l0.1-0.2c-0.1-0.2-0.5-0.5-0.6-0.2
	c-0.1,0.4-0.3,1-0.3,1.4c-0.1,1.2,0.4,2.8,1.5,3.5c1.6,1.2,3.7,1.2,5.3,0.8c3.1-0.7,4.6-3.4,5.1-6.3c1,0,1.9,1,2.6,1.4
	c0.5-0.8,0.1-1.9,1-2.6l3.7,0.8l-0.8-3.5c1.2-0.2,2.3-0.2,3.3,0.2l0.3-0.3l-1.3-3.4c27.1-5.3,35.1-3.7,59.9-4l-0.3-0.9h-51.8
	c0.1-0.3,0-1,0.2-1H268.3z"/>
<path class="st0" d="M146.5,118.5c-8.2,0-17.5-1.5-24.8-6.9c17.2,7.8,35,7.9,52-0.3c-4.9,4.1-12.6,6.6-18.7,6.9L146.5,118.5z"/>
<polygon class="st3" points="142.9,104.6 142.8,104.1 143.1,103.9 143.4,104.5 "/>
<path class="st0" d="M197.8,102.9c1.1-2.2,0.8-4.6-0.6-6.6c-1.9-2.3-5.5-2.6-8.4-1.8c-2.3,0.6-4.4,2.2-6.2,3.8
	c-0.2,0.1-0.5,0.3-0.8,0.2c-4.8-5.8-14.2-8-21.4-9c6,0.1,12.1,2.4,18.3,4.6c2.1-3.8,6.5-6.9,11.4-7.3c7.1-0.3,14.6,3.9,21.7,0.6
	c1.2-0.9,2.6-1.9,2.7-3.3c0.1-0.7-0.1-1.2-0.6-1.9l0.2-0.2c1.3,0.6,1.5,2.3,1.5,3.5c-0.6,2.6-2.8,3.7-5.3,5
	c-9.8,4.1-23.1-6.2-30.8,4.4c0.3,0.7,1.2,1.3,2,1.8c3.5-3.3,9.1-4.7,13.6-2.6c1.9,0.8,3.1,1.9,3.8,4.1c0.3,1.5,0,3.2-1,4.4
	L197.8,102.9z"/>
<path class="st0" d="M97.9,102.8c-1-1-1.2-3-1-4.4c0.5-2.4,2.7-4,5.2-4.6c3.1-0.7,6.6-0.6,9.4,1.5l2,1.7c0.9-0.3,1.6-1,2-1.9
	c-1.7-2.6-5.3-4.6-8.7-5.1c-8.5,0.5-19.1,5.3-26.3-2.3c-0.2-0.2-0.3-0.7-0.7-1c-0.1-1.4-0.1-3.5,1.5-4.2c-0.5,1.2-0.6,3,0.5,4
	c4.9,4.4,11.4,2.2,17.1,1.4c2.9-0.6,5.9-1,8.9-0.3c4,1,6.7,3.6,8.5,6.8c0.3,0.2,0.6,0.2,1,0.2c4.4-2.8,9.8-3.9,14.8-4.5
	c-6.4,1-14.6,3.6-18.8,8.7c-3.2-2.6-8.4-6-13-3.6c-1.9,1.1-3.2,3.5-2.9,5.8c0,0.6,0.5,1.2,0.5,1.9L97.9,102.8z"/>
<path class="st0" d="M94,99.6c-0.6-0.7-0.1-1.5-0.5-2.3L93,97c-0.8,0.5-1.7,0.9-2.8,0.9c-0.5-1.2,0.5-2.2,1.2-3.2l-0.3-0.4
	c-1.2,0.5-2.6,0.8-3.7,0.3c0.1-0.5,0.4-1.7,1.2-2c0.3,0.1,0.7,0.1,1,0.3l-0.1,0.3c-0.4,0.2-1,0.5-1.4,1v0.4c2.2-0.4,4.3-2.4,6.9-1.7
	l-3.4,3v0.4l0.4,0.2l5.1-4l0.1,0.2l-2.8,3.8c0.2,0.1,0.5,0,0.7-0.1l2.8-2.8L96,98.4c-0.4,0.5-1.2,0.8-1.9,1.2H94z"/>
<path class="st0" d="M201.8,99.4c-1.5-0.5-2.6-1.6-2.6-3.3l-1.5-3.1l3.4,3.1l0.3-0.2l-3-3.7l0.1-0.2h0.4l4.9,4
	c0.2,0,0.2-0.3,0.4-0.5l-3.4-3.1c2.2-0.5,4.2,0.6,6.5,1.8c0.3-0.1,0.5-0.3,0.3-0.8l-1.6-0.8c0.3-0.4,1-0.3,1.6-0.3l0.8,1.9
	c-1,0.3-2.4,0.3-3.7-0.3l-0.1,0.1l-0.1,0.2c0.6,0.8,1.3,1.9,1.2,3.2c-1.2,0.6-2.1-0.8-3.3-0.6c-0.3,0.6,0.2,1.5-0.3,2.3L201.8,99.4z
	"/>
<polygon class="st0" points="115.5,90.7 113,88.3 132.5,88.2 "/>
<path class="st0" d="M148.8,92.3c-0.1-0.1-0.1-0.4-0.5-0.6c-0.5,0.3-1.1,0-1.5-0.3v-0.1c0.8-0.5,1.6,0,2.4-0.1l0.1,0.1v0.6
	L148.8,92.3z"/>
<path class="st0" d="M180.1,90.5c-5.3-1.5-10.6-1.9-16.1-2.6l19.4,0.1L180.1,90.5z"/>
<path class="st0" d="M146.9,90l-0.3-0.1c0.5-0.3,1.3,0,2.1-0.2C148.3,90.2,147.5,89.7,146.9,90"/>
<path class="st3" d="M89,88.2c-1.8,0-4.2-0.8-5.8-2.2l18.1,0.1c-3.9,1.1-8.1,1.7-12.2,1.9L89,88.2z"/>
<path class="st3" d="M206,88l-11.1-1.6l17.4-0.3C210.8,88,208.1,88,206,88L206,88z"/>
<path class="st3" d="M132.6,87.1h-20.7c-2.1-0.4-2-0.5-4.2-1l25.5,0.1c0.1,0.1,0.5,0.5,0.3,0.8C133.4,87.1,133,87.1,132.6,87.1"/>
<path class="st3" d="M142.6,87.1c-0.1-0.3-0.4-0.4-0.3-1l9.8,0.1c0,0.3-0.4,0.6-0.5,0.9H142.6z"/>
<path class="st3" d="M156.6,87.1c-0.5-0.1-1-0.4-1.4-1l32.9-0.1l-3.1,1l-28,0.1L156.6,87.1z"/>
<path class="st4" d="M81.8,84.4v-0.6c0.3-0.3,0.9-0.8,1.5-0.7c0.5,0,1,0.7,1.6,0.4c0.2-0.8-0.8-1-1.6-1.5c-1-0.2-2.4-0.2-3.4,0.7
	c-0.3,0.3-0.8,1-1,1.7l-52.1-0.2C1.3,84.1,1.6,51.3,26.8,51.1l25-0.2c1.9,1.7,3.7,3.7,7.4,1.9c0.3-0.3,0.6-0.3,0.8-0.8l-0.5-0.4
	c-1,0.6-2.4,0.3-3.4-0.4V51l182.6-0.1V51c-1,1-2.5,0.6-3.7,0.6l-0.2,0.4c1,1.3,3,1.2,4.5,1.2c1.5-0.3,2.3-1.1,3.3-2.2h25.5
	c25.2,0,23,33.3-0.1,33.3l-51.4-0.1c-0.2-1-0.9-1.9-2.1-2.4c-1.2-0.3-2.9,0-3.7,1.2l0.1,0.4c0.8,0.2,1.9-1.2,2.6,0
	c0.1,0.2,0.3,0.6,0.2,0.9L81.8,84.4z"/>
<path class="st0" d="M55.7,52.3c-1.1-0.3-1.9-1-2.4-2.1C53,48.9,53.7,47,55,46.3c0.4-0.3,1.1-0.9,1.7-0.9c0.5,0.3,0.7,0.6,1.3,1V47
	c-1.5,0.4-2.9,0.8-3.4,2.4c-0.3,0.9,0.3,1.8,0.8,2.4c0.3,0,0.4,0.3,0.6,0.4L55.7,52.3z"/>
<path class="st0" d="M238.5,52.2c0.7-0.4,1.5-1,1.7-2.1c0-1-0.6-2.1-1.5-2.6l-2.1-0.9v-0.3l2-1l2.3,1.9c0.7,1,0.7,2.1,0.3,3.3
	C240.8,51.3,239.8,52.2,238.5,52.2L238.5,52.2z"/>
<polygon class="st3" points="56.6,48.8 57.7,48 237.7,48 238.3,48.7 "/>
<path class="st0" d="M76.5,46.1c-2.2-1.2-3.5-4-4.2-6.7c-0.6-3.1,0.3-6.7,3-8.7c2.4-2.2,6-2.2,9-1c2.1,0.8,3.4,2.4,4.1,4.7
	c0.4,2.2-0.1,5-1.9,6.5c-0.2,0.1-0.3,0.4-0.8,0.6l-0.2-0.1c1.3-1.7,2-3.9,1.5-6c-0.2-1.7-1.6-3.1-3.3-3.9c-2-0.6-4-0.6-6.1,0.4
	c-1.8,1.1-3.2,3.5-2.9,5.8c0,3.1,2.4,5.1,4.6,6.9l1.9,1.5L76.5,46.1z"/>
<path class="st0" d="M213.1,46.1c2.6-1.7,6-4.4,6.7-7.8c0.3-2.1-0.5-4.6-2.4-6c-1.9-1.4-4.3-1.6-6.4-1c-1.7,0.8-2.8,2.3-3.3,4.2
	c-0.4,2,0.3,4,1.7,5.8l-0.3,0.1c-1.8-0.9-2.8-3.3-2.9-5.3c-0.2-2.1,1.1-4.4,2.7-5.7c2.6-1.6,5.5-2.1,8.3-1c2.4,1.3,4.6,3.6,5,6.8
	c0.5,3.2-1.9,7.7-4.3,9.9L213.1,46.1z"/>
<path class="st0" d="M67.7,34.6l-2.3-3.3c-0.3,0.6-0.5,1-0.7,1.5c-0.5,1.8-0.2,3.6,0,5.3c0.1,0.5,0.1,1,0.2,1.5h-0.2h-0.3
	c-0.3-0.7-0.3-1.4-0.6-1.9l-6-2l-0.3,0.2c0.5,3.3,2.3,5.6,5.1,6.8l-0.1,0.1l-0.1,0.1c-0.3-0.2-0.5-0.3-0.6-0.3
	c-2.3-1.2-4.7-0.9-6.7,0.1c1.6,1.5,3.1,2.9,5.3,3.3l4.3,0.1l6.7,0.1C69.2,42.9,67.9,38.5,67.7,34.6 M63.4,44.7l-0.5-0.3
	c0.4-0.4,1.2-0.3,1.9-0.3c0.7,0.1,1.3,0.1,1.9-0.1l0.1-0.3l-2-1.5l-4-3.3l-0.1-0.6l4.1,3.1l2.4,1.7l0.2-0.1l-1.2-4.6l0.3-0.1
	l2.3,6.4l-4,0.1H63.4z"/>
<path class="st0" d="M231.8,42.5l2.8-1.4c1.7-1.3,1.7-3.7,2.3-5.5l-4.9,1c-1.5,0.2-1.5,1.6-2.1,2.8v0.1h-0.6
	c0.4-2.8,1.4-5.8-0.4-8.4l-2.7,4.2c0.5,3.5-1.5,8-3.3,10.9l7,0.1h3c2.8,0.1,5.1-1.9,6.8-3.5C237,41.1,234.1,42.2,231.8,42.5
	 M229.8,44.5l-3.9,0.2l-0.2-0.1l2.1-6.4l-1,4.6l0.3,0.1l2.6-2l3.5-2.7h0.3c-0.7,1.5-2.3,2.4-3.9,3.5c-0.7,0.6-1.5,1.1-2,1.7v0.5
	l2,0.3l1.6,0.1L229.8,44.5z"/>
<path class="st3" d="M37,59.4v-1.2l-0.1,0.1c0,0.1-0.1,0.4-0.1,0.6C36.8,59.2,36.9,59.3,37,59.4"/>
<path class="st3" d="M36.9,78.9C36.9,78.9,37,78.9,36.9,78.9l0.1-0.2C36.9,78.7,36.9,78.8,36.9,78.9"/>
<path class="st0" d="M240.9,76.5c-0.1,0.6-0.3,1-0.4,1c-0.1,0.2-0.3,0.3-0.4,0.3c-0.1,0-0.3-0.1-0.4-0.2c-0.1-0.2-0.3-0.6-0.4-1
	l-3.3-14.2v-0.1l-0.1-0.1h-0.1v0.3l-0.3,6.7v1.2v1.5c0,1.5,0.1,2.6,0.1,3.3c0.1,0.6,0.3,1.1,0.4,1.3c0.1,0.1,0.3,0.3,0.7,0.3h0.1
	c0.3,0,0.4,0.2,0.5,0.2c0.1,0.1,0.2,0.3,0.2,0.4c0,0.2-0.1,0.6-0.2,0.6c-0.1,0.1-0.3,0.2-0.5,0.2c0,0-0.3-0.1-0.7-0.1
	c-0.3,0-0.8-0.1-1-0.1c-0.3,0-0.8,0.1-1.2,0.1c-0.4,0-0.6,0.1-0.6,0.1c-0.1,0-0.3-0.1-0.3-0.1c-0.1-0.1-0.2-0.3-0.2-0.5
	c0-0.2,0.1-0.4,0.1-0.4c0.1-0.1,0.2-0.3,0.4-0.3h0.1h0.2c0.3-0.1,0.6-0.4,0.7-0.6c0.1-0.2,0.2-1,0.2-1.9l0.5-12.3v-0.6v-0.8
	c0-0.9-0.1-1.6-0.1-1.8c-0.1-0.2-0.3-0.6-0.6-0.6l-0.1-0.1c0,0-0.1-0.1-0.3-0.1c-0.3,0-0.5-0.3-0.5-0.5c0-0.2,0.1-0.6,0.1-0.6
	c0.1-0.1,0.1-0.2,0.3-0.2c0.1,0,0.3,0.1,0.3,0.1c0.6,0,1.2,0.1,1.7,0.1h1.1c0.3,0,0.7-0.1,0.7-0.1c0.1,0,0.3,0.1,0.5,0.2
	c0.1,0.1,0.2,0.3,0.2,0.6l2.8,12.1c0,0.1,0.1,0.3,0.1,0.3l0.1,0.1l0.1-0.1c0-0.1,0.1-0.3,0.1-0.4l2.9-12c0.1-0.2,0.2-0.6,0.3-0.6
	c0.1-0.1,0.4-0.2,0.7-0.2h0.8c0.3,0,0.7,0.1,0.8,0.1c0.3,0,0.6-0.1,1-0.1c0.4,0,0.7-0.1,0.8-0.1c0.3,0,0.4,0.1,0.5,0.2
	c0.1,0.1,0.2,0.4,0.2,0.6c0,0.1-0.2,0.5-0.6,0.5h-0.3c-0.1,0-0.1,0.1-0.3,0.1c-0.2,0.1-0.3,0.4-0.4,0.8c-0.1,0.4-0.2,1-0.2,1.7v0.3
	l0.2,14.3c0,0.6,0.1,1,0.2,1.2c0.1,0.2,0.3,0.5,0.8,0.5h0.1h0.1c0.4,0,0.6,0.3,0.6,0.8c0,0.2-0.1,0.4-0.1,0.4
	c-0.1,0.1-0.3,0.2-0.5,0.2h-0.3c-0.8-0.2-1.7-0.3-2.6-0.3s-1.8,0.1-2.6,0.3h-0.3c-0.1,0-0.3-0.1-0.4-0.1c-0.1-0.1-0.1-0.3-0.1-0.5
	v-0.4c0.1,0,0.3-0.2,0.5-0.3h0.1h0.2c0.2-0.1,0.5-0.3,0.6-0.5c0.1-0.2,0.1-0.7,0.1-1.2V63.3V63l-0.1-0.1l-0.1,0.1l-0.1,0.2
	L240.9,76.5z"/>
<path class="st0" d="M255.9,67.6c-0.1,0-0.2,0.2-0.2,0.2s-0.1,0.2-0.1,0.3v5c0,1.6,0.1,2.6,0.3,3.1c0.3,0.4,0.8,0.6,1.5,0.6
	c0.5,0,1-0.2,1.4-0.4c0.5-0.2,0.9-0.7,1.1-1.1c0.3-0.4,0.5-1,0.8-1.7c0.2-0.7,0.6-1.1,0.8-1.1c0.1,0,0.2,0.1,0.3,0.3
	c0.1,0.2,0.2,0.6,0.2,0.8v0.3c0,0.2-0.1,0.4-0.1,0.6l-0.3,2.8c0,0.3-0.1,0.6-0.1,0.8c-0.1,0.2-0.3,0.3-0.6,0.3h-0.6
	c-1.9-0.2-3.7-0.4-5.5-0.4c-1.1,0-2.4,0.1-3.5,0.3h-0.3c-0.1,0-0.3-0.1-0.3-0.1c-0.1-0.1-0.1-0.3-0.1-0.5c0-0.3,0.2-0.6,0.6-0.8
	c0.1,0,0.1-0.1,0.1-0.1c0.4,0,0.7-0.2,0.8-0.4c0.1-0.2,0.2-0.6,0.2-1.1V59.9c0-0.5-0.1-0.9-0.1-1.1c-0.1-0.2-0.5-0.5-0.9-0.6h-0.1
	c-0.5,0-0.7-0.3-0.7-0.6c0-0.2,0.1-0.6,0.1-0.6c0.1-0.1,0.3-0.2,0.4-0.2c0,0,0.2,0.1,0.3,0.1c1.1,0.1,2.3,0.2,3.4,0.2
	c1.2,0,2.6-0.1,3.9-0.1c1.4-0.1,2.1-0.2,2.2-0.2c0.3,0,0.4,0.1,0.5,0.1c0.1,0.1,0.1,0.4,0.1,0.6v3.5c0,0.4-0.1,0.7-0.1,0.7
	c-0.1,0.1-0.2,0.2-0.3,0.2c-0.2,0-0.5-0.3-0.8-1.1c-0.1-0.3-0.3-0.7-0.4-0.9c-0.1-0.4-0.5-0.7-0.8-0.9c-0.3-0.2-0.9-0.4-1.4-0.4
	c-0.6,0-1,0.2-1.3,0.4c-0.3,0.2-0.4,0.8-0.4,1.5v4.8c0,0.3,0.1,0.6,0.1,0.6c0.1,0.1,0.6,0.2,0.9,0.2c0.6,0,1-0.1,1.2-0.1
	c0.3-0.1,0.5-0.3,0.6-0.5c0.1-0.3,0.3-0.8,0.4-1.5c0.1-0.6,0.4-0.9,0.6-0.9s0.3,0.1,0.4,0.2c0,0.2,0.1,0.4,0.1,0.6
	c0,0-0.1,0.2-0.1,0.3v2.4v2.2v1.1v1c-0.1,0.1-0.3,0.1-0.5,0.1c-0.2,0-0.5-0.3-0.6-1c-0.1-0.2-0.2-0.6-0.2-0.8
	c-0.3-0.6-0.5-1-0.8-1.2c-0.2-0.2-0.6-0.4-1.1-0.4h-0.3c-0.1,0-0.2,0.1-0.3,0.1H255.9z"/>
<path class="st0" d="M263.6,72.4c0-0.1,0-0.3,0.1-0.4c0.1-0.2,0.2-0.3,0.3-0.3c0.2,0,0.5,0.5,0.6,1.4c0,0.4,0.1,0.8,0.1,1
	c0.3,1.1,0.6,2.1,1,2.4c0.4,0.6,1,0.8,1.7,0.8c0.8,0,1.5-0.3,2-0.9c0.5-0.6,0.8-1.5,0.8-2.6c0-0.8-0.2-1.6-0.6-2.2
	c-0.4-0.6-1.2-1.5-2.5-2.4c-1.3-0.9-2.2-1.9-2.7-2.8c-0.5-1-0.8-2.2-0.8-3.6c0-1.8,0.5-3.5,1.4-4.7c1-1.3,2.2-2,3.6-2
	c0.6,0,1.2,0.1,1.7,0.3c0.5,0.2,1,0.6,1.2,0.8c0.1,0.1,0.3,0.3,0.3,0.5c0.1,0.2,0.1,0.6,0.1,1.2v2.8c0,0.2,0,0.5-0.1,0.5
	c-0.1,0.1-0.2,0.2-0.3,0.2c-0.2,0-0.5-0.5-0.7-1.5c0-0.1-0.1-0.3-0.1-0.3c-0.3-1.1-0.6-1.9-0.8-2.4c-0.3-0.4-0.8-0.6-1.4-0.6
	c-0.6,0-1.1,0.3-1.5,0.8c-0.3,0.6-0.6,1.3-0.6,2.2c0,1.2,0.6,2.4,1.8,3.1c0.4,0.2,0.7,0.6,0.8,0.6c1.3,1,2.4,2.1,2.9,3.1
	c0.6,1,1,2.5,1,3.9c0,2.2-0.6,4-1.6,5.3c-1,1.5-2.4,2.2-4,2.2c-0.6,0-1.4-0.2-2-0.4c-0.7-0.2-1.2-0.6-1.5-1
	c-0.1-0.1-0.3-0.4-0.3-0.6v-1.5V72.4z"/>
<path class="st0" d="M231.3,62.8c-0.4-1.4-1-2.8-1.8-3.7c-0.7-1-1.5-1.7-2.3-2.3c-0.9-0.4-1.8-0.7-2.7-0.7l0,0h-0.1
	c-1,0-1.9,0.3-2.8,0.8c-0.8,0.4-1.7,1.2-2.2,2.2c-0.8,1.1-1.5,2.4-1.9,3.9c-0.3,1.4-0.6,2.9-0.6,4.4c0,1.7,0.3,3.2,0.6,4.6
	c0.3,1.4,1,2.7,1.8,3.7c0.6,0.9,1.5,1.7,2.3,2.3c0.8,0.3,1.8,0.7,2.7,0.7h0.1c1,0,1.9-0.3,2.8-0.7c0.8-0.4,1.6-1.2,2.3-2.3
	c0.8-1,1.4-2.4,1.8-3.7c0.3-1.5,0.6-3,0.6-4.6C231.8,65.8,231.6,64.3,231.3,62.8 M227.3,75c-0.6,1.7-1.6,2.5-2.7,2.5h-0.1
	c-1,0-2.1-1-2.8-3.1c-0.7-1.9-1.1-4.6-1.1-7.9c0-2.6,0.4-5,1-6.7c0.6-1.6,1.6-2.4,2.7-2.4c0.1,0,0.1,0.1,0.2,0.1
	c1.1,0.1,2,1.2,2.8,3c0.7,2.1,1.1,4.7,1.1,7.9C228.3,71.1,228,73.4,227.3,75"/>
<path class="st0" d="M167.4,77.3v0.8c0.1-0.1,0.2-0.2,0.2-0.4C167.6,77.6,167.6,77.4,167.4,77.3"/>
<path class="st0" d="M187.7,67.6c-0.1,0-0.2,0.2-0.2,0.2s-0.1,0.2-0.1,0.3v5c0,1.6,0.1,2.6,0.3,3.1c0.3,0.4,0.8,0.6,1.5,0.6
	c0.5,0,1-0.2,1.5-0.4c0.4-0.2,0.8-0.7,1.1-1.1c0.2-0.4,0.5-1,0.7-1.7c0.3-0.7,0.6-1.1,0.8-1.1c0.1,0,0.2,0.1,0.3,0.3
	c0.1,0.2,0.2,0.6,0.2,0.8v0.3c0,0.2-0.1,0.4-0.1,0.6l-0.3,2.8c0,0.3-0.1,0.6-0.2,0.8c-0.1,0.2-0.3,0.3-0.6,0.3H192
	c-1.8-0.2-3.7-0.4-5.6-0.4c-1.1,0-2.4,0.1-3.5,0.3h-0.3c-0.1,0-0.3-0.1-0.3-0.1c-0.1-0.1-0.1-0.3-0.1-0.5c0-0.3,0.3-0.6,0.6-0.8
	c0.1,0,0.1-0.1,0.1-0.1c0.4,0,0.7-0.2,0.8-0.4c0.1-0.2,0.2-0.6,0.2-1.1V59.9c0-0.5,0-0.9-0.1-1.1c-0.1-0.2-0.5-0.5-0.9-0.6h-0.1
	c-0.4,0-0.7-0.3-0.7-0.6c0-0.2,0.1-0.6,0.1-0.6c0.1-0.1,0.3-0.2,0.4-0.2c0,0,0.2,0.1,0.3,0.1c1.1,0.1,2.3,0.2,3.4,0.2
	c1.3,0,2.6-0.1,3.9-0.1c1.4-0.1,2.1-0.2,2.2-0.2c0.3,0,0.5,0.1,0.5,0.1c0.1,0.1,0.1,0.4,0.1,0.6v3.5c0,0.4-0.1,0.7-0.1,0.7
	c-0.1,0.1-0.2,0.2-0.3,0.2c-0.2,0-0.5-0.3-0.8-1.1c-0.1-0.3-0.3-0.7-0.5-0.9c-0.1-0.4-0.5-0.7-0.8-0.9c-0.3-0.2-0.8-0.4-1.3-0.4
	c-0.6,0-1.1,0.2-1.4,0.4c-0.2,0.2-0.4,0.8-0.4,1.5v4.8c0,0.3,0.1,0.6,0.2,0.6c0.1,0.1,0.5,0.2,0.8,0.2c0.6,0,1-0.1,1.3-0.1
	c0.2-0.1,0.5-0.3,0.6-0.5c0.1-0.3,0.3-0.8,0.5-1.5c0.1-0.6,0.3-0.9,0.5-0.9c0.1,0,0.3,0.1,0.4,0.2c0.1,0.2,0.1,0.4,0.1,0.6
	c0,0-0.1,0.2-0.1,0.3c0,0.8-0.1,1.7-0.1,2.4v2.2c0,0.7,0.1,1.1,0.1,1.1c0,0.4-0.1,0.8-0.1,1c-0.1,0.1-0.3,0.1-0.4,0.1
	c-0.3,0-0.5-0.3-0.6-1c-0.1-0.2-0.2-0.6-0.2-0.8c-0.2-0.6-0.5-1-0.7-1.2c-0.3-0.2-0.6-0.4-1.1-0.4h-0.4c-0.1,0-0.2,0.1-0.3,0.1
	H187.7z"/>
<path class="st0" d="M205.8,65.4c0,0.2,0.1,0.4,0.1,0.4s0.1,0.1,0.1,0.1h4.3c0.1,0,0.2-0.1,0.2-0.1c0.1,0,0.1-0.2,0.1-0.3v-5.6
	c0-0.6,0-1-0.1-1.2c-0.1-0.2-0.5-0.4-0.9-0.6c-0.3,0-0.6-0.3-0.6-0.6c0-0.2,0-0.6,0.1-0.6c0.1-0.1,0.3-0.2,0.4-0.2
	c0,0,0.1,0.1,0.2,0.1c0.9,0,1.8,0.1,2.6,0.1c0.8,0,1.7-0.1,2.6-0.1c0.1,0,0.3-0.1,0.3-0.1c0.1,0,0.3,0.1,0.3,0.2
	c0.1,0.1,0.2,0.4,0.2,0.6c0,0.1-0.1,0.3-0.1,0.3c-0.1,0-0.3,0.2-0.6,0.2v0.1h-0.1c-0.3,0-0.6,0.2-0.7,0.4c-0.1,0.2-0.1,0.7-0.1,1.2
	v15.3c0,0.6,0.1,1,0.1,1.2c0.1,0.1,0.3,0.5,0.7,0.5h0.1h0.1l0.1,0.1c0.3,0,0.6,0.3,0.6,0.6c0,0.2-0.1,0.4-0.1,0.6
	c-0.1,0.1-0.3,0.2-0.4,0.2h-0.3c-0.8-0.2-1.7-0.3-2.5-0.3c-0.8,0-1.7,0.1-2.6,0.3h-0.3c-0.1,0-0.3-0.1-0.4-0.2
	c-0.1-0.1-0.1-0.3-0.1-0.6c0-0.3,0.1-0.6,0.6-0.6c0.4-0.1,0.7-0.3,0.8-0.5c0.1-0.2,0.2-0.6,0.2-1.1V68v-0.3
	c-0.1-0.1-0.2-0.2-0.3-0.2H206c-0.1,0-0.1,0.1-0.1,0.1c0,0.1-0.1,0.3-0.1,0.4v7.4c0,0.5,0.1,0.9,0.1,1.1c0.1,0.2,0.5,0.4,0.8,0.5
	h0.1c0.3,0,0.6,0.3,0.6,0.6c0,0.2-0.1,0.4-0.1,0.6c-0.1,0.1-0.3,0.2-0.4,0.2h-0.3c-0.8-0.2-1.7-0.3-2.6-0.3c-0.8,0-1.7,0.1-2.6,0.3
	h-0.3c-0.1,0-0.3-0.1-0.3-0.2c-0.1-0.1-0.1-0.3-0.1-0.6c0-0.3,0.2-0.6,0.6-0.6v-0.1h0.1h0.1c0.3,0,0.6-0.2,0.8-0.4
	c0.1-0.2,0.1-0.7,0.1-1.2V59.9c0-0.5-0.1-0.9-0.1-1.1c-0.1-0.2-0.4-0.5-0.8-0.5h-0.1v-0.1c-0.3,0-0.6-0.2-0.6-0.2
	c-0.1,0-0.1-0.2-0.1-0.3c0-0.2,0.1-0.6,0.1-0.6c0.1-0.1,0.3-0.2,0.3-0.2c0,0,0.1,0.1,0.3,0.1c0.8,0,1.7,0.1,2.6,0.1
	c0.8,0,1.7-0.1,2.6-0.1c0.1,0,0.3-0.1,0.3-0.1c0.1,0,0.3,0.1,0.3,0.2c0.1,0.1,0.2,0.4,0.2,0.6c0,0.3-0.3,0.6-0.6,0.6h-0.1
	c-0.4,0.1-0.8,0.3-0.8,0.6c-0.1,0.2-0.1,0.7-0.1,1.2V65.4z"/>
<path class="st0" d="M181.3,67.6c-0.1-0.1-0.2-0.2-0.3-0.2c0,0-0.1,0.1-0.2,0.1c-0.8,0.1-1.7,0.2-2.6,0.2c-0.8,0-1.7-0.1-2.5-0.2
	c-0.2,0-0.4-0.1-0.5-0.1c-0.1,0-0.3,0.1-0.3,0.2c-0.1,0.1-0.1,0.3-0.1,0.6c0,0.2,0.1,0.4,0.1,0.5c0,0,0.3,0.1,0.5,0.1
	c0.3,0,0.5,0.1,0.6,0.1c0.3,0.2,0.4,0.6,0.5,0.8c0.1,0.3,0.1,1.1,0.1,2.3v0.8v1.6c0,1.3-0.1,2.2-0.3,2.5c-0.1,0.3-0.6,0.6-1,0.6
	c-1.3,0-2.4-1-3.2-2.8c-0.8-1.7-1.2-4.1-1.2-6.9c0-2.8,0.4-5.4,1.2-7.4c0.8-1.9,1.9-2.8,3.1-2.8c0.6,0,1.1,0.3,1.5,0.7
	c0.4,0.4,0.8,1.1,1.2,2c0,0,0.1,0.3,0.3,0.6c0.2,0.6,0.5,1,0.7,1c0.1,0,0.3-0.1,0.3-0.2c0,0,0.1-0.1,0.1-0.3v-0.3l-0.1-1.4
	c0-0.1-0.1-0.3-0.1-0.6c-0.1-0.9-0.3-1.5-0.5-1.7c-0.3-0.3-0.9-0.6-1.5-0.8c-0.6-0.2-1.4-0.3-2.1-0.3c-1,0-2,0.3-3,0.8
	c-1,0.5-1.8,1.3-2.4,2.2c-0.8,1-1.5,2.4-1.8,4c-0.1,0.4-0.2,0.8-0.3,1.1c-0.2,1.2-0.3,2.4-0.3,3.5c0,1.4,0.1,2.6,0.3,3.7
	c0.3,1.7,0.9,3.1,1.7,4.2c1.3,1.9,3.2,3,5.4,3c1.6,0,2.9-0.3,3.9-0.9c1-0.6,1.5-1.5,1.5-2.3c0,0-0.1-0.5-0.1-1.1v-1.9v-1
	c0-0.9,0.1-1.6,0.1-1.9c0.1-0.3,0.3-0.6,0.4-0.6c0.1,0,0.3-0.1,0.4-0.1c0.3,0,0.6-0.3,0.6-0.7C181.4,68,181.4,67.8,181.3,67.6"/>
<path class="st0" d="M154.9,55.5c0-0.1-0.1-0.2-0.3-0.2c-0.1,0-0.2,0.1-0.3,0.2c-0.1,0.1-0.1,0.3-0.1,0.4c-0.1,0.3-0.3,0.6-0.3,0.6
	c-0.1,0.1-0.5,0.3-1,0.3c-0.5,0-1.1,0.1-1.9,0.1h-4.9c-0.6,0-1-0.1-1.1-0.1c-0.1,0-0.3-0.3-0.4-0.5v-0.2c-0.1-0.4-0.3-0.6-0.4-0.6
	c-0.2,0-0.4,0.5-0.6,1.5c0,0.2-0.1,0.6-0.1,0.6c-0.1,0.8-0.3,1.7-0.5,2.6c-0.1,0.8-0.1,1.4-0.1,1.5c0,0.2,0.1,0.4,0.1,0.5
	c0,0,0.1,0.1,0.3,0.1c0.1,0,0.4-0.4,0.7-1c0.1-0.5,0.4-1,0.6-1.2c0.3-0.6,0.6-1.1,1-1.3c0.2-0.2,0.6-0.4,1-0.4h0.3
	c0.1,0,0.2,0.1,0.3,0.2v0.3v16.3c0,0.6,0,1-0.1,1.2c-0.1,0.2-0.4,0.4-0.8,0.4h-0.1v0.1c-0.4,0-0.6,0.3-0.6,0.6c0,0.2,0,0.4,0.1,0.6
	c0.1,0.1,0.3,0.2,0.4,0.2h0.3c0.8-0.2,1.7-0.3,2.5-0.3c0.9,0,1.7,0.1,2.6,0.3h0.3c0.1,0,0.3-0.1,0.4-0.2c0.1-0.1,0.1-0.3,0.1-0.6
	c0-0.3-0.3-0.6-0.6-0.6l-0.1-0.1c-0.3,0-0.7-0.3-0.8-0.5c-0.1-0.2-0.2-0.6-0.2-1V58.9c0-0.1,0.1-0.3,0.1-0.4c0,0,0.1-0.1,0.2-0.1
	h0.6c0.5,0,1,0.2,1.2,0.4c0.3,0.2,0.5,0.6,0.7,1.1c0.1,0.3,0.2,0.8,0.3,1.2c0.2,0.8,0.4,1.2,0.6,1.2h0.1c0.1-0.1,0.2-0.2,0.3-0.3
	c0-0.1,0.1-0.5,0.1-1.1c0-0.9,0.1-2,0.2-3.1c0.1-1,0.1-1.7,0.1-1.7C155,55.9,154.9,55.6,154.9,55.5"/>
<path class="st0" d="M167,76.9c-0.1,0-0.3-0.2-0.3-0.2c-0.3-0.1-0.6-0.3-0.8-0.8c-0.1-0.4-0.3-1.2-0.6-1.9l-4-16.4
	c-0.1-0.6-0.3-1.2-0.4-1.2c-0.1-0.1-0.3-0.2-0.6-0.2c-0.3,0-0.6,0.1-0.7,0.3c-0.1,0.2-0.2,0.6-0.3,1l-0.3,0.9l-4,16.4
	c-0.1,0.4-0.3,0.9-0.4,1.2c-0.1,0.2-0.3,0.4-0.4,0.6c0,0.1-0.1,0.1-0.1,0.1c-0.1,0-0.2,0.1-0.2,0.1l-0.1,0.1
	c-0.3,0.2-0.5,0.5-0.5,0.8c0,0.2,0,0.4,0.1,0.5c0.1,0,0.3,0.1,0.4,0.1h0.1c0.1,0,0.2,0,0.3-0.1c0.4-0.1,0.9-0.1,1.3-0.1
	c0.7,0,1.4,0.1,2.1,0.2h0.2c0.1,0,0.3-0.1,0.3-0.2c0.1,0,0.1-0.2,0.1-0.4c0-0.3-0.3-0.6-0.6-0.8c-0.1,0-0.2-0.2-0.3-0.2
	c-0.1,0-0.2-0.1-0.3-0.1c-0.2-0.1-0.5-0.3-0.6-0.6c-0.1-0.2-0.1-0.6-0.1-1c0-0.2,0.1-0.7,0.1-1.1c0-0.4,0.2-1.1,0.3-1.9
	c0.1-0.4,0.2-0.8,0.3-0.9c0.1-0.1,0.6-0.2,1-0.2h0.8h0.1h0.4c0.6,0,1.1,0.1,1.2,0.2c0.2,0.1,0.3,0.4,0.3,0.6l0.9,3.7
	c0,0,0.1,0.2,0.1,0.3V76c0,0.2-0.1,0.4-0.1,0.5c-0.1,0.1-0.3,0.2-0.6,0.2l-0.1,0.1h-0.1c-0.2,0-0.3,0.2-0.4,0.3
	c-0.1,0-0.1,0.3-0.1,0.6c0,0.2,0.1,0.4,0.2,0.5c0.1,0,0.2,0.1,0.3,0.1c0.2,0,0.7-0.1,1.3-0.2c0.6,0,1.1-0.1,1.6-0.1
	c0.6,0,1.1,0.1,1.7,0.2c0.6,0,1,0.1,1,0.1c0.1,0,0.3-0.1,0.4-0.2v-0.8C167.3,77.1,167.1,76.9,167,76.9 M160.5,69
	c0,0.1-0.1,0.2-0.1,0.2h-0.2h-1.1h-1.3h-0.1h-0.2v-0.1v-0.2l1.2-5.6c0-0.1,0.1-0.3,0.1-0.3l0.1-0.1L159,63c0,0,0.1,0.2,0.1,0.3v0.3
	l1.3,5.1L160.5,69L160.5,69z"/>
<path class="st0" d="M135.5,77.1v1c0.1,0.1,0.2,0.1,0.3,0.1h0.3c0.8-0.2,1.7-0.3,2.6-0.3c0.8,0,1.7,0.1,2.6,0.3h0.3
	c0.1,0,0.3-0.1,0.3-0.2c0.1-0.1,0.1-0.3,0.1-0.6c0-0.3-0.1-0.6-0.6-0.6c-0.1,0-0.1-0.1-0.1-0.1c-0.3,0-0.6-0.3-0.8-0.5
	c-0.1-0.2-0.2-0.6-0.2-1V59.8c0-0.4,0.1-0.9,0.2-1.1c0.1-0.2,0.4-0.4,0.8-0.6h0.1c0.4,0,0.6-0.3,0.6-0.6c0-0.2-0.1-0.6-0.1-0.6
	c-0.1-0.1-0.2-0.2-0.3-0.2c0,0-0.2,0.1-0.3,0.1c-0.9,0-1.7,0.1-2.6,0.1c-0.9,0-1.7-0.1-2.6-0.1c-0.1,0-0.3-0.1-0.3-0.1
	c-0.1,0-0.2,0.1-0.3,0.1V58c0.1,0.1,0.3,0.1,0.5,0.1l0.1,0.1h0.1c0.3,0,0.6,0.3,0.7,0.5c0.1,0.2,0.2,0.6,0.2,1v15.4
	c0,0.6-0.1,1-0.2,1.2c-0.1,0.2-0.3,0.4-0.7,0.4H136h-0.1v0.1C135.7,76.9,135.6,77,135.5,77.1"/>
<path class="st0" d="M135.5,58v-1.1V57c-0.1,0.1-0.1,0.4-0.1,0.6C135.4,57.7,135.4,57.9,135.5,58L135.5,58z"/>
<path class="st0" d="M135.5,78.2v-1c-0.1,0.1-0.1,0.3-0.1,0.4C135.4,77.8,135.4,78,135.5,78.2L135.5,78.2z"/>
<path class="st0" d="M134.7,76.9c-0.3-0.3-0.7-0.8-0.9-1.5l-1.9-5.8c-0.2-0.6-0.5-1.2-0.8-1.6c-0.2-0.4-0.7-0.8-1.2-0.9
	c1.2-0.3,2.2-1,2.8-1.9c0.6-0.8,0.9-2,0.9-3.4c0-1.6-0.4-2.9-1.2-3.9c-0.7-0.8-1.9-1.3-3.4-1.3c-0.1,0-0.4,0.1-0.7,0.1
	c-0.3,0.1-0.9,0.1-1.5,0.1c-1,0-1.8,0.1-2.4,0.1c-0.3,0-0.9-0.1-1.3-0.1h-0.7c-0.3,0-0.5,0.1-0.6,0.2c-0.1,0.1-0.2,0.4-0.2,0.6
	c0,0.3,0.3,0.6,0.7,0.7h0.1c0.3,0.1,0.6,0.4,0.7,0.6c0.1,0.2,0.2,0.6,0.2,1v15.3c0,0.6-0.1,1-0.2,1.2c-0.1,0.2-0.3,0.4-0.7,0.4h-0.1
	h-0.1v0.1c-0.3,0-0.6,0.3-0.6,0.6c0,0.2,0.1,0.4,0.1,0.6c0.1,0.1,0.2,0.2,0.3,0.2h0.3c0.8-0.2,1.6-0.3,2.5-0.3
	c0.8,0,1.7,0.1,2.5,0.3h0.3c0.1,0,0.3-0.1,0.4-0.2c0.1-0.1,0.1-0.3,0.1-0.6c0-0.3-0.2-0.6-0.6-0.6l-0.1-0.1c-0.4,0-0.7-0.3-0.8-0.5
	c-0.1-0.2-0.1-0.6-0.1-1v-6.9v-0.4c0,0,0.1-0.1,0.3-0.1h0.2c0.2,0,0.5,0.2,0.7,0.6c0.1,0.3,0.3,0.8,0.5,1.2c0.1,0.1,0.1,0.3,0.2,0.3
	l1.9,6.9c0.1,0.4,0.3,0.8,0.4,1c0.1,0.1,0.3,0.2,0.5,0.2c0.2,0,0.6-0.1,1-0.1h0.9c0.3,0,0.7,0.1,1,0.1c0.3,0,0.6,0.1,0.6,0.1
	c0.1,0,0.1-0.1,0.3-0.2c0.1-0.1,0.1-0.3,0.1-0.5C135.4,77.6,135.2,77.3,134.7,76.9 M128.4,66.2c-0.3,0.2-0.7,0.3-1.1,0.3
	c-0.3,0-0.5-0.1-0.6-0.3c0-0.1-0.1-0.6-0.1-1.5v-4.1c0-1,0.1-1.7,0.2-2c0.1-0.3,0.5-0.6,0.9-0.6c0.2,0,0.4,0.1,0.6,0.2
	c0.3,0.2,0.7,0.6,1,1c0.4,0.8,0.7,1.9,0.7,3.1c0,1.2-0.3,2.3-0.8,3C129.1,65.8,128.8,66,128.4,66.2"/>
<path class="st0" d="M77.2,72.4c0-0.1,0.1-0.3,0.1-0.4c0.1-0.2,0.2-0.3,0.3-0.3c0.2,0,0.5,0.5,0.6,1.4c0.1,0.4,0.1,0.8,0.1,1
	c0.3,1.1,0.6,2.1,1,2.4c0.5,0.6,1,0.8,1.7,0.8c0.9,0,1.5-0.3,2-0.9c0.5-0.6,0.8-1.5,0.8-2.6c0-0.8-0.2-1.6-0.6-2.2
	c-0.3-0.6-1.2-1.5-2.4-2.4c-1.4-0.9-2.3-1.9-2.8-2.8c-0.5-1-0.8-2.2-0.8-3.6c0-1.8,0.5-3.5,1.5-4.7c0.9-1.3,2.1-2,3.5-2
	c0.6,0,1.2,0.1,1.7,0.3c0.6,0.2,1,0.6,1.2,0.8c0.1,0.1,0.3,0.3,0.3,0.5c0.1,0.2,0.1,0.6,0.1,1.2v2.8c0,0.2-0.1,0.5-0.1,0.5
	c-0.1,0.1-0.2,0.2-0.3,0.2c-0.2,0-0.5-0.5-0.7-1.5c0-0.1-0.1-0.3-0.1-0.3c-0.3-1.1-0.6-1.9-0.8-2.4c-0.3-0.4-0.8-0.6-1.4-0.6
	c-0.6,0-1.1,0.3-1.5,0.8c-0.3,0.6-0.6,1.3-0.6,2.2c0,1.2,0.6,2.4,1.9,3.1c0.3,0.2,0.6,0.6,0.8,0.6c1.3,1,2.4,2.1,2.9,3.1
	c0.6,1,1,2.5,1,3.9c0,2.2-0.6,4-1.6,5.3c-1,1.5-2.4,2.2-4,2.2c-0.6,0-1.4-0.2-2-0.4c-0.6-0.2-1.2-0.6-1.5-1
	c-0.1-0.1-0.2-0.4-0.2-0.6c0-0.2-0.1-0.8-0.1-1.5V72.4z"/>
<path class="st0" d="M98.3,65.4c0,0.2,0.1,0.4,0.1,0.4s0.1,0.1,0.2,0.1h4.3l0.1-0.1c0.1,0,0.1-0.2,0.1-0.3v-5.6c0-0.6-0.1-1-0.2-1.2
	c-0.1-0.2-0.5-0.4-0.8-0.6c-0.3,0-0.6-0.3-0.6-0.6c0-0.2,0.1-0.6,0.1-0.6c0.1-0.1,0.2-0.2,0.3-0.2c0,0,0.1,0.1,0.3,0.1
	c0.8,0,1.7,0.1,2.6,0.1c0.8,0,1.7-0.1,2.6-0.1c0.1,0,0.2-0.1,0.2-0.1c0.1,0,0.3,0.1,0.4,0.2c0.1,0.1,0.1,0.4,0.1,0.6
	c0,0.1-0.1,0.3-0.1,0.3c0,0-0.3,0.2-0.6,0.2v0.1h-0.1c-0.4,0-0.6,0.2-0.7,0.4c-0.1,0.2-0.2,0.7-0.2,1.2v15.3c0,0.6,0.1,1,0.1,1.2
	c0.1,0.1,0.3,0.5,0.8,0.5h0.1h0.1l0.1,0.1c0.4,0,0.6,0.3,0.6,0.6c0,0.2-0.1,0.4-0.1,0.6c-0.1,0.1-0.3,0.2-0.4,0.2h-0.3
	c-0.8-0.2-1.7-0.3-2.5-0.3c-0.9,0-1.7,0.1-2.6,0.3h-0.3c-0.1,0-0.3-0.1-0.3-0.2c-0.1-0.1-0.1-0.3-0.1-0.6c0-0.3,0.2-0.6,0.6-0.6h0.1
	c0.3-0.1,0.7-0.3,0.8-0.5c0.1-0.2,0.3-0.6,0.3-1.1V68c0-0.1-0.1-0.3-0.1-0.3l-0.2-0.2h-4.3c-0.1,0-0.2,0.1-0.2,0.1
	c0,0.1-0.1,0.3-0.1,0.4v7.4c0,0.5,0.1,0.9,0.2,1.1c0.1,0.2,0.4,0.4,0.8,0.5h0.1c0.3,0,0.6,0.3,0.6,0.6c0,0.2-0.1,0.4-0.1,0.6
	c-0.1,0.1-0.2,0.2-0.3,0.2h-0.3c-0.9-0.2-1.7-0.3-2.6-0.3c-0.9,0-1.7,0.1-2.6,0.3h-0.3c-0.1,0-0.3-0.1-0.3-0.2
	c-0.1-0.1-0.1-0.3-0.1-0.6c0-0.3,0.2-0.6,0.6-0.6v-0.1h0.1H94c0.3,0,0.6-0.2,0.7-0.4c0.1-0.2,0.2-0.7,0.2-1.2V59.9
	c0-0.5-0.1-0.9-0.2-1.1c-0.1-0.2-0.3-0.5-0.7-0.5H94v-0.1c-0.3,0-0.6-0.2-0.6-0.2c-0.1,0-0.1-0.2-0.1-0.3c0-0.2,0.1-0.6,0.1-0.6
	c0.1-0.1,0.2-0.2,0.3-0.2c0,0,0.1,0.1,0.3,0.1c0.8,0,1.7,0.1,2.6,0.1c0.8,0,1.7-0.1,2.6-0.1c0.1,0,0.3-0.1,0.3-0.1
	c0.1,0,0.3,0.1,0.3,0.2c0.1,0.1,0.2,0.4,0.2,0.6c0,0.3-0.2,0.6-0.6,0.6h-0.1c-0.4,0.1-0.7,0.3-0.8,0.6c-0.1,0.2-0.2,0.7-0.2,1.2
	V65.4z"/>
<path class="st0" d="M114.7,67.6c-0.1,0-0.3,0.2-0.3,0.2s-0.1,0.2-0.1,0.3v5c0,1.6,0.1,2.6,0.4,3.1c0.2,0.4,0.8,0.6,1.5,0.6
	c0.5,0,1-0.2,1.4-0.4c0.4-0.2,0.8-0.7,1.1-1.1c0.2-0.4,0.5-1,0.7-1.7c0.3-0.7,0.6-1.1,0.8-1.1c0.1,0,0.3,0.1,0.3,0.3
	c0.1,0.2,0.2,0.6,0.2,0.8v0.3c0,0.2-0.1,0.4-0.1,0.6l-0.3,2.8c0,0.3-0.1,0.6-0.2,0.8c-0.1,0.2-0.3,0.3-0.6,0.3H119
	c-1.8-0.2-3.7-0.4-5.5-0.4c-1.1,0-2.3,0.1-3.4,0.3h-0.4c-0.1,0-0.3-0.1-0.3-0.1c-0.1-0.1-0.1-0.3-0.1-0.5c0-0.3,0.3-0.6,0.6-0.8
	c0.1,0,0.2-0.1,0.2-0.1c0.3,0,0.7-0.2,0.8-0.4c0.1-0.2,0.3-0.6,0.3-1.1V59.9c0-0.5-0.1-0.9-0.2-1.1c-0.1-0.2-0.5-0.5-0.8-0.6h-0.2
	c-0.4,0-0.7-0.3-0.7-0.6c0-0.2,0.1-0.6,0.1-0.6c0.1-0.1,0.3-0.2,0.4-0.2c0,0,0.2,0.1,0.3,0.1c1.1,0.1,2.2,0.2,3.3,0.2
	c1.3,0,2.6-0.1,4-0.1c1.3-0.1,2.1-0.2,2.2-0.2c0.2,0,0.4,0.1,0.5,0.1c0.1,0.1,0.1,0.4,0.1,0.6v3.5c0,0.4-0.1,0.7-0.1,0.7
	c-0.1,0.1-0.3,0.2-0.4,0.2c-0.1,0-0.5-0.3-0.8-1.1c-0.1-0.3-0.3-0.7-0.4-0.9c-0.2-0.4-0.5-0.7-0.9-0.9c-0.3-0.2-0.8-0.4-1.3-0.4
	c-0.6,0-1.1,0.2-1.3,0.4c-0.3,0.2-0.5,0.8-0.5,1.5v4.8c0,0.3,0.1,0.6,0.2,0.6c0.1,0.1,0.5,0.2,0.8,0.2c0.6,0,1-0.1,1.3-0.1
	c0.2-0.1,0.5-0.3,0.6-0.5c0.1-0.3,0.3-0.8,0.4-1.5c0.1-0.6,0.3-0.9,0.6-0.9c0.1,0,0.3,0.1,0.3,0.2c0.1,0.2,0.1,0.4,0.1,0.6
	c0,0-0.1,0.2-0.1,0.3c0,0.8-0.1,1.7-0.1,2.4v2.2c0,0.7,0.1,1.1,0.1,1.1c0,0.4-0.1,0.8-0.1,1c-0.1,0.1-0.2,0.1-0.4,0.1
	c-0.3,0-0.5-0.3-0.6-1c-0.1-0.2-0.2-0.6-0.2-0.8c-0.2-0.6-0.5-1-0.7-1.2c-0.3-0.2-0.6-0.4-1.1-0.4h-0.3c-0.1,0-0.3,0.1-0.3,0.1
	H114.7z"/>
<path class="st0" d="M68.4,59.4c-1.1-1.4-2.5-2.4-4.2-2.8c-0.6-0.1-1.4-0.3-2.1-0.3c-0.9,0-1.8,0.1-2.6,0.3
	c-0.9,0.1-1.7,0.4-2.4,0.6c-0.6,0.2-0.9,0.4-1,0.5c-0.1,0.1-0.1,0.4-0.1,0.6c0,0.1,0.1,0.3,0.1,0.4c0,0,0.1,0.1,0.1,0.1
	c0.1,0,0.3-0.1,0.4-0.1H57c0.1,0,0.4,0.2,0.6,0.4c0.1,0.2,0.1,0.5,0.1,0.8v15.3c0,0.5-0.1,0.9-0.1,1.1c-0.1,0.2-0.4,0.4-0.8,0.4
	c0,0-0.1,0.1-0.2,0.1c-0.3,0.1-0.6,0.4-0.6,0.6c0,0.2,0.1,0.6,0.1,0.6c0.1,0,0.2,0.1,0.3,0.1c0,0,0.3-0.1,1-0.2
	c0.6,0,1.1-0.1,1.7-0.1c0.2,0,0.7,0.1,1.5,0.2c0.6,0,1.3,0.1,1.8,0.1c0.6,0,1.2-0.1,1.8-0.2c0.6-0.1,1.1-0.3,1.6-0.6
	c0.9-0.4,1.7-1.1,2.5-2c0.7-1,1.4-2.4,1.8-3.7c0.5-1.3,0.7-2.9,0.7-4.4C70.8,64.2,70,61.5,68.4,59.4 M65.9,74.2
	c-0.5,1-1,1.6-1.7,2.1c-0.5,0.4-1,0.6-1.7,0.6c-0.6,0-1-0.2-1.2-0.6C61.2,75.8,61,75,61,73.9V59.7c0-0.8,0.1-1.4,0.3-1.6
	c0.2-0.2,0.6-0.4,1.2-0.4c0.6,0,1.1,0.2,1.6,0.6c0.7,0.5,1.2,1.2,1.7,2.1c0.8,1.7,1.2,4.1,1.2,7.1C67.2,70.1,66.7,72.5,65.9,74.2"/>
<path class="st0" d="M35.8,78.1v0.1c0.1,0,0.3,0.1,0.4,0.1h0.3c1.1-0.2,2.3-0.3,3.4-0.3c1.9,0,3.7,0.2,5.6,0.4h0.6
	c0.2,0,0.4-0.1,0.6-0.3c0-0.1,0.1-0.4,0.1-0.8l0.3-2.8c0-0.2,0.1-0.4,0.1-0.6v-0.3c0-0.2-0.1-0.6-0.1-0.8c-0.1-0.1-0.2-0.3-0.3-0.3
	S46.2,73,46,73.7c-0.3,0.6-0.5,1.2-0.8,1.7c-0.2,0.4-0.7,0.9-1.1,1.1c-0.3,0.2-0.9,0.4-1.4,0.4c-0.8,0-1.3-0.2-1.5-0.6
	c-0.3-0.4-0.3-1.5-0.3-3.1v-5v-0.3c0,0,0.1-0.2,0.3-0.2h0.3c0,0,0.1-0.1,0.3-0.1h0.3c0.5,0,0.9,0.2,1.1,0.4c0.3,0.2,0.5,0.6,0.8,1.2
	c0,0.2,0.1,0.6,0.1,0.8c0.1,0.6,0.4,1,0.6,1c0.2,0,0.3-0.1,0.4-0.1c0-0.1,0.1-0.6,0.1-1c0,0-0.1-0.4-0.1-1.1v-2.1
	c0-0.7,0.1-1.5,0.1-2.4c0-0.1,0.1-0.3,0.1-0.3c0-0.2-0.1-0.4-0.1-0.6c-0.1-0.1-0.2-0.2-0.3-0.2c-0.2,0-0.4,0.3-0.6,0.9
	c-0.1,0.6-0.3,1.2-0.4,1.5c-0.1,0.2-0.3,0.4-0.6,0.5c-0.2,0-0.7,0.1-1.2,0.1c-0.4,0-0.8-0.1-0.9-0.2c-0.1,0-0.1-0.3-0.1-0.6v-4.8
	c0-0.8,0.1-1.3,0.4-1.5c0.2-0.2,0.7-0.4,1.3-0.4c0.5,0,1,0.2,1.4,0.4c0.3,0.2,0.6,0.5,0.8,0.9c0.1,0.2,0.3,0.6,0.4,0.9
	c0.3,0.8,0.6,1.1,0.8,1.1c0.1,0,0.3-0.1,0.3-0.2c0,0,0.1-0.3,0.1-0.7v-3.5c0-0.2-0.1-0.5-0.1-0.6c-0.1,0-0.3-0.1-0.5-0.1
	c-0.1,0-0.8,0.1-2.2,0.2c-1.2,0-2.6,0.1-3.9,0.1c-1.1,0-2.3-0.1-3.4-0.2c-0.1,0-0.3-0.1-0.3-0.1c-0.1,0-0.3,0.1-0.4,0.1v1.2
	c0.1,0.1,0.3,0.1,0.5,0.1h0.2c0.3,0.1,0.8,0.4,0.8,0.6c0.1,0.2,0.2,0.6,0.2,1.1v15.5c0,0.5-0.1,0.9-0.2,1.1
	c-0.1,0.2-0.5,0.4-0.8,0.4c0,0-0.1,0.1-0.2,0.1c-0.2,0.1-0.3,0.2-0.5,0.3v0.3c0.1,0.1,0.1,0.1,0.1,0.1C35.9,77.8,35.8,78,35.8,78.1"
	/>
<path class="st0" d="M49.9,59.8c0-0.4-0.1-0.8-0.1-1c-0.1-0.2-0.4-0.5-0.8-0.5h-0.1l-0.1-0.1c-0.2,0-0.5-0.2-0.5-0.2
	c-0.1,0-0.1-0.2-0.1-0.3c0-0.2,0.1-0.6,0.1-0.6c0.1-0.1,0.3-0.2,0.4-0.2c0,0,0.1,0.1,0.2,0.1c0.8,0,1.7,0.1,2.6,0.1
	c0.8,0,1.7-0.1,2.6-0.1c0.1,0,0.3-0.1,0.3-0.1c0.1,0,0.2,0.1,0.3,0.2c0.1,0.1,0.2,0.4,0.2,0.6c0,0.3-0.3,0.6-0.6,0.6h-0.1
	c-0.3,0.1-0.7,0.3-0.8,0.6c-0.1,0.2-0.1,0.7-0.1,1.1v15.5c0,0.4,0.1,0.8,0.1,1c0.1,0.1,0.5,0.5,0.8,0.5c0,0,0.1,0.1,0.1,0.1
	c0.3,0,0.6,0.3,0.6,0.6c0,0.2-0.1,0.4-0.1,0.6c-0.1,0.1-0.3,0.2-0.3,0.2h-0.3c-0.8-0.2-1.7-0.3-2.6-0.3c-0.8,0-1.7,0.1-2.6,0.3h-0.2
	c-0.1,0-0.3-0.1-0.4-0.2c-0.1-0.1-0.1-0.3-0.1-0.6c0-0.3,0.2-0.6,0.6-0.6v-0.1h0.1h0.1c0.3,0,0.6-0.2,0.8-0.4
	c0.1-0.2,0.1-0.7,0.1-1.2V59.8z"/>
<path class="st0" d="M35.8,58.1v-1.2L35.7,57c0,0.1-0.1,0.4-0.1,0.6S35.7,57.9,35.8,58.1"/>
<path class="st0" d="M35.7,77.5C35.7,77.5,35.8,77.5,35.7,77.5l0.1-0.2C35.7,77.3,35.7,77.4,35.7,77.5"/>
<path class="st0" d="M34.3,75.4l-1.9-5.8C32.2,69,32,68.4,31.6,68c-0.2-0.4-0.6-0.8-1.1-0.9c1.2-0.3,2.2-1,2.8-1.9
	c0.6-0.8,0.9-2,0.9-3.4c0-1.6-0.4-2.9-1.1-3.9c-0.8-0.8-2-1.3-3.5-1.3c-0.1,0-0.3,0.1-0.6,0.1c-0.3,0.1-1,0.1-1.5,0.1
	c-1,0-1.8,0.1-2.4,0.1c-0.3,0-0.8-0.1-1.2-0.1H23c-0.3,0-0.5,0.1-0.6,0.2c-0.1,0.1-0.2,0.4-0.2,0.6c0,0.3,0.3,0.6,0.7,0.7h0.1
	c0.3,0.1,0.6,0.4,0.8,0.6c0.1,0.2,0.1,0.6,0.1,1v15.3c0,0.6-0.1,1-0.1,1.2c-0.1,0.2-0.4,0.4-0.8,0.4h-0.1h-0.1v0.1
	c-0.3,0-0.6,0.3-0.6,0.6c0,0.2,0.1,0.4,0.1,0.6c0.1,0.1,0.3,0.2,0.3,0.2h0.3c0.8-0.2,1.7-0.3,2.5-0.3c0.8,0,1.7,0.1,2.5,0.3h0.3
	c0.1,0,0.2-0.1,0.3-0.2c0.1-0.1,0.1-0.3,0.1-0.6c0-0.3-0.3-0.6-0.6-0.6l-0.1-0.1c-0.3,0-0.7-0.3-0.8-0.5c-0.1-0.2-0.1-0.6-0.1-1
	v-6.9c0-0.1,0.1-0.3,0.1-0.4c0,0,0.1-0.1,0.2-0.1h0.2c0.2,0,0.5,0.2,0.7,0.6c0.1,0.3,0.4,0.8,0.6,1.4c0.1,0.1,0.1,0.1,0.1,0.2
	l1.9,6.9c0.1,0.4,0.3,0.8,0.5,1c0,0.1,0.2,0.2,0.5,0.2c0.1,0,0.6-0.1,0.9-0.1h0.9c0.3,0,0.7,0.1,1,0.1c0.3,0,0.6,0.1,0.6,0.1
	c0.1,0,0.2-0.1,0.3-0.2c-0.1-0.1-0.1-0.3-0.1-0.5c0-0.1,0-0.1,0-0.2c-0.1-0.1-0.3-0.3-0.5-0.6C34.9,76.5,34.5,76,34.3,75.4 M29,66.2
	c-0.3,0.2-0.8,0.3-1.2,0.3c-0.3,0-0.4-0.1-0.5-0.3c-0.1-0.1-0.1-0.6-0.1-1.5v-4.1c0-1,0.1-1.7,0.2-2c0.1-0.3,0.6-0.6,0.9-0.6
	c0.2,0,0.5,0.1,0.7,0.3c0.3,0.2,0.7,0.6,1,1c0.4,0.8,0.6,1.9,0.6,3.1c0,1.2-0.3,2.3-0.8,3C29.6,65.8,29.3,66,29,66.2"/>
<polygon class="st4" points="153.1,84.7 156.7,87.3 157.6,87.1 159.4,95.6 162.2,94.3 162.8,96.2 161.3,104.3 172.8,108.1 
	171.8,111.6 155.6,107.8 146.5,111.5 141,110.4 131.3,105.9 127.5,102.3 127.5,99.3 132.4,96.6 135.8,96.3 129.9,91.9 133.8,90.6 
	133.1,85.5 138.4,87.1 141.1,84.6 144.2,88.7 147.8,91.9 149.7,92.3 147.9,87.5 151.3,87.5 "/>
<path class="st0" d="M145.7,116.5c-9.7,0-22.1-2.6-29.5-10.3c-0.7-0.8-1.3-2.1-1-3.3c2.2-4.6,6.4-7.2,11.6-9.2l4.2-1.2l0.3,0.5
	c2.1,0,4.4,1.5,5.9,3.1V97l-4.2,0.3c-0.7,2.3-3.3,2.7-5.1,4.2l0.2,0.4c2.2,1,5.6,1,6,4.2c3.1-0.6,6.2-0.3,9.3,1l2.7-1
	c0.1,0.7-0.4,1.6-0.8,2.3c-0.5,0.3-0.7,0.6-1,1.3l0.1,0.4l4.3-1c2.9-0.1,4.9-1.9,6.8-3.5c4.9,1.8,10.3,4.9,15.5,4.5
	c0.3-0.4,0-0.7-0.1-1.2c-4.6-0.2-9.3-1.7-13.9-4.1c2.1-1.2,3.4-3.5,4.4-6l1-3.3c-0.1-0.2-0.3-0.3-0.6-0.5l-2.6,1l-0.2-0.3
	c0-0.3-0.2-0.4,0.1-0.8l-0.5-3.3c6.1,0.2,12.9,2.4,17.8,6.6c1.2,1.5,3.5,2.9,3.5,5.3c-0.7,3.5-4.3,4.9-6.9,6.9
	c-2.6,1.6-5.5,3-8.5,3.8c-6.9,2-12.4,1.9-18.7,2.1H145.7z"/>
<path class="st0" d="M149.4,107.5l-0.1-0.2l4.2-3.8v-0.3c-1.2-1.1-3.2-1.6-4.9-1.6c-2.1,0.6-4.1,1.9-5.5,3.3l-0.3-0.1
	c-0.2-0.1-0.1-0.5-0.2-0.8l4.4-2.7c-2.8-1-6.5-0.5-9.8,0.4c-0.6,0.5-1.5,0.8-2.4,0.8l0.1-0.4l1.5-1.2c-0.5-0.5-1.3-0.3-2-1l0.1-0.2
	c5.5,1.4,11.4-0.5,17.2,1.6c-0.4-0.9-1.2-1.3-1.9-2.2c-2.4-2.2-6-3.7-9.3-2.7l-0.3-0.3c0.1-0.1,0.3-0.3,0.6-0.6h2.7V95
	c-2.7-1.5-5.1-3.5-8.1-2.4c-0.3-0.1-0.8-0.3-0.5-0.6l2.8-0.4c-0.2-0.4-0.8-0.8-1.5-1.2c-0.1-0.4,0-0.9-0.3-1.4l6.4,4.4l0.1-0.2
	c-0.1,0-0.1-0.6-0.6-0.6c-0.7-1.1-1.1-2.2-1-3.1l0.3-0.1c1.2,1.9,1.5,5.2,4.6,6.2l0.1-0.2c-0.1-0.9-1-1.9-0.8-2.9l0.3-0.1
	c0.9,4,4.4,5.8,7.1,8.2c0.5,0.5,1.2,0.9,1.8,1.2c0.6-3.4-1.8-6-3.4-8.8h0.8l1.8,2.6l1.1-5.3l0.2,6.8h0.3l1.2-2.4
	c0,1.8-1.9,4.2-0.8,6.4l1.9-2.4l0.4,0.3c-1.9,3.9-4.3,6.3-7.6,8.5C150.3,107.5,149.9,107.3,149.4,107.5L149.4,107.5z"/>
<polyline points="52.7,35.9 49.1,27.1 57.3,30.9 "/>
<polyline class="st1" points="52.7,35.9 49.1,27.1 57.3,30.9 "/>
<path class="st0" d="M72.7,59.8c-0.4-0.4-0.6-1-0.6-1.7c0-1.3,0.7-2.1,1.5-2.1c1.1,0,1.8,1.7,1.8,3.3c0,1.9-0.6,3.3-1.4,4.5
	c-0.2,0.3-0.9,1.1-1.2,1.1c-0.1,0-0.2-0.2-0.2-0.4c0-0.7,1.7-1.9,1.7-3.8c0-0.6-0.3-0.7-0.6-0.7C73.2,60,73,60.1,72.7,59.8"/>
<path class="st0" d="M72.7,65c-0.2,0-0.3-0.2-0.3-0.5c0-0.3,0.2-0.6,0.5-1c0.5-0.7,1.1-1.6,1.1-2.8c0-0.5-0.2-0.6-0.4-0.6
	c0,0-0.1,0-0.1,0l-0.1,0c-0.1,0-0.2,0-0.2,0c-0.2,0-0.4-0.1-0.6-0.2c-0.4-0.3-0.6-1-0.6-1.7c0-1.3,0.6-2.2,1.5-2.2
	c1.1,0,1.9,1.7,1.9,3.3c0,1.7-0.5,3.2-1.4,4.6C74,63.8,73.2,65,72.7,65 M73.6,59.9c0.4,0,0.6,0.2,0.6,0.8c0,1.3-0.7,2.2-1.2,2.9
	c-0.3,0.4-0.5,0.7-0.5,0.9c0,0.2,0.1,0.3,0.2,0.3c0.3,0,0.9-0.7,1.2-1.1c0.9-1.3,1.4-2.8,1.4-4.5c0-1.5-0.7-3.2-1.7-3.2
	c-0.8,0-1.4,0.9-1.4,2c0,0.7,0.2,1.3,0.6,1.6c0.2,0.2,0.4,0.2,0.7,0.2l0.1,0C73.6,59.9,73.6,59.9,73.6,59.9"/>
</svg>
