<?xml version="1.0" encoding="utf-8"?>
<!-- Generator: Adobe Illustrator 22.1.0, SVG Export Plug-In . SVG Version: 6.00 Build 0)  -->
<svg version="1.1" id="Layer_1" xmlns="http://www.w3.org/2000/svg" xmlns:xlink="http://www.w3.org/1999/xlink" x="0px" y="0px"
	 viewBox="0 0 503.9 474.3" style="enable-background:new 0 0 503.9 474.3;" xml:space="preserve">
<style type="text/css">
	.st0{fill:#FFFFFF;}
</style>
<path class="st0" d="M105,462.7c0-1.4,0.3-2.8,0.8-4c0.5-1.2,1.3-2.4,2.2-3.3c0.9-1,2.1-1.7,3.3-2.3c1.3-0.6,2.7-0.8,4.2-0.8
	c1,0,1.9,0.1,2.8,0.4c0.9,0.3,1.6,0.6,2.3,1.1c0.7,0.4,1.2,0.9,1.7,1.3c0.4,0.5,0.7,0.9,0.8,1.2c0-0.6,0-1.2,0.1-1.8
	c0.1-0.6,0.1-1.2,0.1-1.8h2.7v16.7h4v3.1h-6.9V471v-1.8c-0.1,0.4-0.4,0.7-0.8,1.2c-0.4,0.4-0.9,0.8-1.6,1.2c-0.7,0.4-1.4,0.7-2.3,1
	c-0.9,0.3-1.8,0.4-2.9,0.4c-1.5,0-2.9-0.3-4.2-0.8c-1.3-0.5-2.4-1.3-3.3-2.2c-0.9-0.9-1.7-2-2.2-3.3
	C105.3,465.5,105,464.1,105,462.7 M108.3,462.7c0,1,0.2,2,0.6,2.8c0.4,0.9,0.9,1.6,1.5,2.2c0.6,0.6,1.4,1.1,2.3,1.5
	c0.9,0.4,1.8,0.6,2.9,0.6c1,0,2-0.2,2.9-0.6c0.9-0.4,1.6-0.9,2.3-1.5c0.6-0.6,1.1-1.4,1.5-2.2c0.4-0.9,0.6-1.8,0.6-2.8
	c0-1-0.2-1.9-0.6-2.8c-0.4-0.9-0.9-1.6-1.5-2.3c-0.6-0.6-1.4-1.1-2.3-1.5c-0.9-0.4-1.8-0.6-2.9-0.6c-1,0-2,0.2-2.9,0.6
	c-0.9,0.4-1.7,0.9-2.3,1.5c-0.6,0.6-1.1,1.4-1.5,2.3C108.5,460.8,108.3,461.7,108.3,462.7"/>
<polygon class="st0" points="135.1,439.9 138.4,439.9 138.4,452.8 144,452.8 144,456.1 138.4,456.1 138.4,469.5 142.5,469.5 
	142.5,472.6 135.1,472.6 135.1,456.1 130.6,456.1 130.6,452.8 135.1,452.8 "/>
<path class="st0" d="M144.5,452.8h7v13c0.1,1.1,0.5,2,1.1,2.7c0.7,0.8,1.7,1.2,3.2,1.2c1,0,1.9-0.2,2.9-0.5c0.9-0.3,1.7-0.8,2.4-1.4
	c0.7-0.6,1.2-1.3,1.7-2.1c0.4-0.8,0.6-1.7,0.6-2.7v-7h-3.7v-3.3h7v17.1h3.5v2.8h-6.7l-0.1-2.8l0.1-2.4c-0.7,1.7-1.9,3.1-3.4,4.1
	c-1.6,1-3.3,1.5-5.3,1.5c-2,0-3.6-0.5-4.8-1.6c-1.2-1.1-1.8-2.5-1.9-4.3v-11.1h-3.7V452.8z"/>
<path class="st0" d="M170.7,469.5h4.1v-13.4h-3.7v-3.3h6.5l0.1,1.2c0,0.7,0.1,1.4,0.1,2c0.1,0.6,0.1,1.2,0.1,2
	c0.4-0.9,1-1.7,1.6-2.4c0.6-0.7,1.3-1.3,2-1.7c0.7-0.5,1.5-0.8,2.2-1.1c0.8-0.3,1.5-0.4,2.1-0.4l-0.2,3.3c-1.1,0-2.1,0.2-3,0.5
	c-0.9,0.3-1.7,0.8-2.4,1.4c-0.7,0.6-1.2,1.3-1.6,2.1c-0.4,0.8-0.6,1.7-0.6,2.7v7.1h3.7v3.1h-11V469.5z"/>
<path class="st0" d="M206.1,460.5l-15.4,5.9c0.6,1,1.4,1.9,2.5,2.5c1.1,0.6,2.3,0.9,3.7,0.9c1,0,1.8-0.2,2.7-0.5
	c0.8-0.3,1.5-0.8,2.1-1.4c0.3,0.4,0.6,0.8,1,1.2c0.3,0.4,0.7,0.8,1,1.2c-0.9,0.9-1.9,1.6-3.1,2.1c-1.1,0.5-2.4,0.7-3.7,0.7
	c-1.4,0-2.8-0.3-4.1-0.8c-1.3-0.5-2.4-1.3-3.3-2.2c-1-0.9-1.7-2-2.3-3.3c-0.5-1.2-0.8-2.6-0.8-4.1c0-1.4,0.3-2.7,0.8-4
	c0.5-1.3,1.3-2.4,2.3-3.3c1-0.9,2.1-1.7,3.3-2.2c1.3-0.5,2.6-0.8,4.1-0.8c1.1,0,2.1,0.2,3.1,0.6c1,0.4,1.9,1,2.6,1.7
	c0.8,0.7,1.5,1.6,2.1,2.6C205.4,458.2,205.8,459.3,206.1,460.5 M196.9,455.6c-1.1,0-2.1,0.2-3,0.6c-0.9,0.4-1.7,1-2.3,1.7
	c-0.6,0.7-1.1,1.5-1.4,2.4c-0.3,0.9-0.4,1.9-0.3,2.9c2-0.8,4.1-1.5,6.1-2.3c2-0.8,4.1-1.5,6.1-2.3c-0.5-0.9-1.2-1.6-2.1-2.2
	C198.9,455.9,197.9,455.6,196.9,455.6"/>
<polygon class="st0" points="219.5,469.5 222.8,469.5 222.8,438.9 219.5,438.9 219.5,435.6 230.5,435.6 230.5,438.9 226.1,438.9 
	226.1,469.5 242.8,469.5 242.8,464.5 245.9,464.5 245.9,472.6 219.5,472.6 "/>
<path class="st0" d="M248.6,469.5h3.9v-13.4h-3.9v-3.3h7.2v16.7h3.8v3.1h-11V469.5z M251.9,445.4c0-0.6,0.2-1.2,0.7-1.6
	c0.5-0.4,1-0.7,1.6-0.7c0.6,0,1.1,0.2,1.5,0.7c0.4,0.4,0.7,1,0.7,1.6c0,0.7-0.2,1.2-0.7,1.6c-0.4,0.4-0.9,0.6-1.5,0.6
	c-0.6,0-1.1-0.2-1.6-0.6C252.2,446.6,251.9,446.1,251.9,445.4"/>
<path class="st0" d="M258,452.8h10.8v3.3h-3.1c1.1,2,2.2,4,3.2,6c1.1,2,2,4,2.8,6c0.8-2,1.7-4,2.8-6s2.1-4,3.3-6h-3.1v-3.3h10.7v3.3
	h-4.1c-1.6,3-3.2,5.9-4.7,8.9c-1.6,3-3.2,5.9-4.7,8.9c-1.6-3-3.2-5.9-4.7-8.9c-1.6-2.9-3.2-5.9-4.7-8.9H258V452.8z"/>
<path class="st0" d="M305.6,460.5l-15.4,5.9c0.6,1,1.4,1.9,2.5,2.5c1.1,0.6,2.3,0.9,3.7,0.9c1,0,1.8-0.2,2.7-0.5
	c0.8-0.3,1.5-0.8,2.1-1.4c0.3,0.4,0.6,0.8,1,1.2c0.3,0.4,0.7,0.8,1,1.2c-0.9,0.9-1.9,1.6-3.1,2.1c-1.1,0.5-2.4,0.7-3.7,0.7
	c-1.4,0-2.8-0.3-4.1-0.8c-1.3-0.5-2.4-1.3-3.3-2.2c-1-0.9-1.7-2-2.2-3.3c-0.5-1.2-0.8-2.6-0.8-4.1c0-1.4,0.3-2.7,0.8-4
	c0.5-1.3,1.3-2.4,2.2-3.3c1-0.9,2.1-1.7,3.3-2.2c1.3-0.5,2.6-0.8,4.1-0.8c1.1,0,2.1,0.2,3.1,0.6c1,0.4,1.8,1,2.6,1.7
	c0.8,0.7,1.5,1.6,2.1,2.6C304.8,458.2,305.3,459.3,305.6,460.5 M296.3,455.6c-1.1,0-2.1,0.2-3,0.6c-0.9,0.4-1.7,1-2.4,1.7
	c-0.6,0.7-1.1,1.5-1.4,2.4c-0.3,0.9-0.4,1.9-0.3,2.9c2-0.8,4.1-1.5,6.1-2.3c2-0.8,4.1-1.5,6.1-2.3c-0.5-0.9-1.2-1.6-2.1-2.2
	C298.4,455.9,297.4,455.6,296.3,455.6"/>
<path class="st0" d="M310,466.8v2.3c0.6,0.3,1.1,0.5,1.7,0.6c0.6,0.1,1.2,0.1,1.9,0.1c0.2,0,0.4,0,0.8-0.1c0.3-0.1,0.7-0.2,1-0.4
	c0.4-0.2,0.7-0.5,0.9-0.8c0.3-0.4,0.4-0.8,0.5-1.4c0-0.8-0.2-1.4-0.6-1.8c-0.4-0.4-1-0.7-1.7-1c-0.7-0.3-1.4-0.5-2.2-0.7
	c-0.8-0.2-1.5-0.5-2.2-0.9c-0.7-0.4-1.3-0.9-1.7-1.6c-0.5-0.7-0.7-1.6-0.7-2.8c0-1,0.2-1.9,0.6-2.6c0.4-0.7,0.9-1.3,1.5-1.8
	c0.6-0.5,1.2-0.8,2-1c0.7-0.2,1.4-0.3,2-0.3c0.2,0,0.6,0,1.1,0.1c0.5,0.1,1,0.2,1.5,0.3c0.5,0.1,1.1,0.3,1.6,0.6
	c0.5,0.3,1,0.6,1.4,1v4.2h-3v-2.4c-0.4-0.2-0.8-0.4-1.4-0.5c-0.5-0.1-0.9-0.1-1.2-0.1c-0.8,0-1.5,0.2-2.1,0.6
	c-0.6,0.4-0.8,1.1-0.8,1.9c0.1,0.6,0.3,1.1,0.8,1.4c0.5,0.3,1.1,0.7,1.7,0.9c0.7,0.3,1.4,0.6,2.2,0.8c0.8,0.3,1.5,0.7,2.1,1.1
	c0.7,0.5,1.2,1,1.6,1.7c0.4,0.7,0.7,1.6,0.7,2.7c0,0.5-0.1,1.1-0.3,1.9c-0.2,0.7-0.6,1.4-1.1,2c-0.5,0.6-1.2,1.2-2,1.6
	c-0.8,0.4-1.9,0.6-3.2,0.6c-0.5,0-1,0-1.6-0.1c-0.6-0.1-1.2-0.2-1.8-0.3c-0.6-0.2-1.1-0.4-1.7-0.6c-0.5-0.3-1-0.6-1.4-1v-4.2H310z"
	/>
<polygon class="st0" points="357.7,435.6 369.4,435.6 369.4,438.9 365.2,438.9 365.2,469.5 369.4,469.5 369.4,472.6 357.7,472.6 
	357.7,469.5 362,469.5 362,455.5 340.5,455.5 340.5,469.5 344.8,469.5 344.8,472.6 333.1,472.6 333.1,469.5 337.2,469.5 
	337.2,438.9 333.1,438.9 333.1,435.6 344.8,435.6 344.8,438.9 340.5,438.9 340.5,452.4 362,452.4 362,438.9 357.7,438.9 "/>
<path class="st0" d="M389.6,460.5l-15.4,5.9c0.6,1,1.4,1.9,2.5,2.5c1.1,0.6,2.3,0.9,3.7,0.9c1,0,1.8-0.2,2.7-0.5
	c0.8-0.3,1.5-0.8,2.1-1.4c0.3,0.4,0.6,0.8,1,1.2c0.3,0.4,0.7,0.8,1,1.2c-0.9,0.9-1.9,1.6-3.1,2.1c-1.1,0.5-2.4,0.7-3.7,0.7
	c-1.5,0-2.8-0.3-4.1-0.8c-1.3-0.5-2.4-1.3-3.3-2.2c-1-0.9-1.7-2-2.3-3.3c-0.6-1.2-0.8-2.6-0.8-4.1c0-1.4,0.3-2.7,0.8-4
	c0.5-1.3,1.3-2.4,2.3-3.3c0.9-0.9,2.1-1.7,3.3-2.2c1.3-0.5,2.6-0.8,4.1-0.8c1.1,0,2.1,0.2,3.1,0.6c1,0.4,1.9,1,2.6,1.7
	c0.8,0.7,1.5,1.6,2.1,2.6C388.8,458.2,389.3,459.3,389.6,460.5 M380.3,455.6c-1.1,0-2.1,0.2-3,0.6c-0.9,0.4-1.7,1-2.4,1.7
	c-0.6,0.7-1.1,1.5-1.4,2.4c-0.3,0.9-0.4,1.9-0.3,2.9c2-0.8,4.1-1.5,6.1-2.3c2-0.8,4.1-1.5,6.1-2.3c-0.5-0.9-1.2-1.6-2.1-2.2
	C382.4,455.9,381.4,455.6,380.3,455.6"/>
<path class="st0" d="M390.3,469.5h4.1v-13.4h-3.7v-3.3h6.5l0.1,1.2c0,0.7,0.1,1.4,0.1,2c0,0.6,0.1,1.2,0.1,2c0.4-0.9,1-1.7,1.6-2.4
	c0.6-0.7,1.3-1.3,2-1.7c0.7-0.5,1.5-0.8,2.2-1.1c0.8-0.3,1.5-0.4,2.1-0.4l-0.2,3.3c-1.1,0-2.1,0.2-3,0.5c-0.9,0.3-1.7,0.8-2.4,1.4
	c-0.7,0.6-1.2,1.3-1.6,2.1c-0.4,0.8-0.6,1.7-0.6,2.7v7.1h3.7v3.1h-11V469.5z"/>
<path class="st0" d="M425.7,460.5l-15.4,5.9c0.6,1,1.4,1.9,2.5,2.5c1.1,0.6,2.3,0.9,3.7,0.9c0.9,0,1.8-0.2,2.7-0.5
	c0.8-0.3,1.5-0.8,2.1-1.4c0.3,0.4,0.6,0.8,1,1.2c0.3,0.4,0.7,0.8,1,1.2c-0.9,0.9-2,1.6-3.1,2.1c-1.1,0.5-2.4,0.7-3.7,0.7
	c-1.5,0-2.8-0.3-4.1-0.8c-1.3-0.5-2.4-1.3-3.3-2.2c-1-0.9-1.7-2-2.3-3.3c-0.5-1.2-0.8-2.6-0.8-4.1c0-1.4,0.3-2.7,0.8-4
	c0.5-1.3,1.3-2.4,2.3-3.3c1-0.9,2.1-1.7,3.3-2.2c1.3-0.5,2.6-0.8,4.1-0.8c1.1,0,2.1,0.2,3.1,0.6c1,0.4,1.9,1,2.6,1.7
	c0.8,0.7,1.5,1.6,2.1,2.6C424.9,458.2,425.4,459.3,425.7,460.5 M416.5,455.6c-1.1,0-2.1,0.2-3,0.6c-0.9,0.4-1.7,1-2.3,1.7
	c-0.6,0.7-1.1,1.5-1.4,2.4c-0.3,0.9-0.4,1.9-0.3,2.9c2-0.8,4.1-1.5,6.1-2.3c2-0.8,4.1-1.5,6.1-2.3c-0.5-0.9-1.2-1.6-2.1-2.2
	C418.5,455.9,417.5,455.6,416.5,455.6"/>
<path class="st0" d="M0,407.4h3.4v-41.1H0v-6h15.9c1.7,0,3.6,0.3,5.7,0.8c2.1,0.5,4.1,1.4,5.9,2.5c1.8,1.2,3.3,2.6,4.5,4.5
	c1.2,1.8,1.8,4,1.8,6.6c0,4.6-1.4,8.3-4.1,11c-2.7,2.7-6.7,4.1-11.8,4.1H9.7v17.7h8.6v6H0V407.4z M9.7,383.6h6.6
	c2.2,0,4.1-0.3,5.5-0.9c1.4-0.6,2.6-1.3,3.5-2.2c0.9-0.9,1.5-1.8,1.8-2.9c0.4-1.1,0.5-2.1,0.5-3c0-1.1-0.3-2.2-0.9-3.2
	c-0.6-1-1.4-1.9-2.4-2.7c-1-0.8-2.2-1.4-3.6-1.9c-1.4-0.4-2.9-0.7-4.4-0.7H9.7V383.6z"/>
<polygon class="st0" points="51.4,407.4 57.3,407.4 57.3,366.3 51.4,366.3 51.4,360.3 69.7,360.3 69.7,366.3 63.6,366.3 63.6,407.4 
	69.7,407.4 69.7,413.4 51.4,413.4 "/>
<polygon class="st0" points="87.2,407.4 93.7,407.4 93.7,366.3 87.2,366.3 87.2,360.3 96,360.3 132.6,400 134,402 133.8,399.5 
	133.8,366.3 128.3,366.3 128.3,360.3 146.7,360.3 146.7,366.3 140.1,366.3 140.1,415.8 101.3,374.6 99.8,372.6 100,375 100,407.4 
	105.5,407.4 105.5,413.4 87.2,413.4 "/>
<polygon class="st0" points="164.1,407.4 168.4,407.4 168.4,366.3 164.1,366.3 164.1,360.3 201.1,360.3 201.1,372 195.1,372 
	195.1,366.3 174.7,366.3 174.7,383.7 198.1,383.7 198.1,389.7 174.7,389.7 174.7,407.4 196.1,407.4 196.1,401.7 202.1,401.7 
	202.1,413.4 164.1,413.4 "/>
<polygon class="st0" points="254.5,360.3 272.8,360.3 272.8,366.3 266.8,366.3 266.8,407.4 272.8,407.4 272.8,413.4 254.5,413.4 
	254.5,407.4 260.5,407.4 260.5,389.7 231.9,389.7 231.9,407.4 237.9,407.4 237.9,413.4 219.6,413.4 219.6,407.4 225.6,407.4 
	225.6,366.3 219.6,366.3 219.6,360.3 237.9,360.3 237.9,366.3 231.9,366.3 231.9,383.7 260.5,383.7 260.5,366.3 254.5,366.3 "/>
<path class="st0" d="M290.3,360.3h18.3v6h-6.2V396c0,1.9,0.3,3.6,1,5.1c0.6,1.5,1.5,2.7,2.7,3.8c1.1,1,2.5,1.8,4.1,2.3
	c1.6,0.5,3.3,0.8,5.2,0.8c1.9,0,3.6-0.3,5.2-0.8c1.6-0.5,2.9-1.3,4.1-2.3c1.1-1,2-2.3,2.7-3.8c0.7-1.5,1-3.2,1-5.1v-29.7h-6.2v-6
	h18.4v6h-5.8v30c0,2.9-0.5,5.4-1.5,7.7c-1,2.2-2.3,4.1-4.1,5.6c-1.7,1.5-3.7,2.6-6.1,3.4c-2.3,0.8-4.9,1.1-7.6,1.1
	c-2.7,0-5.3-0.4-7.6-1.1c-2.3-0.8-4.4-1.9-6.1-3.4c-1.7-1.5-3.1-3.3-4-5.6c-1-2.2-1.4-4.8-1.4-7.7v-30h-5.8V360.3z"/>
<path class="st0" d="M357.7,407.4h3.4v-41.1h-3.4v-6h15.9c1.7,0,3.6,0.3,5.7,0.8c2.1,0.5,4.1,1.4,5.9,2.5c1.8,1.2,3.3,2.6,4.6,4.5
	c1.2,1.8,1.8,4,1.8,6.6c0,3.8-0.9,7-2.8,9.5c-1.9,2.5-4.7,4.2-8.3,5l8.5,18.1h7.1v6H385l-11.2-23.7h-3.3h-3.2v17.7h8.6v6h-18.4
	V407.4z M367.4,383.6h6.6c2.2,0,4.1-0.3,5.5-0.9c1.4-0.6,2.6-1.3,3.4-2.2c0.9-0.9,1.5-1.8,1.8-2.9c0.4-1.1,0.5-2.1,0.5-3
	c0-1.1-0.3-2.2-0.9-3.2c-0.6-1-1.4-1.9-2.4-2.7c-1-0.8-2.2-1.4-3.6-1.9c-1.4-0.4-2.9-0.7-4.4-0.7h-6.7V383.6z"/>
<path class="st0" d="M412.5,406.4v-8.8h6v6.7c1.3,1,2.9,1.9,4.7,2.6c1.8,0.7,3.9,1.1,6.1,1.1c1.3,0,2.6-0.2,3.8-0.6
	c1.2-0.4,2.3-0.9,3.2-1.7c0.9-0.7,1.7-1.7,2.2-2.8c0.6-1.1,0.8-2.4,0.8-3.9c0-2.6-0.6-4.6-1.8-6.1c-1.2-1.4-2.7-2.5-4.5-3.3
	c-1.8-0.8-3.8-1.4-5.9-2c-2.1-0.6-4.1-1.3-6-2.3c-1.9-1-3.4-2.3-4.6-4c-1.2-1.7-1.9-4.1-1.9-7.3c-0.1-1.7,0.2-3.3,0.7-5
	c0.5-1.7,1.3-3.2,2.5-4.5c1.2-1.4,2.7-2.5,4.6-3.3c1.9-0.9,4.3-1.3,7.1-1.3c0.9,0,1.9,0,3,0.1c1.1,0.1,2.2,0.3,3.3,0.6
	c1.2,0.3,2.4,0.8,3.6,1.4c1.2,0.6,2.5,1.4,3.7,2.4v7.4h-6v-4.5c-1-0.4-2.1-0.8-3.3-1.1c-1.3-0.3-2.7-0.5-4.2-0.5
	c-2.9,0-5.1,0.8-6.5,2.5c-1.4,1.7-2.1,3.6-2.1,5.9c0,1.5,0.4,2.7,1.1,3.7c0.7,0.9,1.6,1.7,2.8,2.3c1.2,0.6,2.5,1.2,4,1.6
	c1.5,0.5,3,1,4.5,1.5c1.5,0.5,3.1,1.2,4.5,1.9c1.5,0.7,2.8,1.7,4,2.9c1.2,1.2,2.1,2.7,2.8,4.4c0.7,1.8,1.1,3.9,1.1,6.5
	c0,2.3-0.4,4.3-1.2,6.1c-0.8,1.8-2,3.4-3.4,4.7c-1.4,1.3-3.1,2.3-5,3c-1.9,0.7-3.9,1-6.1,1c-1.9,0-3.8-0.2-5.6-0.6
	c-1.8-0.4-3.5-1-5-1.7c-1.5-0.7-2.9-1.5-4.1-2.4C414.1,408.3,413.1,407.4,412.5,406.4"/>
<polygon class="st0" points="473.3,407.4 479.8,407.4 479.8,366.3 467.9,366.3 467.9,372 461.9,372 461.9,360.3 503.9,360.3 
	503.9,372 497.9,372 497.9,366.3 486.1,366.3 486.1,407.4 491.7,407.4 491.7,413.4 473.3,413.4 "/>
<path class="st0" d="M263.3,33.3c-1.1-1.7-3.3-2.7-5.5-1.6c-0.9,0.5-1.9,0.8-2.8,1.2l-0.1,0c1.7-1.3,3.3-2.6,5-3.9
	c1.1-0.8,1.6-2,1.7-3.2c0.9-1,1.8-2.1,2.4-3.3c0.9-1.6-0.6-3.3-2.2-2.9c-2.3,0.5-4.7,1-6.9,1.7c-0.8,0.3-1.2,0.9-1.3,1.6l-0.8,0.3
	c0.8-3.1,1.1-6.5,0.8-10.7c0.1-2.1,0-4.1-0.2-6.2c-0.2-2-1-3-1.5-4.9c-0.6-2.2-3.9-1.7-3.9,0.5v3.2c0,0.4,0.1,0.7,0.2,0.9
	c0,0.5-0.1,1-0.1,1.5c-1.6,0.4-2.8,1.6-2.7,3.8c1.6,6.8-0.4,12.8-5.9,18.2c-1.2,1.2-1.3,2.7-0.9,3.9
	c-76.5,6.8-136.7,71.2-136.7,149.4c0,39.4,15.1,76.6,42.6,104.8l1.7,1.7h47L302.7,211l70.8,60l3.5-5.3c16.3-24.7,25-53.3,25-82.9
	C402,104,340.7,39.1,263.3,33.3 M197.7,199.5c-2-0.1-3.4-0.2-2.8-0.4c0.4-0.1,0.6-0.4,0.6-0.8h0.3c1.9-0.3,3.5-0.8,5.1-1.8
	C199.8,197.6,198.8,198.5,197.7,199.5 M202.5,195c0-0.6-0.4-1.2-1-1.1c-0.9,0.1-1.8,0.3-2.6,0.5c0.9-0.6,1.8-1.3,2.7-2
	c1.2-0.9,1.1-2.2,0.4-3l0.2-0.7c0.7-0.5,1.4-1,2.1-1.5c1.1-0.8,1.1-2.1,0.5-2.9c0.8-0.8,1.5-1.7,2.2-2.7c1.1,0.6,2.5,0.8,3.8,0.1
	c3.1-1.7,6.4-3.2,9.8-4.7C214.5,183,208.6,189.2,202.5,195 M235,122.2c-8.3,1.7-11.2,3.1-19,6.5c-2.2,0.9-2.5,3-1.7,4.7l-0.8,0.3
	c-1.1,0.7-2.3,1.3-3.5,1.8c-2.3,0.9-1.5,4.4,1.1,3.8c0.8-0.2,1.6-0.4,2.3-0.6c0.2,1.1,1,2,2.4,1.6c3.1-1,15.8-3.4,21.7-4.1
	c-10.1,3.3-19.9,7-28.4,13.5c-3.3,2.5-1.5,9.3,3.1,7.4c3.4-1.3,6.6-2.6,9.9-3.7c-0.5,0.5-0.9,1-1.1,1.5c-0.4-0.1-0.9-0.1-1.4,0.1
	c-1.8,0.8-3.4,1.9-4.9,3.3c-0.7,0.7-0.6,1.9-0.1,2.7c-1.1,1.7,1.3,3.8,3.1,2.4c1.5-1.2,6.2-2.8,7.1-2.8c-6.6,4.7-13,9.7-19.2,14.9
	c-1.1,0.9-1.3,2-1.2,3.1c-2.6,0.6-4.9,1.8-7,3.3c-0.7,0-1.4,0.1-2.1,0.1l0.2-0.2c0.7-0.8,0.9-1.1,1.2-2.2c0.1-0.3,0.1-0.6,0.2-1
	l0.9-0.7l0.3-0.8c0.9-0.6,1.8-1.2,2.7-1.9c0.7-0.6,0.1-1.7-0.7-1.7c-1.9,0-3.7,0.3-5.5,0.5l0,0c-0.5-0.3-1.1-0.5-1.7-0.6l0-0.9
	c1.7-1.2,3.4-2.2,5.1-3.4c0.3-0.2,0.4-0.5,0.4-0.9c0.6-0.5,1.2-1.1,1.8-1.6c1.5-1.4-0.1-3.7-1.9-3.3c-1.2,0.3-2.3,0.7-3.4,1.2
	c-0.4-0.4-0.8-0.7-1.4-0.8c-0.1-0.5-0.5-0.9-1.1-0.6l-0.3,0.1l-0.5,0.1c-0.8,0.4-1.5,0.7-2.2,1.1l0-0.6c0.4-0.3,0.8-0.7,1.1-1.1
	c0.5-0.3,1-0.7,1.6-1c0.7-0.4,0.6-1.2,0.1-1.6c0.8-1.1,1.6-2.2,2.4-3.3l0.8-0.5c1-0.9,2-1.7,3-2.6c0.8-0.8,0.7-1.7,0.3-2.4
	c1.8-0.9,0.8-4.1-1.5-3.6c-1.3,0.3-2.7,0.6-4,0.9c0.6-0.7,1.3-1.5,2-2.2c0.3-0.3,0.4-0.6,0.5-1l0.9-0.6c1-0.8,1.6-2,0.8-3.2
	c-0.6-1.1-2.1-1.5-3.2-0.9c-0.4,0.3-0.8,0.5-1.2,0.8l0-0.1c-0.4-0.7-0.8-1.4-1.3-2.1c0.8-1,1.6-2.1,2.5-3.1c1.4-1.6-0.4-4.3-2.4-3.1
	c-0.4,0.2-0.7,0.4-1,0.7c0.6-0.8,0.6-1.9,0.1-2.7l0.2-0.5l0.8-0.3c0.4-0.2,0.7-0.4,1-0.6c0.9-0.6-2.1-1.7-2.5-2.6
	c0.3-0.7,0.6-1.4,0.9-2.1c0.6-1.3-0.3-3.4-1.9-3c-0.7-2.4-1.6-4.6-2.1-6.9c1.3-3.1,1.9-6.3,1.3-10.5c-0.3-1.8-2.8-1.9-3.6-0.5
	c-2.2,3.9-2.3,7.2-1.6,10.5c-1.4,2.7-3.4,5.1-5.3,7.7c-1.4,1.8,1.6,4,3.1,2.4c0.3-0.4,0.7-0.7,1-1c-1,3-1.5,6.1-1.7,9.2
	c-0.8,0.8-1.6,1.6-2.4,2.5c-1.2,1.3-0.2,3.4,1.4,3.4c-0.2,0.4-0.4,0.8-0.6,1.2c-2.1,1.5-4.3,3.1-6.3,4.7h0v0l-0.4,0.3
	c-1.4,1.1-0.4,2.8,0.9,3.2c-1.3,0.7-2.6,1.4-3.8,2.1c-2.3,1.3-0.3,4.4,2,3.4c1.2-0.5,2.4-1.1,3.6-1.7c0.3,0.6,0.8,1,1.7,1l0.8-0.1
	c-1.1,1.1-2.3,2.2-3.5,3.3c-0.8,0.5-1.6,1.1-2.5,1.6c-2,1.2-1.2,3.5,0.4,4.2c-1.5,1-3,2.1-4.4,3.3c-1.1,1-0.8,2.3,0,3.2
	c-0.5,0.8,0.3,1.9,1.3,1.4c2.5-1.2,5-2.4,7.6-3.4c-1,1.1-2.1,2.1-3.1,3.2l-0.2,0.6c-0.4,0.3-0.8,0.5-1.2,0.8
	c-1.4,1.1-0.8,2.8,0.5,3.5l-0.7,0.3c-1.9,0.6-3.8,1.1-5.7,1.7c-0.5,0.2-0.7,0.6-0.7,1l-0.6,0.2c-1.9,0.7-2,3-1,4.1
	c-0.3,0.7,0.5,1.7,1.4,1.3c0.9-0.4,1.9-0.8,2.8-1.1c1.6-0.6,3.4-1.1,4.9-0.9l0,0.3c-0.5,0.7-1.1,1.4-1.6,2.2c-1,0.2-1.8,0.3-2.4,0.4
	c-1.1,0.2-1.5,1-1.4,1.9l-0.6,0c-1.6,0.5-3.1,1.2-4.6,2l-0.4,0.4c-1,0.3-1.9,0.6-2.8,1.1c-0.9,0.4-0.4,1.9,0.5,1.9
	c0.8,0,1.7,0,2.5-0.1c0,0.5,0.3,0.9,0.9,0.8c1.8-0.2,3.6-0.5,5.3-0.7c0.5,0.4,1.1,0.6,1.8,0.5c0.6-0.1,1.1-0.2,1.6-0.3l0.4,0.3
	c-0.4,0.3-0.7,0.6-1.1,0.9c-0.4,0.1-0.8,0.3-1.2,0.4c-3.3,1.4-6.3,3.3-9.4,5l-0.4,0.4l-0.5,0.2c-0.9,0.4-0.5,1.9,0.5,1.9l0.8,0
	c0,0.6,0.7,1,1.2,0.9c1.2-0.2,2.4-0.5,3.7-0.8c-0.9,0.5-1.8,1-2.7,1.6c-0.5-0.1-0.9-0.1-1.4-0.2c-1.7-0.4-2.7,1.3-2.4,2.6
	c-2.8,2-5.1,4.5-5.1,8c-1,0.2-2,0.4-3,0.7c-1.3,0.3-1.8,1.4-1.7,2.5c-0.1,0.7,0.2,1.4,0.6,1.9c-0.1,0.6,0.4,1.2,1.2,1.1
	c1.7-0.4,3.4-0.8,5-1.4c4.1-1,8.2-1.9,12.3-3.1l0.4,0.1l-0.5,0.7c-0.5,0.1-1,0.3-1.5,0.4l-0.8,0.2c-0.8,0.3-1.6,0.5-2.4,0.8
	c-1.1,0.4-1.6,1.7-1.3,2.7l-0.6,0.6l-0.7,0.5c-1,0.5-4.7,2.1-5.7,2.7c-2.5,0.7-4.8,1.6-7,3.2c-2.4,1.7-0.2,5.7,2.2,4.2h0.1l0.7-0.1
	l0.9-0.1l0.5-0.3c0.5-0.2,0.9-0.4,1.3-0.7l0.5,0l0.2-0.1l0.1,0.2c-0.2,0.6,0.2,1.3,0.9,1.4c0.3,0.3,0.7,0.5,1.2,0.5
	c0.3,0.2,0.7,0.3,1.2,0.3l0.3-0.1l3.4-1c0.6-0.1,1.1-0.3,1.7-0.4c-0.2,1.2-0.3,2.3-0.2,3.6c-1.5,1.3-12.4,7.1-14.7,8.6
	c-1,0.7-1.1,1.9-0.6,2.7l-0.6,0.7c-0.9,1.4,0.6,3.5,2.2,2.9l0.2-0.1c-0.2,2.4,0,4.6,2.8,4.9c0.8,0.3,1.8,0.3,2.6-0.4
	c0.8-0.7,2.7-1.4,3.5-2c1-0.2,4.3-0.4,5.3-0.8l0.5-0.4c0.5-0.2,1.1-0.4,1.6-0.6c-0.3,0.3-0.3,0.7-0.2,1.1c-1.9,1.8-3.8,3.7-5.7,5.6
	c-2.1,1.3-9.9,3.1-11.6,4.9c-0.3,0.4-0.3,0.8-0.2,1.1c-0.7,0.6-1.4,1.1-2.1,1.7c-2.8,0.3-2.8,4.7,0.2,4.7c0.8,0,1.6-0.1,2.4-0.1
	l0.4,0l0.3-0.1c0.5-0.1,1-0.1,1.5-0.2c0.2,0.3,0.6,0.5,1,0.4c0.8-0.3,7.2-0.9,8-1.2l0.5,0l5.1-1.5c0,0-0.9,0.5-2.2,1.1
	c-4.6,2.1-10.2,4.2-13.7,7.9c-0.5,0.5-0.3,1.5,0.4,1.7c0.9,0.2,1.9,0.2,2.8,0.2c0.5,0.4,1.2,0.6,2,0.3l0.1,0c0.1,0.6,0.5,1.1,1,1.4
	l0,0.3H151c-24.4-25.9-37.8-59.6-37.8-95.2c0-69.7,51.7-127.6,118.8-137.3c0.7,1.8,2.5,3.1,4.7,2.4c1.2-0.4,2.4-0.8,3.6-1.2
	c-4.1,3.2-8.4,6.3-12.8,9.2c-3.4,2.3-1.7,6.8,1.4,7.4c-0.7,0.6-1.5,1.2-2.2,1.8c-2.8,2.6,0.1,8.3,3.9,6.8
	c9.2-3.8,18.5-8.2,28.3-10.2c-13.5,6.2-26.9,11.4-35.9,25.5c-1.7,2.6,0.2,5.3,2.7,5.9c-1.2,1.1-2.2,2.2-3.2,3.5l0,0
	c-1.8,0.8-3.6,1.6-5.5,2.5c-1.9,0.9-0.8,3.7,1.1,3.7c-0.8,1.2-1.6,2.5-2.4,3.8c-2.5,3.7,2.2,7,5.5,5.5c0.4-0.2,0.9-0.4,1.4-0.6
	l0.7,0c1.5-0.4,3-0.9,4.5-1.4c-0.4,0.9,0.1,1.8,0.9,2.3l-0.2,0.3c-0.6,1.1-0.1,2.6,1.2,2.9c2.4,0.5,4.8,0.7,7.1,0.7
	c0.4,0.5,1.1,0.8,1.9,0.5l0.3-0.1c-0.7,0.4-1.4,0.8-2.1,1.2C235.2,119,234.8,120.7,235,122.2 M270.3,187.5l-16.4,17.2
	c0,0,0,1.6,0,3.8c0,0.7,0,1.4,0,2.1c0,0.4,0,0.8,0,1.1c0,0.7,0,1.5,0,2.2v0c0,0.7,0,1.3,0,1.8c0,0.8,0,1.4,0.1,1.6l0,0.1l0,0.4
	l0,0.4l0.1,0.5l0,0.5l0.1,0.9l0.1,0.5c0.1,0.5,0.1,1.1,0.2,1.7l0,0.1c0.1,0.6,0.1,1.3,0.2,1.9l0,0.4c0.1,0.5,0.1,1.1,0.1,1.6l0,0.6
	c0.1,0.7,0.1,1.3,0.2,2l0,0.1c0.1,0.7,0.1,1.5,0.2,2.2l0,0c0.3,3.3,0.4,6.1,0.3,6.6c-0.1,0.4-0.1,3.2-0.1,7.1l-7.2,5.2
	c0.1-1.2,0.2-2.3,0.1-3c-0.3-2,0-6.7,0.2-11c0-0.7,0.1-1.5,0.1-2.2c0-0.3,0-0.6,0-0.9c0-0.5,0-1,0-1.4c0-0.4,0-0.8,0-1.2l0-0.9
	c0-0.6-0.1-1.1-0.2-1.5c-0.1-0.3-0.1-0.7-0.1-1.2c-0.3-5.8,2.1-26.4,3-27.9c0.1-0.2,0.2-0.6,0.2-1.2l0-0.1c0-0.4,0-1-0.1-1.5
	c-0.1-0.7-0.1-1.5-0.3-2.4c-0.7-5-2.2-11.8-2.8-12.4c-1-0.8,0-14.1,0-16.3v-8.2l-1.2-4.1l-3.1-10.9v0v0c0,0,1.4,2.3,2.9,4.1
	c1.1,1.4,2.2,2.6,2.7,2.2c0.3-0.3,0.4-1.7,0.4-3.4v0c0-0.6,0-1.3,0-2c0-1-0.1-2-0.1-3c-0.1-1.2-0.1-2.3-0.2-3.1
	c-0.1-1-0.1-1.8-0.1-2v0c0-0.4,0.3-3.2,0.7-6.2c0.1-0.5,0.1-1.1,0.2-1.6c0.2-1.4,0.3-2.8,0.5-3.9c0.2-1.5,0.3-2.5,0.3-2.5l0-41.6v0
	v0l1.2,16.6l1.6,23.4v0l-1,7.4l-1.4,9.8c0,0,0.4,5.6,0.7,11.1c0.2,3,0.3,6,0.3,8c0,0.8,0,1.4-0.1,1.8c-0.3,3-1.3,13.8-1.3,13.8
	c0,0,4.2,25.4,4.4,27.1l0,0.1c0,0.2,0.4,0.1,1.1-0.3C260.1,195.4,270.3,187.5,270.3,187.5L270.3,187.5L270.3,187.5z M284.9,172.4
	l-0.9,0.3l0.5-0.3L284.9,172.4L284.9,172.4 M304.2,162.3L304.2,162.3L304.2,162.3L304.2,162.3 M371,254.1l-25.3-21.5
	c1-0.2,1.5-0.9,1.6-1.6c0.9-0.1,1.7-0.2,2.6-0.3c1.3-0.2,2.1-1.6,1.9-2.7c1.3-0.3,2.6-0.6,3.8-0.9c2.3-0.6,1.6-3.7-0.5-3.9
	c-4-0.3-7.9-0.1-11.9,0.2c2.1-0.9,4.2-2,6.3-2.9c0.4-0.2,0.6-0.5,0.8-0.8c2.3-0.6,4.7-1.3,6.9-2c2.1-0.7,1.7-3.8-0.5-3.9
	c-1.3-0.1-2.6,0-3.8,0c2-0.5,4.1-1,6.1-1.6c2.5-0.7,1.4-4.4-1.1-3.8c-0.6,0.1-1.1,0.3-1.7,0.4c1-1.3,0-3.7-2-3.1
	c-3.3,1-6.6,1.8-10,2.5l-0.3-0.3c-0.3-0.5-0.8-0.8-1.5-0.7l-0.2,0c-0.7-0.2-1.4-0.2-2.2-0.2l0.1-0.1l0.3-0.3l0.9-0.3
	c1.7-0.4,3.5-0.9,5.3-1.5c2-0.6,1.6-3.4,0-3.8c4.6-1.4,9.1-2.8,13.4-5c2.1-1.1,0.6-4.1-1.5-3.6c-1.9,0.4-3.7,0.9-5.6,1.3
	c-0.1-1.1-1-2-2.4-1.6c-1.9,0.6-3.7,1.1-5.6,1.6c0.5-1.4-0.7-3.2-2.3-2.6c-0.6,0.2-1.1,0.4-1.7,0.6c-0.3-0.4-0.7-0.6-1.1-0.7
	c-0.1-0.4-0.3-0.7-0.5-1c2.6-1.8,5.2-3.6,7.8-5.4c1.8-1.2,0.7-4.2-1.5-3.6c-0.8,0.2-1.7,0.5-2.5,0.8c0.9-0.7,0.9-2,0.4-2.8l0.2-0.1
	c1.2-0.4,1.6-1.7,1.2-2.6c1-0.5,1.9-1.1,2.7-1.8l0.6-0.8c2-1.1,3.9-2.4,5.7-4c1.3-1.1,0.3-3.5-1.4-3.4c-0.6,0-1.2,0.1-1.7,0.1
	c-0.3-0.5-0.8-0.9-1.6-0.8c-3,0.4-6,0.8-8.9,1.4c-0.3,0-0.7,0-1,0.2l0,0c-4.1,0.9-8.2,2-12.2,3.4l0.9-0.9l0,0
	c2.4-1.2,4.7-2.5,7.2-3.5c0.8-0.3,1.2-1.1,1.3-1.8c1.2-0.6,2.3-1.3,3.5-2c1.4-0.9,1.1-2.9-0.2-3.5c1.3-1.2,2.7-2.4,4-3.6
	c1.7-1.4-0.2-3.6-1.9-3.3c-1.1,0.2-2.3,0.4-3.4,0.5l-0.3-0.1c-1.9-0.3-3.8-0.4-5.7-0.4c0.6-1.3-0.5-3.2-2.3-2.8
	c-0.5,0.1-1.1,0.2-1.6,0.3l0.1-0.5c1.9-0.7,3.8-1.5,5.6-2.6c2-1.2,0.6-4-1.5-3.6c-0.5,0.1-1.1,0.2-1.6,0.3c-0.4-0.7-1.2-1.1-2.1-0.8
	c-1.9,0.6-3.8,1.2-5.6,1.8c4.8-2.1,9.6-4.5,14.3-6.9c2.3-1.2,0.3-4.4-2-3.4c-1.6,0.7-3.2,1.3-4.8,2l-0.4,0c0.4-0.3,0.8-0.7,1.1-1.1
	c1.4-1.4,0.2-3.2-1.4-3.3c1-0.7,2-1.3,3-2.1c1.7-1.3,0.8-4.3-1.5-3.6c-1.4,0.4-2.9,0.7-4.3,1c-0.4-0.5-1-0.8-1.6-0.9l-0.6,0
	c2.7-2.3,5.1-4.9,7.3-7.9c0.9-1.2-0.3-3.1-1.7-3c-2.7,0.2-5.4,0.9-8,1l-0.6-0.8c0.9-0.6,1.8-1.3,2.6-2.1l0.4-0.6
	c0.4-0.5,0.8-1,1.2-1.5c2.2-1.3,1.9-1.1,4.1-3.7c1.3-1.5,0.1-3.8-1.9-3.3c-1.2,0.3-2.4,0.6-3.6,1c0.5-1.1-0.2-2.2-1.2-2.6
	c0.4-0.6,0.8-1.1,1.2-1.7c0.6-0.9,0.2-1.9-0.5-2.5c0.4-1.1,0.7-2.3,0.9-3.5c0.2-0.9-0.3-1.8-0.9-2.2c0.2-1-0.5-1.8-1.4-2.1
	c0.6-1.8,1.2-3.7,1.8-5.6c0.9-2.4-3-3.5-3.8-1.1c-1.2,3.4-1.8,7.5-4.4,10.3c-1.2,1.3-0.3,3.1,1.1,3.4l0,0.2c0.4,1.8-0.9,3.6-1.8,5.1
	c-0.6,1-0.2,1.9,0.5,2.5l-0.2,0.4l-0.7,0.7c-1,0.6-2,1.3-2.9,2c-2.1,1.5-0.2,4.7,2,3.4l0.6-0.4l0.2,0.2c-2.2,1.5-4.4,2.9-6.8,4.2
	c-2,1.1-0.6,4.1,1.5,3.6c2.3-0.5,4.5-1,6.6-1.6c0.1,0.4,0.4,0.8,0.7,1c-0.4,0.6-0.7,1.2-1.1,1.8c-1.3,0.8-2.6,1.2-4.1,1.6
	c-1.2,0.3-1.6,1.3-1.4,2.2c-0.6,0.3-1.2,0.6-1.8,0.9c-1,0.5-1.2,1.6-0.8,2.4c-1.1,0.8-2.2,1.6-3.3,2.5c-1.3,1.1-0.3,3.5,1.4,3.4
	c1,0,2-0.2,3-0.3c-1.2,0.5-1.5,1.9-0.9,2.9c-0.9,0.6-1.8,1.2-2.7,1.7c-2.1,0.7-4.3,1.5-6.4,2.2c-2.4,0.9-1.5,4.4,1.1,3.8
	c2.5-0.5,4.8-1.3,6.9-2.4c1-0.3,2-0.7,3-1c-1.2,0.6-2.4,1.2-3.7,1.8c-1,0.5-1.2,1.6-0.8,2.5c-2.9,1.5-5.9,2.7-8.7,4.5
	c-1.9,1.2-0.7,4.2,1.5,3.6c3.5-0.9,6.9-1.9,10.3-3c-0.1,0.3-0.1,0.7,0,1c-1.1,0.4-2.3,0.7-3.5,1c-1,0.3-1.4,1-1.4,1.8
	c-0.4,0.1-0.7,0.2-1.1,0.4l-0.3,0c-0.5,0-0.9,0.2-1.2,0.5c-1.9,0.7-3.7,1.5-5.5,2.4c-0.5,0.3-0.7,0.6-0.9,1.1
	c-1.5-3.1-5.6-6-13.6-5.3c-0.1-0.1,7.7-7.8,10.2-9.5c2.1-1.5,0.3-4.6-2-3.4c-0.7,0.3-1.3,0.7-2,1c-0.2-0.7-0.5-1.3-0.9-1.8
	c0.4-0.3,0.9-0.6,1.3-1c3.1-2.5-0.2-8.3-3.9-6.8c-2.2,0.9-4.7,1.7-7.4,2.5c-0.4-0.8-1.1-1.4-2-1.7c1.1-0.3,2.2-0.6,3.2-0.9
	c0.3,0.1,0.7,0.1,1,0.1c2.3-0.4,4.3-1.3,6.2-2.7c1.8-1.3,0.8-4.2-1.5-3.6c-0.8,0.2-1.6,0.4-2.4,0.6c0-0.3,0-0.7,0-1
	c4-1.6,8.1-3.3,11.8-5.1c4.3-2.1,1.2-8.4-3.1-7.4c-1.4,0.4-2.9,0.7-4.4,1l0,0c-0.3-0.8-1-1.5-1.9-1.5c-3.9,0.3-7.9,0.7-11.8,1.3
	c3.2-1.3,6.3-2.9,9.3-5c3.1-2.2,2.3-7.7-2-7.6c-1.5,0.1-3.1,0.2-4.6,0.4c2.8-1.4,5.5-3.1,8-5.3c2.4-0.8,4.8-2.3,6.5-4
	c1.3-1.2,0.2-3.4-1.4-3.4l-0.7-0.4c-0.6-0.2-1.2-0.4-1.8-0.5c-0.7-0.6-1.6-1.1-2.7-1.3c-5.4-0.7-11.1-0.3-16.9,0.8
	c0.4-0.2,0.8-0.4,1.1-0.6c3.7-1.2,7.3-2.5,10.8-3.9c1.8-0.7,2.6-2.3,2.7-3.8c1.4,0,2.7,0,4.1-0.2c1.6-0.2,2.7-2.1,1.4-3.4
	c-0.6-0.5-1.3-0.8-2.2-1c1-0.9,1.1-2.4-0.2-3.3c-1.2-0.8-2.5-1.2-3.9-1.4c-0.7-0.3-1.5-0.4-2.2-0.2l-0.4,0.1c-2.5,0.1-5.1,0.6-7.5,1
	c-4.5,0.7-9,1-13.3,1.7c7.5-3.3,15.2-6.3,22.3-10.9c2.6-1.7,2.8-6.9-1-7.4c-4.8-0.7-9.3-0.7-13.8-0.2c2.9-1.5,5.8-3.1,8.7-5.1
	c0.9-0.6,1.4-1.4,1.7-2.2c66.1,10.6,116.8,68,116.8,137C390.7,208.1,383.9,232.6,371,254.1"/>
<path class="st0" d="M302.7,225.1L194,302.8h-39.4c4.1,4,8.3,8,12.5,11.3h30.5l104.5-74.7l60,50.7l7.3-8.6L302.7,225.1z"/>
<polygon class="st0" points="64.3,469.5 68.7,469.5 68.7,438.9 64.3,438.9 64.3,435.6 70.2,435.6 96.9,465.6 97.9,467 97.8,465.3 
	97.8,438.9 93.9,438.9 93.9,435.6 105.6,435.6 105.6,438.9 101.1,438.9 101.1,474.3 72.8,443 71.9,441.7 72,443.4 72,469.5 
	76,469.5 76,472.6 64.3,472.6 "/>
</svg>
