<?xml version="1.0" encoding="utf-8"?>
<!-- Generator: Adobe Illustrator 22.1.0, SVG Export Plug-In . SVG Version: 6.00 Build 0)  -->
<svg version="1.1" id="Layer_1" xmlns="http://www.w3.org/2000/svg" xmlns:xlink="http://www.w3.org/1999/xlink" x="0px" y="0px"
	 viewBox="0 0 80.1 80.1" style="enable-background:new 0 0 80.1 80.1;" xml:space="preserve">
<style type="text/css">
	.st0{fill:none;stroke:#FFFFFF;stroke-width:2.481;stroke-miterlimit:10;}
	.st1{fill:#FFFFFF;}
</style>
<ellipse transform="matrix(0.3827 -0.9239 0.9239 0.3827 -12.2774 61.7226)" class="st0" cx="40" cy="40" rx="38.8" ry="38.8"/>
<path class="st1" d="M59.7,59.9H24.3c-0.8,0-1.5-0.7-1.5-1.5V28.5c0-0.8,0.7-1.5,1.5-1.5h35.4c0.8,0,1.5,0.7,1.5,1.5v29.9
	C61.2,59.2,60.6,59.9,59.7,59.9 M24.3,28.2c-0.1,0-0.3,0.1-0.3,0.3v29.9c0,0.1,0.1,0.3,0.3,0.3h35.4c0.1,0,0.3-0.1,0.3-0.3V28.5
	c0-0.1-0.1-0.3-0.3-0.3H24.3z"/>
<path class="st1" d="M53.6,33.8c0,1.6-1.3,3-3,3c-1.6,0-3-1.3-3-3c0-1.6,1.3-3,3-3C52.2,30.8,53.6,32.1,53.6,33.8"/>
<path class="st1" d="M25.8,46.3c0.5-0.1,8.9-7.4,8.9-7.4s1.7-1.4,2.6,0l6.3,7.4l4.5-3.1c0,0,1.4-1.2,3.3,0.2l6.8,3.6v9.7H25.8V46.3z
	"/>
<path class="st1" d="M53.3,20.3c-0.1-0.4-0.3-0.7-0.6-1c-0.3-0.2-0.7-0.3-1.1-0.2l-34.9,6.1c-0.4,0.1-0.7,0.3-1,0.6
	c-0.2,0.3-0.3,0.7-0.2,1.1l5.2,29.4c0,0.3,0.2,0.5,0.3,0.7l0-0.2v-5.4l-4.4-24.8c0-0.1,0.1-0.3,0.2-0.3l34.9-6.1c0,0,0,0,0,0
	c0.1,0,0.2,0.1,0.3,0.2l0.9,4.9h1.2L53.3,20.3z"/>
</svg>
