<?xml version="1.0" encoding="utf-8"?>
<!-- Generator: Adobe Illustrator 22.1.0, SVG Export Plug-In . SVG Version: 6.00 Build 0)  -->
<svg version="1.1" id="Layer_1" xmlns="http://www.w3.org/2000/svg" xmlns:xlink="http://www.w3.org/1999/xlink" x="0px" y="0px"
	 viewBox="0 0 80.1 80.1" style="enable-background:new 0 0 80.1 80.1;" xml:space="preserve">
<style type="text/css">
	.st0{fill:#FFFFFF;}
	.st1{fill:none;stroke:#FFFFFF;stroke-width:2.481;stroke-miterlimit:10;}
</style>
<path class="st0" d="M64.7,58H18.1c-0.5,0-0.9-0.4-0.9-0.9c0-0.5,0.4-0.9,0.9-0.9h46.6c0.5,0,0.9,0.4,0.9,0.9
	C65.6,57.6,65.2,58,64.7,58"/>
<path class="st0" d="M54.5,31.5l-9.8-8.4c-0.6-0.5-0.7-1.5-0.2-2.1l1.9-2.1c0.5-0.6,1.5-0.7,2.1-0.2l9.8,8.4
	c0.6,0.5,0.7,1.5,0.2,2.1l-1.8,2.1C56,32,55.1,32.1,54.5,31.5"/>
<polygon class="st0" points="45.9,19.5 43,22.8 55,33.1 58.4,29.2 47.4,21 "/>
<path class="st0" d="M26.4,42.3l15.3-17.8l3.1,2.7L31.4,42.7l-4.3,0.3l-1.6,9.6l2.9,2.3l8.9-2.9l-0.3-4.3l13.7-15.5l2.9,2.5
	L38.2,52.8l-12.3,4l-1.7-0.2C24.2,56.6,23.1,56.8,26.4,42.3"/>
<polygon class="st0" points="32.2,47.5 32.1,43.5 45.6,27.9 49.7,31.6 36.2,47.2 "/>
<circle class="st1" cx="40" cy="40" r="38.8"/>
</svg>
