<?xml version="1.0" encoding="utf-8"?>
<!-- Generator: Adobe Illustrator 22.1.0, SVG Export Plug-In . SVG Version: 6.00 Build 0)  -->
<svg version="1.1" id="Layer_1" xmlns="http://www.w3.org/2000/svg" xmlns:xlink="http://www.w3.org/1999/xlink" x="0px" y="0px"
	 viewBox="0 0 80.1 80.1" style="enable-background:new 0 0 80.1 80.1;" xml:space="preserve">
<style type="text/css">
	.st0{fill:none;stroke:#FFFFFF;stroke-width:2.481;stroke-miterlimit:10;}
	.st1{fill:#FFFFFF;}
</style>
<ellipse transform="matrix(0.2298 -0.9732 0.9732 0.2298 -8.1299 69.8244)" class="st0" cx="40" cy="40" rx="38.8" ry="38.8"/>
<path class="st1" d="M42.4,16.9c-0.2-0.3-0.6-0.5-1-0.3c-0.2,0.1-0.3,0.1-0.5,0.2h0c0.3-0.2,0.6-0.5,0.9-0.7
	c0.2-0.1,0.3-0.3,0.3-0.6c0.2-0.2,0.3-0.4,0.4-0.6c0.2-0.3-0.1-0.6-0.4-0.5c-0.4,0.1-0.8,0.2-1.2,0.3c-0.1,0-0.2,0.2-0.2,0.3
	l-0.1,0.1c0.1-0.5,0.2-1.1,0.1-1.9c0-0.4,0-0.7,0-1.1c0-0.4-0.2-0.5-0.3-0.9c-0.1-0.4-0.7-0.3-0.7,0.1v0.6c0,0.1,0,0.1,0,0.2
	c0,0.1,0,0.2,0,0.3c-0.3,0.1-0.5,0.3-0.5,0.7c0.3,1.2-0.1,2.3-1,3.2C38,16.4,38,16.7,38,16.9c-13.6,1.2-24.2,12.6-24.2,26.5
	c0,7,2.7,13.6,7.6,18.6l0.3,0.3H30l19.4-13.9L61.9,59l0.6-0.9c2.9-4.4,4.4-9.5,4.4-14.7C67,29.4,56.1,17.9,42.4,16.9 M30.8,46.3
	c-0.3,0-0.6,0-0.5-0.1c0.1,0,0.1-0.1,0.1-0.1h0.1c0.3,0,0.6-0.1,0.9-0.3C31.2,46,31,46.2,30.8,46.3 M31.6,45.5
	c0-0.1-0.1-0.2-0.2-0.2c-0.2,0-0.3,0.1-0.5,0.1c0.2-0.1,0.3-0.2,0.5-0.3c0.2-0.2,0.2-0.4,0.1-0.5l0-0.1c0.1-0.1,0.2-0.2,0.4-0.3
	c0.2-0.1,0.2-0.4,0.1-0.5c0.1-0.1,0.3-0.3,0.4-0.5c0.2,0.1,0.4,0.1,0.7,0c0.6-0.3,1.1-0.6,1.7-0.8C33.8,43.4,32.7,44.5,31.6,45.5
	 M37.4,32.6c-1.5,0.3-2,0.6-3.4,1.1c-0.4,0.2-0.4,0.5-0.3,0.8l-0.1,0c-0.2,0.1-0.4,0.2-0.6,0.3c-0.4,0.2-0.3,0.8,0.2,0.7
	c0.1,0,0.3-0.1,0.4-0.1c0,0.2,0.2,0.4,0.4,0.3c0.6-0.2,2.8-0.6,3.8-0.7c-1.8,0.6-3.5,1.2-5,2.4c-0.6,0.4-0.3,1.6,0.6,1.3
	c0.6-0.2,1.2-0.5,1.8-0.7c-0.1,0.1-0.2,0.2-0.2,0.3c-0.1,0-0.2,0-0.3,0c-0.3,0.1-0.6,0.3-0.9,0.6c-0.1,0.1-0.1,0.3,0,0.5
	c-0.2,0.3,0.2,0.7,0.6,0.4c0.3-0.2,1.1-0.5,1.3-0.5c-1.2,0.8-2.3,1.7-3.4,2.7C32,42.2,32,42.4,32,42.6c-0.5,0.1-0.9,0.3-1.2,0.6
	c-0.1,0-0.2,0-0.4,0l0,0c0.1-0.1,0.2-0.2,0.2-0.4c0,0,0-0.1,0-0.2l0.2-0.1l0.1-0.1c0.2-0.1,0.3-0.2,0.5-0.3c0.1-0.1,0-0.3-0.1-0.3
	c-0.3,0-0.7,0-1,0.1l0,0c-0.1-0.1-0.2-0.1-0.3-0.1l0-0.2c0.3-0.2,0.6-0.4,0.9-0.6c0.1,0,0.1-0.1,0.1-0.2c0.1-0.1,0.2-0.2,0.3-0.3
	c0.3-0.3,0-0.7-0.3-0.6c-0.2,0-0.4,0.1-0.6,0.2C30.2,40,30.1,40,30,40c0-0.1-0.1-0.2-0.2-0.1l-0.1,0l-0.1,0
	c-0.1,0.1-0.3,0.1-0.4,0.2l0-0.1c0.1-0.1,0.1-0.1,0.2-0.2c0.1-0.1,0.2-0.1,0.3-0.2c0.1-0.1,0.1-0.2,0-0.3c0.1-0.2,0.3-0.4,0.4-0.6
	l0.1-0.1c0.2-0.2,0.4-0.3,0.5-0.5c0.1-0.1,0.1-0.3,0-0.4c0.3-0.2,0.1-0.7-0.3-0.6c-0.2,0.1-0.5,0.1-0.7,0.2c0.1-0.1,0.2-0.3,0.4-0.4
	c0.1-0.1,0.1-0.1,0.1-0.2l0.2-0.1c0.2-0.1,0.3-0.4,0.1-0.6c-0.1-0.2-0.4-0.3-0.6-0.2c-0.1,0-0.1,0.1-0.2,0.1l0,0
	c-0.1-0.1-0.1-0.3-0.2-0.4c0.1-0.2,0.3-0.4,0.4-0.5c0.3-0.3-0.1-0.8-0.4-0.6c-0.1,0-0.1,0.1-0.2,0.1c0.1-0.1,0.1-0.3,0-0.5l0-0.1
	l0.1-0.1c0.1,0,0.1-0.1,0.2-0.1c0.2-0.1-0.4-0.3-0.4-0.5c0.1-0.1,0.1-0.3,0.2-0.4c0.1-0.2-0.1-0.6-0.3-0.5c-0.1-0.4-0.3-0.8-0.4-1.2
	c0.2-0.5,0.3-1.1,0.2-1.9c0-0.3-0.5-0.3-0.6-0.1c-0.4,0.7-0.4,1.3-0.3,1.9c-0.2,0.5-0.6,0.9-0.9,1.4c-0.2,0.3,0.3,0.7,0.6,0.4
	c0.1-0.1,0.1-0.1,0.2-0.2c-0.2,0.5-0.3,1.1-0.3,1.6c-0.1,0.1-0.3,0.3-0.4,0.4c-0.2,0.2,0,0.6,0.2,0.6c0,0.1-0.1,0.1-0.1,0.2
	c-0.4,0.3-0.8,0.5-1.1,0.8h0l-0.1,0.1c-0.3,0.2-0.1,0.5,0.2,0.6c-0.2,0.1-0.5,0.2-0.7,0.4c-0.4,0.2,0,0.8,0.4,0.6
	c0.2-0.1,0.4-0.2,0.6-0.3c0.1,0.1,0.1,0.2,0.3,0.2l0.1,0c-0.2,0.2-0.4,0.4-0.6,0.6c-0.1,0.1-0.3,0.2-0.4,0.3
	c-0.3,0.2-0.2,0.6,0.1,0.7c-0.3,0.2-0.5,0.4-0.8,0.6c-0.2,0.2-0.1,0.4,0,0.6c-0.1,0.1,0.1,0.3,0.2,0.2c0.4-0.2,0.9-0.4,1.3-0.6
	c-0.2,0.2-0.4,0.4-0.5,0.6l0,0.1c-0.1,0-0.1,0.1-0.2,0.1c-0.3,0.2-0.1,0.5,0.1,0.6l-0.1,0.1c-0.3,0.1-0.7,0.2-1,0.3
	c-0.1,0-0.1,0.1-0.1,0.2l-0.1,0c-0.3,0.1-0.3,0.5-0.2,0.7c-0.1,0.1,0.1,0.3,0.3,0.2c0.2-0.1,0.3-0.1,0.5-0.2
	c0.3-0.1,0.6-0.2,0.9-0.2l0,0.1c-0.1,0.1-0.2,0.3-0.3,0.4c-0.2,0-0.3,0.1-0.4,0.1c-0.2,0-0.3,0.2-0.2,0.3l-0.1,0
	c-0.3,0.1-0.5,0.2-0.8,0.3l-0.1,0.1c-0.2,0.1-0.3,0.1-0.5,0.2c-0.2,0.1-0.1,0.3,0.1,0.3c0.2,0,0.3,0,0.4,0c0,0.1,0.1,0.2,0.2,0.1
	c0.3,0,0.6-0.1,0.9-0.1c0.1,0.1,0.2,0.1,0.3,0.1c0.1,0,0.2,0,0.3,0l0.1,0C26.1,45,26,45,26,45.1c-0.1,0-0.1,0-0.2,0.1
	c-0.6,0.2-1.1,0.6-1.7,0.9L24,46.1l-0.1,0c-0.2,0.1-0.1,0.3,0.1,0.3l0.1,0c0,0.1,0.1,0.2,0.2,0.2c0.2,0,0.4-0.1,0.6-0.1
	c-0.2,0.1-0.3,0.2-0.5,0.3c-0.1,0-0.2,0-0.2,0c-0.3-0.1-0.5,0.2-0.4,0.5C23.4,47.5,23,48,23,48.6c-0.2,0-0.4,0.1-0.5,0.1
	c-0.2,0.1-0.3,0.3-0.3,0.4c0,0.1,0,0.2,0.1,0.3c0,0.1,0.1,0.2,0.2,0.2c0.3-0.1,0.6-0.1,0.9-0.2c0.7-0.2,1.5-0.3,2.2-0.6l0.1,0
	L25.5,49c-0.1,0-0.2,0-0.3,0.1l-0.1,0c-0.1,0-0.3,0.1-0.4,0.1c-0.2,0.1-0.3,0.3-0.2,0.5l-0.1,0.1L24.2,50c-0.2,0.1-0.8,0.4-1,0.5
	c-0.4,0.1-0.9,0.3-1.2,0.6c-0.4,0.3,0,1,0.4,0.7h0l0.1,0l0.2,0l0.1-0.1c0.1,0,0.2-0.1,0.2-0.1l0.1,0l0,0l0,0c0,0.1,0,0.2,0.2,0.2
	c0.1,0,0.1,0.1,0.2,0.1c0.1,0,0.1,0.1,0.2,0.1l0.1,0l0.6-0.2c0.1,0,0.2,0,0.3-0.1c0,0.2-0.1,0.4,0,0.6c-0.3,0.2-2.2,1.3-2.6,1.5
	c-0.2,0.1-0.2,0.3-0.1,0.5l-0.1,0.1c-0.2,0.3,0.1,0.6,0.4,0.5l0,0c0,0.4,0,0.8,0.5,0.9c0.1,0.1,0.3,0.1,0.5-0.1
	c0.1-0.1,0.5-0.2,0.6-0.3c0.2,0,0.8-0.1,0.9-0.1l0.1-0.1c0.1,0,0.2-0.1,0.3-0.1c-0.1,0.1-0.1,0.1,0,0.2c-0.3,0.3-0.7,0.7-1,1
	c-0.4,0.2-1.7,0.6-2.1,0.9c-0.1,0.1-0.1,0.1,0,0.2c-0.1,0.1-0.2,0.2-0.4,0.3c-0.5,0-0.5,0.8,0,0.8c0.1,0,0.3,0,0.4,0l0.1,0l0.1,0
	c0.1,0,0.2,0,0.3,0c0,0.1,0.1,0.1,0.2,0.1c0.1,0,1.3-0.2,1.4-0.2l0.1,0l0.9-0.3c0,0-0.2,0.1-0.4,0.2c-0.8,0.4-1.8,0.7-2.4,1.4
	c-0.1,0.1-0.1,0.3,0.1,0.3c0.2,0,0.3,0,0.5,0C23,60,23.1,60,23.3,60l0,0c0,0.1,0.1,0.2,0.2,0.3l0,0.1h-0.9
	c-4.3-4.6-6.7-10.6-6.7-16.9C15.8,31,25,20.8,36.8,19c0.1,0.3,0.5,0.6,0.8,0.4c0.2-0.1,0.4-0.1,0.6-0.2c-0.7,0.6-1.5,1.1-2.3,1.6
	c-0.6,0.4-0.3,1.2,0.2,1.3c-0.1,0.1-0.3,0.2-0.4,0.3c-0.5,0.5,0,1.5,0.7,1.2c1.6-0.7,3.3-1.4,5-1.8c-2.4,1.1-4.8,2-6.4,4.5
	c-0.3,0.5,0,0.9,0.5,1c-0.2,0.2-0.4,0.4-0.6,0.6l0,0c-0.3,0.1-0.6,0.3-1,0.4c-0.3,0.2-0.1,0.7,0.2,0.6c-0.1,0.2-0.3,0.4-0.4,0.7
	c-0.4,0.7,0.4,1.2,1,1c0.1,0,0.2-0.1,0.2-0.1l0.1,0c0.3-0.1,0.5-0.2,0.8-0.2c-0.1,0.2,0,0.3,0.2,0.4l0,0.1c-0.1,0.2,0,0.5,0.2,0.5
	c0.4,0.1,0.8,0.1,1.3,0.1c0.1,0.1,0.2,0.1,0.3,0.1l0.1,0c-0.1,0.1-0.2,0.1-0.4,0.2C37.4,32.1,37.3,32.4,37.4,32.6 M43.6,44.2l-2.9,3
	c0,0,0,0.3,0,0.7c0,0.1,0,0.2,0,0.4c0,0.1,0,0.1,0,0.2c0,0.1,0,0.3,0,0.4v0c0,0.1,0,0.2,0,0.3c0,0.1,0,0.2,0,0.3l0,0l0,0.1l0,0.1
	l0,0.1l0,0.1l0,0.2l0,0.1c0,0.1,0,0.2,0,0.3l0,0c0,0.1,0,0.2,0,0.3l0,0.1c0,0.1,0,0.2,0,0.3l0,0.1c0,0.1,0,0.2,0,0.4l0,0
	c0,0.1,0,0.3,0,0.4l0,0c0,0.6,0.1,1.1,0.1,1.2c0,0.1,0,0.6,0,1.3l-1.3,0.9c0-0.2,0-0.4,0-0.5c-0.1-0.4,0-1.2,0-2c0-0.1,0-0.3,0-0.4
	c0-0.1,0-0.1,0-0.2c0-0.1,0-0.2,0-0.3c0-0.1,0-0.1,0-0.2l0-0.2c0-0.1,0-0.2,0-0.3c0,0,0-0.1,0-0.2c-0.1-1,0.4-4.7,0.5-4.9
	c0,0,0-0.1,0-0.2v0c0-0.1,0-0.2,0-0.3c0-0.1,0-0.3,0-0.4c-0.1-0.9-0.4-2.1-0.5-2.2c-0.2-0.1,0-2.5,0-2.9v-1.5L39.5,38L39,36.1v0
	c0,0,0.3,0.4,0.5,0.7c0.2,0.3,0.4,0.5,0.5,0.4c0.1-0.1,0.1-0.3,0.1-0.6v0c0-0.1,0-0.2,0-0.4c0-0.2,0-0.4,0-0.5c0-0.2,0-0.4,0-0.6
	c0-0.2,0-0.3,0-0.4v0c0-0.1,0.1-0.6,0.1-1.1c0-0.1,0-0.2,0-0.3c0-0.2,0.1-0.5,0.1-0.7c0-0.3,0.1-0.4,0.1-0.4v-7.4v0v0l0.2,2.9
	l0.3,4.1v0l-0.2,1.3L40.3,35c0,0,0.1,1,0.1,2c0,0.5,0.1,1.1,0.1,1.4c0,0.1,0,0.2,0,0.3c-0.1,0.5-0.2,2.4-0.2,2.4
	c0,0,0.7,4.5,0.8,4.8l0,0c0,0,0.1,0,0.2,0C41.8,45.6,43.6,44.2,43.6,44.2L43.6,44.2L43.6,44.2z M46.2,41.5l-0.2,0.1L46.2,41.5
	L46.2,41.5L46.2,41.5 M49.6,39.7L49.6,39.7L49.6,39.7L49.6,39.7 M61.5,56L57,52.2c0.2,0,0.3-0.2,0.3-0.3c0.2,0,0.3,0,0.5-0.1
	c0.2,0,0.4-0.3,0.3-0.5c0.2-0.1,0.5-0.1,0.7-0.2c0.4-0.1,0.3-0.7-0.1-0.7c-0.7-0.1-1.4,0-2.1,0c0.4-0.2,0.8-0.3,1.1-0.5
	c0.1,0,0.1-0.1,0.1-0.1c0.4-0.1,0.8-0.2,1.2-0.4c0.4-0.1,0.3-0.7-0.1-0.7c-0.2,0-0.5,0-0.7,0c0.4-0.1,0.7-0.2,1.1-0.3
	c0.4-0.1,0.3-0.8-0.2-0.7c-0.1,0-0.2,0-0.3,0.1c0.2-0.2,0-0.7-0.4-0.6c-0.6,0.2-1.2,0.3-1.8,0.4l-0.1-0.1c-0.1-0.1-0.1-0.1-0.3-0.1
	l0,0c-0.1,0-0.2,0-0.4,0l0,0l0.1,0l0.2,0c0.3-0.1,0.6-0.2,0.9-0.3c0.4-0.1,0.3-0.6,0-0.7c0.8-0.2,1.6-0.5,2.4-0.9
	c0.4-0.2,0.1-0.7-0.3-0.6c-0.3,0.1-0.7,0.2-1,0.2c0-0.2-0.2-0.4-0.4-0.3c-0.3,0.1-0.7,0.2-1,0.3c0.1-0.2-0.1-0.6-0.4-0.5
	c-0.1,0-0.2,0.1-0.3,0.1c0-0.1-0.1-0.1-0.2-0.1c0-0.1,0-0.1-0.1-0.2c0.5-0.3,0.9-0.6,1.4-1c0.3-0.2,0.1-0.7-0.3-0.6
	c-0.1,0-0.3,0.1-0.4,0.1c0.2-0.1,0.2-0.4,0.1-0.5l0,0c0.2-0.1,0.3-0.3,0.2-0.5c0.2-0.1,0.3-0.2,0.5-0.3l0.1-0.1
	c0.4-0.2,0.7-0.4,1-0.7c0.2-0.2,0-0.6-0.2-0.6c-0.1,0-0.2,0-0.3,0c-0.1-0.1-0.1-0.2-0.3-0.1c-0.5,0.1-1.1,0.1-1.6,0.2
	c-0.1,0-0.1,0-0.2,0l0,0c-0.7,0.2-1.4,0.3-2.2,0.6l0.2-0.2l0,0c0.4-0.2,0.8-0.4,1.3-0.6c0.2-0.1,0.2-0.2,0.2-0.3
	c0.2-0.1,0.4-0.2,0.6-0.4c0.3-0.2,0.2-0.5,0-0.6c0.2-0.2,0.5-0.4,0.7-0.6c0.3-0.3,0-0.6-0.3-0.6c-0.2,0-0.4,0.1-0.6,0.1l-0.1,0
	c-0.3,0-0.7-0.1-1-0.1c0.1-0.2-0.1-0.6-0.4-0.5c-0.1,0-0.2,0-0.3,0.1l0-0.1c0.3-0.1,0.7-0.3,1-0.5c0.4-0.2,0.1-0.7-0.3-0.6
	c-0.1,0-0.2,0-0.3,0.1c-0.1-0.1-0.2-0.2-0.4-0.1c-0.3,0.1-0.7,0.2-1,0.3c0.9-0.4,1.7-0.8,2.5-1.2c0.4-0.2,0.1-0.8-0.4-0.6
	c-0.3,0.1-0.6,0.2-0.8,0.4l-0.1,0c0.1-0.1,0.1-0.1,0.2-0.2c0.2-0.3,0-0.6-0.3-0.6c0.2-0.1,0.4-0.2,0.5-0.4c0.3-0.2,0.1-0.8-0.3-0.6
	c-0.3,0.1-0.5,0.1-0.8,0.2c-0.1-0.1-0.2-0.1-0.3-0.2l-0.1,0c0.5-0.4,0.9-0.9,1.3-1.4c0.2-0.2-0.1-0.5-0.3-0.5c-0.5,0-1,0.2-1.4,0.2
	l-0.1-0.1c0.2-0.1,0.3-0.2,0.5-0.4l0.1-0.1c0.1-0.1,0.2-0.2,0.2-0.3c0.4-0.2,0.3-0.2,0.7-0.6c0.2-0.3,0-0.7-0.3-0.6
	c-0.2,0.1-0.4,0.1-0.6,0.2c0.1-0.2,0-0.4-0.2-0.5c0.1-0.1,0.1-0.2,0.2-0.3c0.1-0.2,0-0.3-0.1-0.4c0.1-0.2,0.1-0.4,0.2-0.6
	c0-0.2,0-0.3-0.2-0.4c0-0.2-0.1-0.3-0.2-0.4c0.1-0.3,0.2-0.7,0.3-1c0.2-0.4-0.5-0.6-0.7-0.2c-0.2,0.6-0.3,1.3-0.8,1.8
	c-0.2,0.2-0.1,0.5,0.2,0.6l0,0c0.1,0.3-0.2,0.6-0.3,0.9c-0.1,0.2,0,0.3,0.1,0.4l0,0.1l-0.1,0.1c-0.2,0.1-0.3,0.2-0.5,0.3
	c-0.4,0.3,0,0.8,0.4,0.6l0.1-0.1l0,0c-0.4,0.3-0.8,0.5-1.2,0.8c-0.4,0.2-0.1,0.7,0.3,0.6c0.4-0.1,0.8-0.2,1.2-0.3
	c0,0.1,0.1,0.1,0.1,0.2c-0.1,0.1-0.1,0.2-0.2,0.3c-0.2,0.1-0.5,0.2-0.7,0.3c-0.2,0-0.3,0.2-0.2,0.4c-0.1,0.1-0.2,0.1-0.3,0.2
	c-0.2,0.1-0.2,0.3-0.1,0.4c-0.2,0.1-0.4,0.3-0.6,0.4c-0.2,0.2,0,0.6,0.2,0.6c0.2,0,0.4,0,0.5-0.1c-0.2,0.1-0.3,0.3-0.2,0.5
	c-0.2,0.1-0.3,0.2-0.5,0.3c-0.4,0.1-0.8,0.3-1.1,0.4c-0.4,0.2-0.3,0.8,0.2,0.7c0.4-0.1,0.8-0.2,1.2-0.4c0.2-0.1,0.4-0.1,0.5-0.2
	c-0.2,0.1-0.4,0.2-0.7,0.3c-0.2,0.1-0.2,0.3-0.1,0.4c-0.5,0.3-1,0.5-1.5,0.8c-0.3,0.2-0.1,0.7,0.3,0.6c0.6-0.2,1.2-0.3,1.8-0.5
	c0,0.1,0,0.1,0,0.2c-0.2,0.1-0.4,0.1-0.6,0.2c-0.2,0-0.2,0.2-0.2,0.3c-0.1,0-0.1,0-0.2,0.1l-0.1,0c-0.1,0-0.2,0-0.2,0.1
	c-0.3,0.1-0.7,0.3-1,0.4c-0.1,0-0.1,0.1-0.2,0.2c-0.3-0.6-1-1.1-2.4-0.9c0,0,1.4-1.4,1.8-1.7c0.4-0.3,0.1-0.8-0.4-0.6
	c-0.1,0.1-0.2,0.1-0.4,0.2c0-0.1-0.1-0.2-0.2-0.3c0.1-0.1,0.2-0.1,0.2-0.2c0.5-0.4,0-1.5-0.7-1.2c-0.4,0.2-0.8,0.3-1.3,0.4
	c-0.1-0.1-0.2-0.3-0.3-0.3c0.2-0.1,0.4-0.1,0.6-0.2c0.1,0,0.1,0,0.2,0c0.4-0.1,0.8-0.2,1.1-0.5c0.3-0.2,0.1-0.7-0.3-0.6
	c-0.1,0-0.3,0.1-0.4,0.1c0-0.1,0-0.1,0-0.2c0.7-0.3,1.4-0.6,2.1-0.9c0.8-0.4,0.2-1.5-0.6-1.3c-0.3,0.1-0.5,0.1-0.8,0.2l0,0
	c-0.1-0.1-0.2-0.3-0.3-0.3c-0.7,0-1.4,0.1-2.1,0.2c0.6-0.2,1.1-0.5,1.6-0.9c0.5-0.4,0.4-1.4-0.4-1.3c-0.3,0-0.5,0-0.8,0.1
	c0.5-0.3,1-0.6,1.4-0.9c0.4-0.1,0.8-0.4,1.1-0.7c0.2-0.2,0-0.6-0.2-0.6l-0.1-0.1c-0.1,0-0.2-0.1-0.3-0.1c-0.1-0.1-0.3-0.2-0.5-0.2
	c-1-0.1-2-0.1-3,0.1c0.1,0,0.1-0.1,0.2-0.1c0.7-0.2,1.3-0.4,1.9-0.7c0.3-0.1,0.5-0.4,0.5-0.7c0.2,0,0.5,0,0.7,0
	c0.3,0,0.5-0.4,0.2-0.6C46.3,24.1,46.2,24,46,24c0.2-0.2,0.2-0.4,0-0.6c-0.2-0.1-0.4-0.2-0.7-0.3c-0.1,0-0.3-0.1-0.4,0l-0.1,0
	c-0.4,0-0.9,0.1-1.3,0.2c-0.8,0.1-1.6,0.2-2.4,0.3c1.3-0.6,2.7-1.1,4-1.9c0.5-0.3,0.5-1.2-0.2-1.3c-0.8-0.1-1.7-0.1-2.4,0
	c0.5-0.3,1-0.6,1.5-0.9c0.2-0.1,0.2-0.2,0.3-0.4C56,21,65,31.1,65,43.4C65,47.9,63.8,52.2,61.5,56"/>
<path class="st1" d="M49.4,50.9L30.1,64.6h-7c0.7,0.7,1.5,1.4,2.2,2h5.4l18.5-13.2l10.6,9l1.3-1.5L49.4,50.9z"/>
</svg>
