<?xml version="1.0" encoding="utf-8"?>
<!-- Generator: Adobe Illustrator 22.1.0, SVG Export Plug-In . SVG Version: 6.00 Build 0)  -->
<svg version="1.1" id="Layer_1" xmlns="http://www.w3.org/2000/svg" xmlns:xlink="http://www.w3.org/1999/xlink" x="0px" y="0px"
	 viewBox="0 0 80.1 80.1" style="enable-background:new 0 0 80.1 80.1;" xml:space="preserve">
<style type="text/css">
	.st0{fill:none;stroke:#FFFFFF;stroke-width:2.481;stroke-miterlimit:10;}
	.st1{fill:#FFFFFF;}
</style>
<path class="st0" d="M78.9,40c0,21.4-17.4,38.8-38.8,38.8S1.2,61.5,1.2,40C1.2,18.6,18.6,1.2,40,1.2S78.9,18.6,78.9,40z"/>
<path class="st1" d="M65.7,44.2H15.1c-0.6,0-1.2,0.5-1.2,1.2V50c0,0.6,0.5,1.2,1.2,1.2h50.6c0.6,0,1.2-0.5,1.2-1.2v-4.6
	C66.8,44.7,66.3,44.2,65.7,44.2"/>
<path class="st1" d="M47.2,22.5v12.7h-1.8V22.1v-2.3c0-0.6-0.5-1.2-1.2-1.2h-7.6c-0.6,0-1.2,0.5-1.2,1.2v15.4h-1.8V22.5
	c-9.2,2.6-16.3,10.2-18,19.8h49.5C63.4,32.7,56.4,25.1,47.2,22.5"/>
</svg>
